# Blender 4.5.3 LTS
# www.blender.org
mtllib ala1.mtl
o Body.001
v 0.134187 0.368509 -0.049009
v 0.144598 0.326239 -0.037800
v 0.138751 0.371574 -0.036939
v 0.149230 0.329720 -0.024991
v 0.149879 0.383770 -0.049447
v 0.161875 0.328276 -0.030106
v 0.153104 0.390997 -0.040173
v 0.165456 0.333273 -0.020523
v 0.181518 0.421872 -0.059213
v 0.198987 0.325373 -0.024520
v 0.186326 0.424750 -0.054246
v 0.203132 0.329585 -0.017437
v 0.215011 0.446943 -0.068880
v 0.235497 0.324147 -0.024024
v 0.222794 0.447273 -0.065446
v 0.239971 0.326541 -0.019094
v 0.254318 0.450448 -0.077120
v 0.271205 0.323884 -0.026706
v 0.263625 0.450937 -0.074084
v 0.275728 0.325557 -0.022290
v 0.305457 0.442760 -0.081859
v 0.310938 0.327778 -0.032566
v 0.310738 0.444642 -0.078347
v 0.314595 0.330179 -0.028377
v 0.355303 0.414795 -0.072156
v 0.354678 0.343739 -0.042938
v 0.361219 0.417698 -0.069405
v 0.357170 0.346635 -0.039984
v 0.378609 0.395738 -0.067593
v 0.377921 0.352368 -0.047993
v 0.381714 0.398680 -0.065579
v 0.381090 0.354829 -0.045688
v 0.389888 0.378733 -0.063447
v 0.395912 0.357991 -0.051063
v 0.392980 0.379743 -0.062120
v 0.401988 0.359711 -0.049584
v 0.336837 0.433689 -0.073656
v 0.331445 0.431110 -0.077165
v 0.335478 0.337721 -0.033945
v 0.332636 0.335009 -0.037617
v 0.137804 0.343635 -0.051051
v 0.146429 0.352428 -0.022550
v 0.154056 0.348239 -0.047395
v 0.160338 0.359266 -0.025733
v 0.185922 0.361278 -0.049028
v 0.194902 0.368448 -0.032756
v 0.221381 0.367242 -0.052935
v 0.234283 0.371234 -0.040154
v 0.261592 0.368444 -0.057165
v 0.274614 0.372168 -0.046167
v 0.307149 0.366701 -0.060029
v 0.316134 0.375979 -0.048827
v 0.353197 0.364774 -0.059362
v 0.357558 0.373586 -0.050833
v 0.375091 0.364522 -0.058464
v 0.376319 0.371067 -0.053048
v 0.392501 0.365422 -0.056783
v 0.398028 0.368156 -0.054675
v 0.330654 0.367445 -0.059924
v 0.337310 0.380393 -0.049136
v 0.290530 0.324627 -0.029040
v 0.294753 0.326417 -0.024579
v 0.279698 0.447536 -0.080289
v 0.286448 0.449259 -0.077006
v 0.295137 0.373006 -0.048088
v 0.283885 0.367911 -0.059030
v 0.140846 0.333225 -0.045984
v 0.148901 0.340833 -0.020685
v 0.157782 0.335560 -0.039645
v 0.163774 0.345253 -0.020371
v 0.192099 0.339188 -0.036709
v 0.200009 0.346672 -0.022266
v 0.228258 0.341048 -0.037414
v 0.238409 0.345920 -0.026825
v 0.266355 0.341430 -0.040704
v 0.276471 0.345500 -0.031380
v 0.308845 0.342644 -0.045175
v 0.316257 0.347960 -0.036337
v 0.353467 0.350486 -0.050373
v 0.357627 0.356929 -0.043562
v 0.375998 0.356095 -0.052657
v 0.378843 0.361394 -0.047865
v 0.394483 0.360737 -0.053514
v 0.400512 0.363288 -0.051459
v 0.331247 0.345969 -0.047905
v 0.336917 0.352017 -0.039659
v 0.287100 0.341750 -0.042865
v 0.296088 0.345971 -0.033643
v 0.337483 0.412434 -0.062516
v 0.135226 0.355648 -0.053223
v 0.143143 0.363170 -0.028031
v 0.151231 0.363680 -0.052105
v 0.156765 0.377287 -0.032482
v 0.182588 0.397840 -0.056397
v 0.190289 0.403892 -0.043417
v 0.216647 0.418844 -0.063750
v 0.228931 0.417332 -0.054206
v 0.256981 0.420437 -0.069881
v 0.270335 0.419641 -0.061206
v 0.305541 0.408946 -0.073103
v 0.314331 0.417139 -0.064362
v 0.353779 0.391767 -0.067653
v 0.359133 0.400898 -0.060812
v 0.376148 0.379290 -0.064746
v 0.377838 0.386433 -0.059986
v 0.391120 0.371918 -0.060589
v 0.395365 0.373993 -0.058664
v 0.330447 0.403827 -0.071401
v 0.291863 0.419392 -0.063596
v 0.280798 0.415379 -0.072371
v 0.253038 0.324030 -0.025137
v 0.257629 0.325891 -0.020630
v 0.233723 0.450554 -0.072588
v 0.242726 0.450663 -0.069577
v 0.254434 0.371792 -0.043326
v 0.240874 0.368048 -0.054953
v 0.246852 0.341334 -0.038824
v 0.257367 0.345566 -0.029116
v 0.249488 0.418824 -0.057719
v 0.235925 0.421967 -0.066734
v 0.203658 0.436922 -0.060547
v 0.197881 0.436358 -0.064744
v 0.221854 0.327731 -0.017935
v 0.217506 0.324535 -0.023729
v 0.203131 0.364697 -0.050779
v 0.214268 0.370073 -0.036589
v 0.210020 0.340310 -0.036659
v 0.219205 0.346306 -0.024468
v 0.209142 0.411053 -0.049595
v 0.199176 0.408902 -0.060261
v 0.180539 0.326407 -0.026515
v 0.184397 0.331699 -0.017887
v 0.165635 0.405312 -0.053115
v 0.169419 0.410942 -0.046226
v 0.177025 0.365573 -0.028839
v 0.170013 0.355225 -0.047620
v 0.174983 0.337419 -0.037516
v 0.181544 0.346608 -0.020620
v 0.173033 0.395366 -0.035968
v 0.166996 0.384193 -0.052791
vn -0.4195 0.4328 -0.7979
vn -0.6209 0.6381 0.4553
vn -0.6352 0.6294 0.4476
vn -0.5949 0.4503 -0.6659
vn -0.0753 -0.3794 0.9222
vn -0.0417 -0.9936 -0.1047
vn -0.0360 -0.9909 -0.1296
vn -0.0072 -0.3475 0.9376
vn -0.0606 0.0139 0.9981
vn -0.0192 -0.7535 0.6571
vn -0.1046 -0.4867 0.8673
vn -0.0401 0.1537 0.9873
vn 0.3105 -0.8337 -0.4566
vn 0.0900 -0.9864 -0.1375
vn 0.0866 -0.0433 -0.9953
vn 0.0377 -0.0479 -0.9981
vn -0.5617 0.6019 -0.5677
vn -0.1876 0.6602 0.7273
vn -0.0517 0.7465 0.6633
vn -0.4548 0.7267 -0.5148
vn -0.1032 -0.0870 -0.9909
vn -0.6429 0.3940 -0.6568
vn -0.6013 0.4620 -0.6520
vn -0.1366 -0.1508 -0.9791
vn -0.4731 0.7265 0.4983
vn -0.3054 0.7233 0.6194
vn 0.0226 0.2882 0.9573
vn 0.0887 0.3638 0.9273
vn 0.0858 -0.3881 0.9176
vn -0.0309 -0.9715 -0.2352
vn -0.0207 -0.9661 -0.2575
vn 0.1158 -0.4122 0.9037
vn 0.1082 0.4037 0.9085
vn 0.0391 -0.3501 0.9359
vn 0.0725 -0.3696 0.9264
vn 0.1126 0.4258 0.8978
vn -0.0351 -0.9867 -0.1588
vn -0.0304 -0.9801 -0.1964
vn -0.1128 -0.1836 -0.9765
vn -0.1093 -0.1984 -0.9740
vn 0.1977 -0.4250 0.8834
vn 0.0382 -0.9604 -0.2759
vn 0.1534 -0.9477 -0.2800
vn 0.3087 -0.3995 0.8632
vn -0.1402 -0.2192 -0.9656
vn -0.2390 0.7129 -0.6593
vn -0.1330 0.5805 -0.8033
vn -0.1468 -0.2411 -0.9593
vn 0.0650 0.8393 0.5398
vn 0.1174 0.9265 0.3575
vn 0.1086 0.4390 0.8919
vn 0.0943 0.4452 0.8905
vn 0.2228 0.1138 -0.9682
vn 0.4731 0.8808 0.0209
vn 0.6268 0.7789 -0.0218
vn 0.2159 0.0350 -0.9758
vn -0.1126 -0.2574 -0.9597
vn -0.0473 0.4211 -0.9058
vn 0.0825 0.2976 -0.9511
vn -0.0295 -0.2649 -0.9638
vn 0.1640 0.9597 0.2284
vn 0.3527 0.9348 0.0407
vn 0.0709 0.4349 0.8977
vn 0.0537 0.3999 0.9150
vn 0.3367 -0.3135 0.8879
vn 0.3101 -0.9306 -0.1946
vn 0.2915 -0.9382 -0.1868
vn 0.2989 -0.3545 0.8860
vn 0.0821 0.3578 0.9302
vn 0.3545 -0.3415 0.8705
vn 0.1234 0.3596 0.9249
vn 0.2661 -0.9284 -0.2595
vn 0.0309 -0.2527 -0.9671
vn 0.0170 -0.2503 -0.9680
vn 0.0409 -0.2937 -0.9550
vn 0.2405 -0.0135 -0.9706
vn 0.3003 -0.1560 -0.9410
vn 0.2888 -0.3518 -0.8904
vn 0.7665 0.6413 -0.0350
vn 0.1133 0.4254 0.8979
vn 0.9449 0.3024 -0.1250
vn 0.9821 0.1788 0.0583
vn 0.8611 -0.3422 0.3760
vn 0.9783 0.1653 0.1251
vn 0.3434 -0.8630 -0.3706
vn 0.0328 0.4040 0.9142
vn 0.0075 0.3744 0.9273
vn 0.0689 0.3598 0.9305
vn 0.0764 0.4142 0.9070
vn -0.0222 -0.5896 -0.8074
vn -0.0356 -0.4110 -0.9109
vn -0.0041 -0.4005 -0.9163
vn 0.0244 -0.5996 -0.7999
vn 0.2313 0.3943 0.8894
vn 0.1553 0.4385 0.8852
vn 0.9650 0.2522 0.0717
vn 0.2722 -0.5160 -0.8122
vn 0.2809 -0.4351 -0.8554
vn 0.1853 0.3852 0.9040
vn 0.1542 0.3702 0.9161
vn 0.0569 -0.6273 -0.7767
vn 0.0005 -0.4252 -0.9051
vn 0.0504 -0.4652 -0.8838
vn 0.0958 -0.6375 -0.7645
vn 0.0892 0.3795 0.9209
vn 0.0540 0.3946 0.9173
vn -0.0657 -0.5853 -0.8082
vn -0.0881 -0.4039 -0.9105
vn 0.1427 0.3436 0.9282
vn 0.1266 0.3955 0.9097
vn 0.1035 0.3986 0.9113
vn 0.1295 0.3580 0.9247
vn -0.0657 -0.5809 -0.8113
vn -0.0948 -0.3802 -0.9200
vn -0.1048 -0.3912 -0.9143
vn -0.0757 -0.5833 -0.8087
vn 0.0018 -0.5713 -0.8207
vn -0.0389 -0.3581 -0.9329
vn -0.0677 -0.3663 -0.9280
vn -0.0376 -0.5761 -0.8165
vn 0.1105 0.3624 0.9255
vn 0.1391 0.3901 0.9102
vn 0.1298 0.3925 0.9105
vn 0.1149 0.3437 0.9320
vn -0.0220 0.3952 0.9183
vn 0.0736 0.3435 0.9363
vn 0.1539 0.3725 0.9152
vn 0.1250 0.3957 0.9098
vn 0.1130 -0.5872 -0.8015
vn 0.1012 -0.3329 -0.9375
vn -0.0003 -0.3370 -0.9415
vn 0.0535 -0.5697 -0.8201
vn 0.3506 -0.4817 -0.8031
vn 0.2791 -0.2876 -0.9162
vn 0.2247 -0.3192 -0.9207
vn 0.2598 -0.5628 -0.7847
vn -0.1511 0.4232 0.8934
vn -0.0207 0.3183 0.9478
vn -0.0142 0.3371 0.9414
vn -0.1768 0.3959 0.9011
vt 0.864078 0.692189
vt 0.864193 0.704677
vt 0.853139 0.707287
vt 0.852165 0.695648
vt 0.899775 0.275507
vt 0.910574 0.272147
vt 0.908875 0.287009
vt 0.900547 0.290647
vt 0.812362 0.468673
vt 0.816148 0.468726
vt 0.818956 0.481895
vt 0.812012 0.480907
vt 0.905410 0.246851
vt 0.916740 0.242238
vt 0.911866 0.256662
vt 0.900438 0.259899
vt 0.712809 0.672346
vt 0.708424 0.672868
vt 0.701126 0.659589
vt 0.708528 0.658978
vt 0.918723 0.267887
vt 0.928208 0.272103
vt 0.926493 0.287807
vt 0.918337 0.281752
vt 0.701567 0.645592
vt 0.690107 0.646012
vt 0.679641 0.632345
vt 0.694956 0.632372
vt 0.918438 0.242158
vt 0.930581 0.244668
vt 0.929649 0.258154
vt 0.918460 0.254694
vt 0.812582 0.495437
vt 0.822766 0.497198
vt 0.825422 0.512393
vt 0.813076 0.510540
vt 0.904347 0.333043
vt 0.908814 0.329093
vt 0.909844 0.342916
vt 0.905527 0.346882
vt 0.813562 0.526241
vt 0.827386 0.527618
vt 0.827993 0.542415
vt 0.813590 0.541969
vt 0.901647 0.305570
vt 0.908207 0.301794
vt 0.908197 0.315766
vt 0.902999 0.319595
vt 0.691152 0.618495
vt 0.674260 0.618536
vt 0.669840 0.604207
vt 0.688451 0.603972
vt 0.906596 0.361355
vt 0.911207 0.357556
vt 0.912693 0.372541
vt 0.907847 0.375700
vt 0.687386 0.588119
vt 0.668538 0.588790
vt 0.668945 0.571926
vt 0.687735 0.570907
vt 0.917742 0.297047
vt 0.924967 0.304137
vt 0.923843 0.321319
vt 0.917196 0.313961
vt 0.813275 0.557509
vt 0.827906 0.556873
vt 0.827993 0.571690
vt 0.813118 0.573165
vt 0.917772 0.377487
vt 0.925336 0.381611
vt 0.927122 0.401770
vt 0.919038 0.397215
vt 0.689578 0.551527
vt 0.672535 0.551303
vt 0.676811 0.530452
vt 0.692724 0.531488
vt 0.918095 0.334843
vt 0.923888 0.340152
vt 0.924265 0.360159
vt 0.918393 0.356073
vt 0.812938 0.589250
vt 0.827840 0.587293
vt 0.825349 0.603700
vt 0.811719 0.605846
vt 0.910113 0.404031
vt 0.914616 0.402004
vt 0.915787 0.417246
vt 0.911324 0.419698
vt 0.808788 0.622937
vt 0.819283 0.621152
vt 0.812559 0.639313
vt 0.804729 0.640129
vt 0.909189 0.389671
vt 0.913804 0.387297
vt 0.697340 0.511400
vt 0.682499 0.509642
vt 0.691548 0.490721
vt 0.703136 0.492688
vt 0.710388 0.474775
vt 0.705512 0.472391
vt 0.712359 0.463617
vt 0.714579 0.462792
vt 0.929755 0.418784
vt 0.924294 0.416543
vt 0.804699 0.659329
vt 0.799107 0.657794
vt 0.477034 0.563117
vt 0.474871 0.562741
vt 0.474637 0.558468
vt 0.477034 0.558512
vt 0.930581 0.428043
vt 0.926493 0.425837
vt 0.798236 0.676767
vt 0.796168 0.675692
vt 0.916740 0.428918
vt 0.912643 0.433505
vt 0.774550 0.606610
vt 0.793776 0.606825
vt 0.794172 0.624168
vt 0.778389 0.625340
vt 0.731125 0.531275
vt 0.712488 0.531514
vt 0.713847 0.512348
vt 0.729037 0.512804
vt 0.786865 0.657796
vt 0.792171 0.656141
vt 0.793854 0.673829
vt 0.791091 0.671855
vt 0.718757 0.460389
vt 0.716854 0.461854
vt 0.716365 0.457212
vt 0.718678 0.455355
vt 0.783136 0.642757
vt 0.793977 0.640715
vt 0.726034 0.494418
vt 0.715196 0.493973
vt 0.716269 0.476079
vt 0.722003 0.475717
vt 0.772098 0.588335
vt 0.793112 0.589647
vt 0.731583 0.549098
vt 0.711103 0.550464
vt 0.770154 0.553679
vt 0.792551 0.556313
vt 0.792510 0.572855
vt 0.770300 0.570770
vt 0.731536 0.582032
vt 0.709728 0.585586
vt 0.710025 0.568646
vt 0.731514 0.566071
vt 0.730851 0.612157
vt 0.710837 0.616563
vt 0.710011 0.601556
vt 0.731429 0.597246
vt 0.774045 0.520379
vt 0.794273 0.523306
vt 0.793157 0.539768
vt 0.771307 0.536771
vt 0.784377 0.490148
vt 0.798643 0.492545
vt 0.795928 0.507345
vt 0.778063 0.504673
vt 0.729396 0.640814
vt 0.715287 0.644001
vt 0.712319 0.630762
vt 0.729903 0.626797
vt 0.726204 0.668645
vt 0.719280 0.670673
vt 0.718404 0.657286
vt 0.728630 0.654876
vt 0.798327 0.464797
vt 0.805675 0.467040
vt 0.801955 0.478674
vt 0.791570 0.476378
vt 0.747873 0.563067
vt 0.747624 0.547234
vt 0.733056 0.665983
vt 0.737592 0.652032
vt 0.741805 0.636986
vt 0.744610 0.622012
vt 0.746900 0.606964
vt 0.747873 0.592284
vt 0.747867 0.577930
vt 0.745868 0.530415
vt 0.740438 0.512314
vt 0.734079 0.493867
vt 0.726593 0.474400
vt 0.720481 0.459338
vt 0.720749 0.454288
vt 0.750229 0.566456
vt 0.753378 0.585026
vt 0.791059 0.461647
vt 0.782590 0.473906
vt 0.771892 0.487910
vt 0.762224 0.502331
vt 0.754606 0.516977
vt 0.752019 0.532861
vt 0.750262 0.549304
vt 0.757197 0.604730
vt 0.763471 0.625686
vt 0.772755 0.645094
vt 0.783555 0.661255
vt 0.788677 0.670084
vt 0.713610 0.459182
vt 0.748587 0.248081
vt 0.759787 0.246513
vt 0.759787 0.260024
vt 0.747928 0.261800
s 1
usemtl DUCK
f 1/1/1 3/2/2 7/3/3 5/4/4
f 132/5/5 131/6/6 10/7/7 12/8/8
f 68/9/9 4/10/10 8/11/11 70/12/12
f 4/13/10 2/14/13 6/15/14 8/16/11
f 90/17/15 1/18/1 5/19/4 92/20/16
f 122/21/17 121/22/18 15/23/19 13/24/20
f 140/25/21 133/26/22 9/27/23 94/28/24
f 133/29/22 134/30/25 11/31/26 9/32/23
f 138/33/27 132/34/5 12/35/8 72/36/28
f 112/37/29 111/38/30 18/39/31 20/40/32
f 128/41/33 123/42/34 16/43/35 74/44/36
f 123/45/34 124/46/37 14/47/38 16/48/35
f 130/49/39 122/50/17 13/51/20 96/52/40
f 62/53/41 61/54/42 22/55/43 24/56/44
f 120/57/45 113/58/46 17/59/47 98/60/48
f 113/61/46 114/62/49 19/63/50 17/64/47
f 118/65/51 112/66/29 20/67/32 76/68/52
f 38/69/53 37/70/54 27/71/55 25/72/56
f 110/73/57 63/74/58 21/75/59 100/76/60
f 63/77/58 64/78/61 23/79/62 21/80/59
f 88/81/63 62/82/41 24/83/44 78/84/64
f 28/85/65 26/86/66 30/87/67 32/88/68
f 86/89/69 39/90/70 28/91/65 80/92/71
f 39/93/70 40/94/72 26/86/66 28/85/65
f 108/95/73 38/96/53 25/97/56 102/98/74
f 104/99/75 29/100/76 33/101/77 106/102/78
f 102/98/74 25/97/56 29/100/76 104/99/75
f 25/72/56 27/71/55 31/103/79 29/104/76
f 80/92/71 28/91/65 32/105/68 82/106/80
f 106/107/78 33/108/77 35/109/81 107/110/82
f 29/104/76 31/103/79 35/111/81 33/112/77
f 82/106/80 32/105/68 36/113/83 84/114/84
f 32/88/68 30/87/67 34/115/85 36/116/83
f 100/76/60 21/75/59 38/96/53 108/95/73
f 24/56/44 22/55/43 40/94/72 39/93/70
f 78/84/64 24/83/44 39/90/70 86/89/69
f 21/80/59 23/79/62 37/70/54 38/69/53
f 101/117/86 52/118/87 60/119/88 89/120/89
f 77/121/90 51/122/91 59/123/92 85/124/93
f 105/125/94 56/126/95 58/127/96 107/128/82
f 83/129/97 57/130/98 58/131/96 84/132/84
f 103/133/99 54/134/100 56/126/95 105/125/94
f 79/135/101 53/136/102 55/137/103 81/138/104
f 81/138/104 55/137/103 57/130/98 83/129/97
f 85/124/93 59/123/92 53/136/102 79/135/101
f 89/120/89 60/119/88 54/134/100 103/133/99
f 109/139/105 65/140/106 52/118/87 101/117/86
f 87/141/107 66/142/108 51/122/91 77/121/90
f 119/143/109 115/144/110 50/145/111 99/146/112
f 117/147/113 116/148/114 49/149/115 75/150/116
f 127/151/117 125/152/118 47/153/119 73/154/120
f 129/155/121 126/156/122 48/157/123 97/158/124
f 139/159/125 135/160/126 46/161/127 95/162/128
f 137/163/129 136/164/130 45/165/131 71/166/132
f 67/167/133 41/168/134 43/169/135 69/170/136
f 91/171/137 42/172/138 44/173/139 93/174/140
f 75/150/116 49/149/115 66/142/108 87/141/107
f 99/146/112 50/145/111 65/140/106 109/139/105
f 76/68/52 20/67/32 62/82/41 88/81/63
f 17/64/47 19/63/50 64/78/61 63/77/58
f 98/60/48 17/59/47 63/74/58 110/73/57
f 20/40/32 18/39/31 61/54/42 62/53/41
f 50/145/111 76/68/52 88/81/63 65/140/106
f 18/175/31 75/150/116 87/141/107 61/176/42
f 2/177/13 67/167/133 69/170/136 6/178/14
f 131/179/6 137/163/129 71/166/132 10/180/7
f 124/181/37 127/151/117 73/154/120 14/182/38
f 111/183/30 117/147/113 75/150/116 18/175/31
f 61/176/42 87/141/107 77/121/90 22/184/43
f 40/185/72 85/124/93 79/135/101 26/186/66
f 30/187/67 81/138/104 83/129/97 34/188/85
f 26/186/66 79/135/101 81/138/104 30/187/67
f 34/188/85 83/129/97 84/132/84 36/189/83
f 22/184/43 77/121/90 85/124/93 40/185/72
f 52/118/87 78/84/64 86/89/69 60/119/88
f 56/126/95 82/106/80 84/114/84 58/127/96
f 54/134/100 80/92/71 82/106/80 56/126/95
f 60/119/88 86/89/69 80/92/71 54/134/100
f 65/140/106 88/81/63 78/84/64 52/118/87
f 115/144/110 118/65/51 76/68/52 50/145/111
f 126/156/122 128/41/33 74/44/36 48/157/123
f 135/160/126 138/33/27 72/36/28 46/161/127
f 42/172/138 68/9/9 70/12/12 44/173/139
f 49/149/115 98/60/48 110/73/57 66/142/108
f 19/190/50 99/146/112 109/139/105 64/191/61
f 3/192/2 91/171/137 93/174/140 7/193/3
f 134/194/25 139/159/125 95/162/128 11/195/26
f 121/196/18 129/155/121 97/158/124 15/197/19
f 114/198/49 119/143/109 99/146/112 19/190/50
f 64/191/61 109/139/105 101/117/86 23/199/62
f 37/200/54 89/120/89 103/133/99 27/201/55
f 27/201/55 103/133/99 105/125/94 31/202/79
f 31/202/79 105/125/94 107/128/82 35/203/81
f 23/199/62 101/117/86 89/120/89 37/200/54
f 51/122/91 100/76/60 108/95/73 59/123/92
f 57/130/98 106/102/78 107/204/82 58/131/96
f 53/136/102 102/98/74 104/99/75 55/137/103
f 55/137/103 104/99/75 106/102/78 57/130/98
f 59/123/92 108/95/73 102/98/74 53/136/102
f 66/142/108 110/73/57 100/76/60 51/122/91
f 116/148/114 120/57/45 98/60/48 49/149/115
f 125/152/118 130/49/39 96/52/40 47/153/119
f 136/164/130 140/25/21 94/28/24 45/165/131
f 41/168/134 90/17/15 92/20/16 43/169/135
f 47/153/119 96/52/40 120/57/45 116/148/114
f 15/197/19 97/158/124 119/143/109 114/198/49
f 48/157/123 74/44/36 118/65/51 115/144/110
f 14/182/38 73/154/120 117/147/113 111/183/30
f 73/154/120 47/153/119 116/148/114 117/147/113
f 97/158/124 48/157/123 115/144/110 119/143/109
f 74/44/36 16/43/35 112/66/29 118/65/51
f 13/24/20 15/23/19 114/62/49 113/61/46
f 96/52/40 13/51/20 113/58/46 120/57/45
f 16/48/35 14/47/38 111/38/30 112/37/29
f 45/165/131 94/28/24 130/49/39 125/152/118
f 11/195/26 95/162/128 129/155/121 121/196/18
f 46/161/127 72/36/28 128/41/33 126/156/122
f 10/180/7 71/166/132 127/151/117 124/181/37
f 95/162/128 46/161/127 126/156/122 129/155/121
f 71/166/132 45/165/131 125/152/118 127/151/117
f 94/28/24 9/27/23 122/50/17 130/49/39
f 12/8/8 10/7/7 124/46/37 123/45/34
f 72/36/28 12/35/8 123/42/34 128/41/33
f 9/32/23 11/31/26 121/22/18 122/21/17
f 43/169/135 92/20/16 140/25/21 136/164/130
f 7/193/3 93/174/140 139/159/125 134/194/25
f 44/173/139 70/12/12 138/33/27 135/160/126
f 6/178/14 69/170/136 137/163/129 131/179/6
f 69/170/136 43/169/135 136/164/130 137/163/129
f 93/174/140 44/173/139 135/160/126 139/159/125
f 70/12/12 8/11/11 132/34/5 138/33/27
f 5/205/4 7/206/3 134/207/25 133/208/22
f 92/20/16 5/19/4 133/26/22 140/25/21
f 8/16/11 6/15/14 131/6/6 132/5/5
