# Blender 4.5.3 LTS
# www.blender.org
mtllib arm_derecho.mtl
o Worker.004
v -0.234217 1.206392 -0.104704
v -0.200495 1.214686 -0.151900
v -0.261714 1.392005 0.008326
v -0.226245 1.365293 0.021161
v -0.247268 1.418560 -0.003914
v -0.217124 1.385572 0.017626
v -0.233101 1.434290 -0.012134
v -0.285944 1.275295 -0.015795
v -0.286233 1.251997 -0.021800
v -0.268633 1.363008 0.010642
v -0.232511 1.341592 0.012705
v -0.284341 1.296412 -0.006022
v -0.247423 1.296391 -0.003846
v -0.247671 1.469060 -0.082878
v -0.248654 1.449905 -0.036796
v -0.244362 1.416988 -0.140670
v -0.219916 1.331696 -0.161373
v -0.220102 1.436879 -0.147598
v -0.278167 1.440432 -0.075210
v -0.275768 1.433525 -0.029611
v -0.298001 1.419357 -0.072923
v -0.298766 1.409604 -0.024929
v -0.266461 1.404920 -0.128354
v -0.257392 1.267105 -0.075629
v -0.309097 1.402449 -0.074787
v -0.310048 1.386927 -0.025774
v -0.284940 1.392222 -0.121084
v -0.235024 1.318096 -0.126927
v -0.251197 1.283176 -0.047576
v -0.335684 1.341571 -0.086594
v -0.326398 1.315791 -0.039359
v -0.305602 1.342605 -0.122271
v -0.335829 1.315201 -0.090869
v -0.327173 1.294023 -0.045397
v -0.306781 1.318955 -0.129734
v -0.335260 1.285357 -0.098390
v -0.327918 1.267468 -0.049243
v -0.308590 1.288293 -0.136554
v -0.241756 1.258119 -0.135075
v -0.212987 1.291459 -0.079173
v -0.302489 1.365273 -0.121384
v -0.322882 1.338582 -0.030170
v -0.329438 1.365635 -0.081863
v -0.279356 1.318697 0.003424
v -0.235272 1.307332 -0.004483
v -0.241466 1.320993 -0.150742
v -0.284961 1.226879 -0.028108
v -0.337732 1.250756 -0.103986
v -0.331889 1.237933 -0.053803
v -0.310276 1.250435 -0.138280
v -0.244982 1.238336 -0.140722
v -0.284723 1.212029 -0.029425
v -0.338435 1.233093 -0.104252
v -0.332861 1.224025 -0.054672
v -0.312541 1.232752 -0.143359
v -0.234641 1.327000 0.003157
v -0.246761 1.222866 -0.144806
v -0.241105 1.222174 -0.110040
v -0.229461 1.404031 0.008663
v -0.238995 1.380940 0.015471
v -0.244703 1.353577 0.011103
v -0.255189 1.315883 0.000792
v -0.260794 1.291500 -0.007151
v -0.262635 1.270291 -0.016301
v -0.260039 1.246775 -0.022414
v -0.262511 1.225265 -0.030911
v -0.262697 1.210777 -0.035157
v -0.221932 1.352698 -0.160349
v -0.248912 1.267042 -0.130122
v -0.244414 1.340962 -0.149149
v -0.254103 1.317652 -0.144444
v -0.250101 1.309286 -0.144692
v -0.211819 1.293423 -0.164496
v -0.255665 1.261573 -0.065492
v -0.254476 1.266960 -0.037951
v -0.236161 1.281096 -0.148550
v -0.241146 1.288573 -0.026464
v -0.259470 1.239640 -0.051694
v -0.245830 1.246372 -0.117123
v -0.240856 1.311375 0.014503
v -0.274651 1.338179 0.010047
v -0.254352 1.261749 -0.094929
v -0.254713 1.240859 -0.081414
v -0.247868 1.296287 0.024937
v -0.250205 1.334508 0.006225
v -0.251539 1.221491 -0.075148
v -0.316915 1.362098 -0.025995
v -0.296471 1.379264 -0.121384
v -0.320534 1.382697 -0.077974
v -0.241477 1.322637 -0.149615
v -0.266740 1.227912 -0.152976
v -0.257847 1.346060 -0.141073
v -0.247619 1.358468 -0.146450
v -0.226668 1.369513 -0.157505
v -0.263979 1.242773 -0.149811
v -0.260742 1.269266 -0.147743
v -0.256544 1.292678 -0.145830
v -0.254827 1.309700 -0.142159
v -0.257237 1.333288 -0.140463
v -0.257443 1.339855 -0.143390
v -0.286305 1.214572 -0.037441
v -0.329634 1.231563 -0.103239
v -0.327597 1.224428 -0.058970
v -0.308859 1.231180 -0.136662
v -0.253018 1.224086 -0.139077
v -0.266047 1.213000 -0.041840
v -0.266709 1.227819 -0.146130
v -0.242470 0.889324 -0.136223
v -0.256854 0.888998 -0.107019
v -0.249460 0.989458 -0.088009
v -0.261508 1.446699 -0.050055
v -0.297619 1.338748 -0.013744
v -0.296750 1.377361 -0.108044
v -0.319242 1.358066 -0.051109
v -0.305788 1.139166 -0.058829
v -0.306181 1.154294 -0.144424
v -0.329541 1.153136 -0.091008
v -0.313844 1.088608 -0.063181
v -0.322168 1.107884 -0.143059
v -0.336584 1.114026 -0.104030
v -0.324454 0.852975 -0.040670
v -0.346997 0.853571 -0.081968
v -0.343088 0.857021 -0.056049
v -0.261249 1.352812 -0.126089
v -0.281983 1.152981 -0.147702
v -0.238323 1.319658 -0.014097
v -0.264972 1.134450 -0.085586
v -0.235438 1.313609 -0.068061
v -0.256409 1.144233 -0.113525
v -0.265623 1.103334 -0.097442
v -0.310328 0.856430 -0.062379
v -0.298456 1.106064 -0.145778
v -0.265603 1.108939 -0.127413
v -0.312220 0.855244 -0.085390
v -0.333554 0.851997 -0.099447
v -0.305747 0.810900 -0.007408
v -0.298011 0.824902 -0.020353
v -0.286171 0.749234 0.003286
v -0.273162 0.754385 0.000193
v -0.287836 0.748820 -0.005121
v -0.274558 0.754199 -0.008334
v -0.310214 0.790792 -0.022234
v -0.297329 0.806082 -0.034732
v -0.282893 0.780632 -0.008467
v -0.292717 0.778525 0.001083
v -0.288105 0.776960 -0.017238
v -0.298105 0.768359 -0.013692
v -0.339324 0.819716 -0.036385
v -0.334567 0.794307 -0.028274
v -0.302406 0.829093 -0.059391
v -0.343585 0.827276 -0.081963
v -0.337907 0.790972 -0.076298
v -0.330544 0.828762 -0.102838
v -0.315508 0.788860 -0.107076
v -0.306667 0.826514 -0.100638
v -0.300669 0.788931 -0.103824
v -0.309004 0.792548 -0.061624
v -0.309893 0.764658 -0.019592
v -0.324391 0.765720 -0.020086
v -0.329076 0.757303 -0.065574
v -0.316615 0.756002 -0.106537
v -0.303472 0.755953 -0.104063
v -0.301279 0.756923 -0.059669
v -0.294992 0.718167 -0.018336
v -0.311310 0.722276 -0.014038
v -0.295726 0.714080 -0.102465
v -0.285085 0.715136 -0.100939
v -0.298539 0.721579 -0.053597
v -0.285013 0.684303 -0.016966
v -0.291641 0.681418 -0.015757
v -0.288353 0.665958 -0.047345
v -0.289904 0.673890 -0.081202
v -0.283648 0.679298 -0.083167
v -0.279604 0.676785 -0.049535
v -0.316925 0.716211 -0.056369
vn -0.9871 0.1404 0.0769
vn -0.9943 0.0321 -0.1013
vn -0.4353 -0.0483 -0.8990
vn -0.4455 0.0032 -0.8953
vn -0.1159 -0.9803 -0.1599
vn -0.6352 0.5554 -0.5368
vn -0.7771 0.2262 -0.5873
vn -0.9853 0.0746 0.1539
vn -0.7614 0.4270 -0.4879
vn -0.6003 -0.1430 0.7868
vn 0.5173 0.0700 -0.8530
vn -0.1871 0.1768 -0.9663
vn -0.1778 0.2716 -0.9458
vn -0.1962 -0.3483 0.9166
vn 0.1739 -0.1832 0.9676
vn -0.0301 -0.2519 0.9673
vn -0.4090 -0.1309 0.9031
vn -0.0536 -0.4039 0.9132
vn -0.1548 0.2917 0.9439
vn 0.0167 -0.3524 0.9357
vn 0.0330 -0.1322 0.9907
vn -0.1609 0.0001 0.9870
vn -0.8071 0.1518 -0.5706
vn -0.9282 0.2951 0.2267
vn -0.4818 -0.0542 0.8746
vn -0.1668 0.4224 0.8909
vn -0.4436 0.8501 0.2837
vn -0.7027 0.5425 -0.4603
vn -0.2141 0.0738 -0.9740
vn -0.5201 0.1126 -0.8467
vn 0.0243 -0.3031 0.9526
vn -0.5773 0.2257 0.7847
vn -0.6558 -0.1795 0.7333
vn -0.9528 -0.2051 -0.2237
vn -0.9274 -0.2527 -0.2759
vn -0.8684 0.4834 0.1106
vn -0.6516 -0.2303 0.7228
vn 0.0711 -0.3316 0.9407
vn 0.0827 -0.3197 0.9439
vn -0.5043 0.0377 -0.8627
vn 0.4304 0.1484 -0.8904
vn -0.4697 0.0338 -0.8822
vn -0.6182 -0.7670 -0.1719
vn 0.5004 0.0342 0.8651
vn -0.2389 -0.9705 -0.0313
vn -0.6575 0.5660 -0.4972
vn -0.1277 -0.9552 -0.2669
vn -0.9875 -0.0282 0.1553
vn -0.7985 0.1057 -0.5927
vn -0.9834 -0.0198 0.1803
vn -0.7780 0.1630 -0.6067
vn -0.9911 0.0481 0.1240
vn -0.2857 0.6876 0.6675
vn -0.6402 -0.0338 0.7675
vn -0.6000 0.1428 0.7872
vn -0.3966 0.5425 0.7406
vn -0.3417 0.0576 -0.9380
vn -0.4840 0.1166 -0.8673
vn -0.7985 0.1550 -0.5817
vn -0.0990 -0.9607 -0.2594
vn -0.2439 0.2689 -0.9318
vn -0.4731 -0.0707 -0.8782
vn -0.6334 0.5716 -0.5215
vn -0.9180 0.3651 0.1548
vn -0.1783 -0.9784 -0.1050
vn -0.4404 -0.0033 -0.8978
vn -0.5602 0.7945 0.2345
vn -0.6211 -0.2035 -0.7568
vn -0.9649 0.1339 0.2260
vn -0.5395 -0.1385 0.8305
vn -0.7070 0.6940 0.1359
vn -0.1810 0.2677 -0.9464
vn -0.1120 -0.9895 -0.0909
vn -0.8505 -0.0707 0.5211
vn -0.9250 0.1076 -0.3644
vn -0.8346 0.0340 0.5497
vn -0.8808 0.2884 -0.3755
vn -0.7698 0.1165 0.6275
vn -0.9862 0.0256 -0.1633
vn -0.2744 0.1498 -0.9499
vn 0.1822 -0.3002 0.9363
vn 0.9764 -0.1735 0.1286
vn 0.8714 -0.0093 -0.4905
vn 0.5683 -0.2180 0.7934
vn 0.6659 0.0127 0.7459
vn 0.6600 -0.0977 -0.7449
vn -0.1237 0.0080 -0.9923
vn 0.9785 -0.1825 0.0965
vn 0.9811 -0.1867 -0.0502
vn 0.5188 -0.2269 -0.8242
vn -0.4827 -0.1262 -0.8667
vn 0.3358 0.7390 0.5841
vn 0.3930 0.2861 0.8739
vn 0.3648 -0.9305 -0.0330
vn -0.1056 -0.4827 -0.8694
vn -0.8325 -0.2244 0.5066
vn 0.8763 0.2743 -0.3960
vn 0.5620 0.3990 0.7245
vn -0.0290 -0.3956 -0.9180
vn -0.8983 -0.2263 0.3766
vn 0.9236 0.1685 -0.3444
vn -0.5328 -0.1268 0.8367
vn -0.9910 -0.0782 0.1087
vn -0.5565 0.3461 0.7554
vn 0.9751 0.2035 -0.0879
vn -0.8211 -0.0677 -0.5668
vn -0.8040 -0.2288 -0.5489
vn 0.3078 0.3658 -0.8784
vn 0.1456 0.1334 -0.9803
vn 0.9612 0.2544 -0.1069
vn 0.9987 -0.0117 0.0496
vn 0.9031 -0.3793 -0.2012
vn 0.9951 0.0731 0.0667
vn -0.8888 -0.1749 -0.4236
vn -0.9540 -0.2569 0.1543
vn 0.2005 -0.0164 -0.9796
vn -0.1446 0.1653 0.9756
vn 0.9843 0.1365 0.1114
vn 0.1661 -0.0069 -0.9861
vn -0.9593 -0.2580 0.1148
vn 0.9752 0.2150 0.0533
vn 0.1420 0.1239 0.9821
vn 0.9562 0.2767 0.0950
vn 0.9582 0.2688 0.0979
vn 0.9582 0.2687 0.0983
vn 0.1456 -0.4408 -0.8857
vn -0.9859 -0.1504 0.0733
vn 0.9385 0.3453 0.0049
vn 0.2369 0.0895 0.9674
vn 0.7028 -0.6919 -0.1653
vn 0.6679 -0.6673 0.3295
vn -0.8624 -0.3941 -0.3179
vn -0.8760 -0.4153 -0.2454
vn -0.8777 -0.4520 0.1592
vt 0.577700 0.921800
vt 0.572100 0.908000
vt 0.581100 0.910000
vt 0.585500 0.921000
vt 0.575300 0.897800
vt 0.585100 0.899100
vt 0.590400 0.909900
vt 0.553100 0.876500
vt 0.549600 0.877000
vt 0.541900 0.863400
vt 0.548700 0.865300
vt 0.539700 0.851300
vt 0.546900 0.853000
vt 0.486100 0.914600
vt 0.501000 0.915700
vt 0.501000 0.918400
vt 0.486400 0.916200
vt 0.499400 0.842800
vt 0.518600 0.839700
vt 0.518500 0.848400
vt 0.499400 0.851300
vt 0.503700 0.885500
vt 0.503000 0.877900
vt 0.518200 0.877900
vt 0.519300 0.886200
vt 0.487000 0.911400
vt 0.487800 0.903500
vt 0.503800 0.902000
vt 0.502400 0.911200
vt 0.502100 0.871500
vt 0.517400 0.872400
vt 0.469700 0.897900
vt 0.489500 0.895700
vt 0.469700 0.905100
vt 0.536800 0.914800
vt 0.544100 0.921400
vt 0.539600 0.927100
vt 0.533000 0.922700
vt 0.520600 0.894600
vt 0.540600 0.907000
vt 0.520200 0.904500
vt 0.543500 0.900000
vt 0.457800 0.871400
vt 0.449400 0.871700
vt 0.450000 0.864500
vt 0.458200 0.864200
vt 0.460600 0.913700
vt 0.469000 0.912100
vt 0.468600 0.915200
vt 0.460500 0.917400
vt 0.459900 0.898900
vt 0.459700 0.907000
vt 0.452900 0.854900
vt 0.461100 0.855600
vt 0.458900 0.891000
vt 0.469100 0.890800
vt 0.457200 0.847700
vt 0.465200 0.848300
vt 0.468000 0.881500
vt 0.458100 0.880000
vt 0.467800 0.873300
vt 0.468300 0.865900
vt 0.470700 0.858200
vt 0.503800 0.893300
vt 0.488800 0.880100
vt 0.487700 0.872800
vt 0.473700 0.850200
vt 0.573300 0.922000
vt 0.557900 0.899400
vt 0.501000 0.864100
vt 0.516400 0.865500
vt 0.517900 0.914700
vt 0.536200 0.862100
vt 0.517200 0.857200
vt 0.534200 0.851000
vt 0.486800 0.860100
vt 0.487200 0.866000
vt 0.490000 0.888400
vt 0.569500 0.880700
vt 0.579900 0.883900
vt 0.594300 0.898500
vt 0.592700 0.883900
vt 0.500100 0.858400
vt 0.447900 0.881000
vt 0.539800 0.872300
vt 0.537000 0.930700
vt 0.530700 0.926800
vt 0.553100 0.886600
vt 0.543900 0.886800
vt 0.542700 0.879700
vt 0.535600 0.932700
vt 0.530400 0.928600
vt 0.470000 0.916100
vt 0.460900 0.918700
vt 0.486400 0.852700
vt 0.475800 0.843600
vt 0.486300 0.844600
vt 0.517000 0.919400
vt 0.562700 0.855500
vt 0.564800 0.868700
vt 0.517000 0.920800
vt 0.197900 0.852200
vt 0.122700 0.840400
vt 0.120300 0.820300
vt 0.207700 0.828300
vt 0.189100 0.873400
vt 0.120500 0.864500
vt 0.106000 0.844400
vt 0.101300 0.823100
vt 0.101300 0.861100
vt 0.010100 0.829100
vt 0.011400 0.821200
vt 0.009600 0.840000
vt 0.183000 0.889400
vt 0.119500 0.875000
vt 0.119500 0.796400
vt 0.233400 0.784900
vt 0.124400 0.782400
vt 0.215300 0.750600
vt 0.126900 0.763700
vt 0.184100 0.746500
vt 0.108500 0.794400
vt 0.013200 0.814100
vt 0.109200 0.780600
vt 0.100700 0.767200
vt 0.100300 0.871800
vt 0.012700 0.808000
vt 0.011100 0.802300
vt 0.011200 0.853200
vt 0.515800 0.111700
vt 0.517600 0.087900
vt 0.530400 0.090000
vt 0.530500 0.114400
vt 0.526800 0.073600
vt 0.534600 0.053500
vt 0.541900 0.058500
vt 0.532100 0.076100
vt 0.413400 0.192000
vt 0.415500 0.188100
vt 0.422900 0.191200
vt 0.422300 0.195800
vt 0.421000 0.178000
vt 0.425300 0.158500
vt 0.440200 0.159200
vt 0.428500 0.179100
vt 0.518700 0.065300
vt 0.522200 0.062900
vt 0.432900 0.182300
vt 0.529000 0.054100
vt 0.444300 0.160000
vt 0.501800 0.093700
vt 0.506100 0.066000
vt 0.479500 0.111800
vt 0.499300 0.113300
vt 0.485200 0.123700
vt 0.452600 0.149900
vt 0.448500 0.146100
vt 0.474100 0.133300
vt 0.460800 0.120000
vt 0.447700 0.108100
vt 0.474400 0.088900
vt 0.452000 0.124700
vt 0.464500 0.124900
vt 0.454400 0.126300
vt 0.442200 0.115700
vt 0.452400 0.150100
vt 0.433100 0.139000
vt 0.411600 0.131700
vt 0.423700 0.101000
vt 0.428400 0.095100
vt 0.462800 0.057600
vt 0.499800 0.056500
vt 0.453500 0.034000
vt 0.501100 0.039100
vt 0.422000 0.162600
vt 0.408900 0.158000
vt 0.409600 0.154600
vt 0.406600 0.088200
vt 0.408600 0.085500
vt 0.384800 0.158600
vt 0.390200 0.129600
vt 0.391000 0.162300
vt 0.367400 0.124800
vt 0.380000 0.094400
vt 0.377600 0.091600
vt 0.369000 0.161000
vt 0.367300 0.163300
vt 0.361500 0.124300
vt 0.410000 0.046000
vt 0.444200 0.011800
vt 0.504100 0.016100
s 1
usemtl Tshirt
f 29/1/1 24/2/1 74/3/1 75/4/1
f 74/3/2 82/5/2 83/6/2 78/7/2
f 72/8/3 71/9/3 70/10/3 46/11/3
f 70/10/4 68/12/4 17/13/4 46/11/4
f 54/14/5 53/15/5 102/16/5 103/17/5
f 14/18/6 18/19/6 16/20/6 19/21/6
f 30/22/7 43/23/7 41/24/7 32/25/7
f 49/26/8 37/27/8 36/28/8 48/29/8
f 41/24/9 43/23/9 89/30/9 88/31/9
f 8/32/10 34/33/10 37/27/10 9/34/10
f 96/35/11 39/36/11 51/37/11 95/38/11
f 35/39/12 97/40/12 96/35/12 38/41/12
f 98/42/13 97/40/13 35/39/13 32/25/13
f 85/43/14 56/44/14 11/45/14 61/46/14
f 66/47/15 47/48/15 52/49/15 67/50/15
f 64/51/16 8/32/16 9/34/16 65/52/16
f 4/53/17 60/54/17 61/46/17 11/45/17
f 8/32/18 64/51/18 63/55/18 12/56/18
f 60/54/19 4/53/19 6/57/19 59/58/19
f 44/59/20 12/56/20 63/55/20 62/60/20
f 81/61/21 85/43/21 61/46/21 10/62/21
f 60/54/22 3/63/22 10/62/22 61/46/22
f 35/39/23 38/41/23 36/28/23 33/64/23
f 89/30/24 43/23/24 42/65/24 87/66/24
f 47/48/25 49/26/25 54/14/25 52/49/25
f 3/63/26 60/54/26 59/58/26 5/67/26
f 24/2/27 29/1/27 40/68/27 28/69/27
f 88/31/28 89/30/28 25/70/28 27/71/28
f 96/35/29 95/38/29 50/72/29 38/41/29
f 93/73/30 23/74/30 16/20/30 94/75/30
f 9/34/31 47/48/31 66/47/31 65/52/31
f 3/63/32 22/76/32 26/77/32 10/62/32
f 12/56/33 44/59/33 42/65/33 31/78/33
f 82/5/34 69/79/34 79/80/34 83/6/34
f 86/81/35 83/6/35 79/80/35 58/82/35
f 22/76/36 21/83/36 25/70/36 26/77/36
f 8/32/37 12/56/37 31/78/37 34/33/37
f 62/60/38 45/84/38 56/44/38 85/43/38
f 44/59/39 62/60/39 85/43/39 81/61/39
f 71/9/40 92/85/40 93/73/40 70/10/40
f 57/86/41 91/87/41 95/38/41 51/37/41
f 70/10/42 93/73/42 94/75/42 68/12/42
f 90/88/43 28/69/43 99/89/43 100/90/43
f 71/9/44 90/88/44 100/90/44 92/85/44
f 91/87/45 57/86/45 105/91/45 107/92/45
f 27/71/46 25/70/46 21/83/46 23/74/46
f 67/50/47 52/49/47 101/93/47 106/94/47
f 34/33/48 33/64/48 36/28/48 37/27/48
f 48/29/49 36/28/49 38/41/49 50/72/49
f 31/78/50 30/22/50 33/64/50 34/33/50
f 35/39/51 33/64/51 30/22/51 32/25/51
f 54/14/52 49/26/52 48/29/52 53/15/52
f 20/95/53 5/67/53 7/96/53 15/97/53
f 44/59/54 81/61/54 87/66/54 42/65/54
f 81/61/55 10/62/55 26/77/55 87/66/55
f 22/76/56 3/63/56 5/67/56 20/95/56
f 98/42/57 32/25/57 41/24/57 99/89/57
f 27/71/58 23/74/58 93/73/58 92/85/58
f 55/98/59 53/15/59 48/29/59 50/72/59
f 52/49/60 54/14/60 103/17/60 101/93/60
f 92/85/61 100/90/61 88/31/61 27/71/61
f 17/13/62 73/99/62 76/100/62 46/11/62
f 23/74/63 21/83/63 19/21/63 16/20/63
f 26/77/64 25/70/64 89/30/64 87/66/64
f 53/15/65 55/98/65 104/101/65 102/16/65
f 99/89/66 41/24/66 88/31/66 100/90/66
f 15/97/67 14/18/67 19/21/67 20/95/67
f 46/11/68 76/100/68 69/79/68 72/8/68
f 31/78/69 42/65/69 43/23/69 30/22/69
f 9/34/70 37/27/70 49/26/70 47/48/70
f 20/95/71 19/21/71 21/83/71 22/76/71
f 91/87/72 55/98/72 50/72/72 95/38/72
f 91/87/73 107/92/73 104/101/73 55/98/73
usemtl Skin
f 114/102/74 117/103/74 115/104/74 112/105/74
f 113/106/75 116/107/75 117/103/75 114/102/75
f 117/103/76 120/108/76 118/109/76 115/104/76
f 116/107/77 119/110/77 120/108/77 117/103/77
f 120/108/78 123/111/78 121/112/78 118/109/78
f 119/110/79 122/113/79 123/111/79 120/108/79
f 116/107/80 113/106/80 124/114/80 125/115/80
f 112/105/81 115/104/81 127/116/81 126/117/81
f 126/117/82 127/116/82 129/118/82 128/119/82
f 128/119/83 129/118/83 125/120/83 124/121/83
f 115/104/84 118/109/84 130/122/84 127/116/84
f 118/109/85 121/112/85 131/123/85 130/122/85
f 129/118/86 133/124/86 132/125/86 125/120/86
f 119/110/87 116/107/87 125/115/87 132/126/87
f 130/122/88 133/124/88 129/118/88 127/116/88
f 130/122/89 131/123/89 134/127/89 133/124/89
f 132/125/90 133/124/90 134/127/90 135/128/90
f 122/113/91 119/110/91 132/126/91 135/129/91
f 121/130/92 136/131/92 137/132/92 131/133/92
f 145/134/93 138/135/93 139/136/93 144/137/93
f 138/138/94 140/139/94 141/140/94 139/141/94
f 147/142/95 142/143/95 143/144/95 146/145/95
f 145/134/96 136/131/96 142/146/96 147/147/96
f 144/148/97 139/141/97 141/140/97 146/145/97
f 136/131/98 145/134/98 144/137/98 137/132/98
f 140/139/99 147/142/99 146/145/99 141/140/99
f 138/135/100 145/134/100 147/147/100 140/149/100
f 137/150/101 144/148/101 146/145/101 143/144/101
f 136/131/102 148/151/102 149/152/102 142/146/102
f 151/153/103 148/151/103 123/154/103 122/155/103
f 121/130/104 123/154/104 148/151/104 136/131/104
f 131/156/105 137/150/105 143/144/105 150/157/105
f 122/155/106 135/158/106 153/159/106 151/153/106
f 153/159/107 154/160/107 152/161/107 151/153/107
f 155/162/108 153/159/108 135/163/108 134/164/108
f 155/162/109 156/165/109 154/160/109 153/159/109
f 150/157/110 155/162/110 134/164/110 131/166/110
f 150/157/111 157/167/111 156/165/111 155/162/111
f 157/167/112 150/157/112 143/144/112 142/143/112
f 157/167/113 163/168/113 162/169/113 156/165/113
f 154/160/114 161/170/114 160/171/114 152/161/114
f 159/172/115 160/171/115 175/173/115 165/174/115
f 156/165/116 162/169/116 161/170/116 154/160/116
f 149/175/117 159/176/117 158/177/117 142/143/117
f 142/143/118 158/177/118 163/168/118 157/167/118
f 162/169/119 167/178/119 166/179/119 161/170/119
f 152/161/120 160/171/120 159/172/120 149/152/120
f 158/177/121 164/180/121 168/181/121 163/168/121
f 159/176/122 165/182/122 164/180/122 158/177/122
f 163/168/123 168/181/124 167/178/124 162/169/123
f 168/181/124 174/183/125 173/184/125 167/178/124
f 167/178/126 173/184/126 172/185/126 166/179/126
f 151/153/127 152/161/127 149/152/127 148/151/127
f 164/180/128 169/186/128 174/183/128 168/181/128
f 165/182/129 170/187/129 169/186/129 164/180/129
f 171/188/130 172/185/130 173/184/130 174/183/130
f 169/186/131 170/187/131 171/188/131 174/183/131
f 160/171/132 161/170/132 166/179/132 175/173/132
f 175/173/133 166/179/133 172/189/133 171/190/133
f 165/174/134 175/173/134 171/190/134 170/191/134
l 80 84
l 13 77
l 108 109
l 1 58
l 109 110
l 40 77
