# Blender 4.5.3 LTS
# www.blender.org
mtllib arm_izquierdo.mtl
o Worker.003
v 0.082054 1.196466 -0.048688
v 0.077979 1.206466 -0.063597
v 0.082643 1.212969 -0.042576
v 0.082778 1.404073 0.003177
v 0.069427 1.425830 -0.009325
v 0.055063 1.439295 -0.017580
v 0.099851 1.285646 0.008760
v 0.098568 1.262648 0.011842
v 0.087100 1.379172 0.009118
v 0.099758 1.309752 0.008368
v 0.069282 1.465344 -0.089399
v 0.074060 1.458539 -0.041507
v 0.073657 1.418447 -0.145809
v 0.104028 1.444817 -0.081087
v 0.097183 1.440525 -0.033480
v 0.125455 1.421167 -0.074641
v 0.121205 1.416554 -0.023445
v 0.098703 1.403276 -0.131477
v 0.080513 1.275916 -0.077145
v 0.135693 1.402356 -0.070203
v 0.129643 1.394756 -0.020002
v 0.117141 1.384787 -0.119212
v 0.160646 1.331353 -0.069299
v 0.145021 1.318284 -0.016643
v 0.135714 1.325667 -0.110071
v 0.160677 1.304282 -0.069227
v 0.145362 1.296164 -0.017958
v 0.135807 1.299184 -0.107575
v 0.161339 1.273837 -0.068971
v 0.148495 1.270683 -0.019087
v 0.133356 1.267757 -0.106313
v 0.079303 1.284302 -0.043037
v 0.134586 1.351943 -0.115396
v 0.143759 1.343866 -0.013968
v 0.155341 1.359306 -0.068943
v 0.094608 1.334653 0.011092
v 0.099365 1.239701 0.012827
v 0.161463 1.246175 -0.068491
v 0.153056 1.246971 -0.022476
v 0.130636 1.232949 -0.107568
v 0.099230 1.226568 0.012364
v 0.160056 1.230446 -0.067518
v 0.154493 1.233766 -0.024948
v 0.130946 1.219433 -0.106043
v 0.070389 1.220023 -0.107092
v 0.041269 1.426419 -0.000809
v 0.051103 1.412252 0.004768
v 0.059541 1.392791 0.012494
v 0.063750 1.370805 0.012443
v 0.071185 1.331582 0.007639
v 0.076894 1.305606 0.005210
v 0.070265 1.266267 -0.119202
v 0.069479 1.337662 -0.154061
v 0.079489 1.319441 -0.142169
v 0.073357 1.302917 -0.138074
v 0.076366 1.292906 -0.014751
v 0.085497 1.261056 -0.017845
v 0.075001 1.293279 -0.012814
v 0.082757 1.232214 -0.040556
v 0.079479 1.223569 -0.059107
v 0.080647 1.256795 -0.040609
v 0.077659 1.246847 -0.060993
v 0.070565 1.242245 -0.111963
v 0.079551 1.281375 -0.015032
v 0.085208 1.236806 -0.021307
v 0.091599 1.356380 0.014146
v 0.067969 1.352098 0.010622
v 0.138640 1.370825 -0.013103
v 0.127234 1.369223 -0.116492
v 0.148102 1.381540 -0.069198
v 0.082798 1.208099 -0.111363
v 0.083812 1.335749 -0.139481
v 0.071423 1.354477 -0.150897
v 0.049004 1.368965 -0.163472
v 0.082209 1.218275 -0.113752
v 0.078310 1.245316 -0.117092
v 0.075684 1.273133 -0.119367
v 0.075570 1.291448 -0.121446
v 0.081030 1.313908 -0.126441
v 0.084143 1.321582 -0.137133
v 0.151235 1.226124 -0.066883
v 0.146747 1.229722 -0.029237
v 0.125683 1.216837 -0.099198
v 0.084887 1.206827 -0.105795
v 0.115642 1.350548 -0.004375
v 0.122570 1.368344 -0.105760
v 0.140801 1.359689 -0.043233
v 0.117730 1.143074 0.007207
v 0.124276 1.139807 -0.077965
v 0.143862 1.149672 -0.024525
v 0.127224 1.087047 0.012256
v 0.139436 1.098215 -0.068090
v 0.151442 1.109125 -0.029562
v 0.139736 0.855557 0.058548
v 0.170015 0.853088 0.020657
v 0.161514 0.859393 0.046336
v 0.087638 1.341923 -0.123183
v 0.100388 1.138141 -0.082899
v 0.056398 1.331912 -0.006043
v 0.078848 1.134129 -0.021386
v 0.058145 1.312482 -0.061378
v 0.072716 1.137697 -0.051466
v 0.080430 1.098060 -0.026252
v 0.129860 0.855572 0.034568
v 0.116097 1.095505 -0.072266
v 0.082074 1.099611 -0.056287
v 0.136034 0.851885 0.011855
v 0.159043 0.848731 0.001517
v 0.115673 0.815360 0.090865
v 0.110244 0.827062 0.074831
v 0.098692 0.753511 0.104517
v 0.086459 0.756966 0.097909
v 0.102333 0.752380 0.096831
v 0.089851 0.756021 0.090019
v 0.125011 0.794351 0.080114
v 0.114401 0.806855 0.063173
v 0.096014 0.782998 0.088450
v 0.103398 0.782915 0.100174
v 0.103418 0.778963 0.081637
v 0.112891 0.771840 0.088433
v 0.154452 0.824352 0.069426
v 0.149798 0.799653 0.079403
v 0.123511 0.827523 0.037618
v 0.168898 0.827400 0.025180
v 0.164720 0.791608 0.034226
v 0.160801 0.825350 0.001794
v 0.150532 0.784005 -0.000332
v 0.137678 0.821042 -0.000897
v 0.135383 0.782920 -0.000591
v 0.133118 0.791802 0.041594
v 0.125983 0.768744 0.085896
v 0.140067 0.771211 0.088587
v 0.156075 0.758543 0.046818
v 0.153883 0.751668 0.004596
v 0.140574 0.750555 0.003988
v 0.127782 0.755987 0.046221
v 0.114670 0.721381 0.089585
v 0.129137 0.727547 0.096941
v 0.135755 0.708518 0.009057
v 0.125010 0.708650 0.007965
v 0.126262 0.721386 0.055925
v 0.107162 0.687023 0.092911
v 0.113501 0.684965 0.095957
v 0.118992 0.666000 0.066671
v 0.127989 0.670415 0.033336
v 0.122012 0.674934 0.029328
v 0.110243 0.675596 0.061187
v 0.145124 0.717641 0.058127
vn 0.8685 0.4516 0.2045
vn 0.7953 -0.0255 -0.6056
vn 0.9731 0.0764 0.2175
vn 0.8219 -0.0377 -0.5684
vn 0.5086 0.0540 0.8593
vn 0.9877 -0.0071 0.1561
vn 0.4183 0.3362 0.8438
vn 0.4761 0.0087 0.8794
vn 0.2153 -0.0576 -0.9749
vn 0.5295 0.8413 0.1092
vn 0.9787 0.0726 -0.1922
vn 0.8009 -0.0807 -0.5934
vn 0.4238 -0.8963 0.1304
vn 0.4971 -0.0127 0.8676
vn 0.4615 0.0106 -0.8871
vn 0.5838 -0.0326 -0.8112
vn 0.7780 0.4348 -0.4534
vn 0.7888 0.3958 -0.4702
vn 0.6912 0.7087 0.1415
vn 0.9577 0.1022 0.2692
vn 0.3083 0.6112 0.7289
vn 0.5208 -0.2907 -0.8026
vn 0.5366 0.0181 0.8437
vn 0.8477 0.2980 -0.4389
vn 0.1579 -0.1551 -0.9752
vn 0.3233 -0.2235 -0.9195
vn 0.9584 -0.0000 0.2853
vn 0.8804 0.0613 -0.4703
vn 0.8475 -0.0235 -0.5303
vn 0.5593 -0.0644 0.8264
vn 0.4701 0.2956 0.8317
vn 0.1721 -0.0299 -0.9846
vn 0.9436 0.2342 0.2339
vn 0.2479 0.6614 0.7079
vn -0.1211 -0.1256 0.9847
vn -0.0236 0.0721 0.9971
vn 0.1963 0.1573 0.9678
vn 0.9598 0.0609 0.2740
vn 0.1731 0.5062 0.8449
vn 0.2438 0.5963 0.7648
vn 0.5160 0.0500 -0.8551
vn 0.2352 -0.0977 -0.9670
vn 0.2559 -0.9396 -0.2273
vn 0.6741 0.5334 -0.5110
vn 0.9822 0.0493 -0.1811
vn 0.4144 -0.9081 -0.0596
vn -0.1207 -0.1578 0.9801
vn 0.9811 -0.0089 -0.1935
vn 0.7124 -0.0108 -0.7017
vn 0.8884 0.4363 0.1428
vn 0.4732 -0.0340 0.8803
vn 0.8022 0.0530 0.5947
vn 0.9506 -0.0225 -0.3097
vn 0.7908 0.1399 0.5959
vn 0.9036 0.2288 -0.3621
vn 0.6934 0.2077 0.6899
vn 0.9958 0.0585 -0.0700
vn 0.4055 -0.1289 -0.9049
vn -0.2878 -0.0263 0.9573
vn -0.9926 -0.0996 0.0695
vn -0.8256 -0.1323 -0.5486
vn -0.6161 -0.0725 0.7844
vn -0.7345 0.0568 0.6762
vn -0.6003 -0.2413 -0.7625
vn 0.2013 -0.1615 -0.9661
vn -0.9863 -0.1534 0.0606
vn -0.9621 -0.2379 -0.1330
vn -0.4300 -0.3259 -0.8420
vn 0.5779 -0.1769 -0.7967
vn -0.5035 0.7580 0.4146
vn -0.6101 0.3356 0.7177
vn -0.2774 -0.9608 0.0028
vn 0.3451 -0.5589 -0.7541
vn 0.7015 -0.0844 0.7077
vn -0.7746 0.1411 -0.6165
vn -0.7464 0.4146 0.5206
vn 0.2762 -0.4854 -0.8295
vn 0.7967 -0.0932 0.5972
vn -0.8245 0.0371 -0.5647
vn 0.3255 0.0173 0.9454
vn 0.9502 0.0135 0.3112
vn 0.3577 0.4533 0.8165
vn -0.9374 0.1020 -0.3329
vn 0.9137 -0.0277 -0.4055
vn 0.9249 -0.2021 -0.3220
vn -0.1650 0.2113 -0.9634
vn 0.0753 0.0109 -0.9971
vn -0.9344 0.1293 -0.3319
vn -0.9780 -0.1072 -0.1787
vn -0.7987 -0.4877 -0.3525
vn -0.9849 -0.0211 -0.1721
vn 0.9746 -0.1281 -0.1838
vn 0.9058 -0.1415 0.3993
vn 0.0410 -0.1400 -0.9893
vn -0.1048 0.2811 0.9539
vn -0.9897 0.0475 -0.1347
vn 0.0751 -0.1279 -0.9889
vn 0.9204 -0.1467 0.3624
vn -0.9727 0.1199 -0.1985
vn -0.3808 0.2121 0.9000
vn -0.9689 0.1874 -0.1617
vn -0.9710 0.1797 -0.1579
vn -0.9710 0.1796 -0.1579
vn -0.9710 0.1793 -0.1580
vn 0.1025 -0.5444 -0.8325
vn 0.9487 -0.0398 0.3138
vn -0.9353 0.2474 -0.2531
vn -0.4671 0.1669 0.8683
vn -0.5907 -0.7727 -0.2326
vn -0.6764 -0.6927 0.2500
vn 0.9398 -0.3364 -0.0601
vn 0.9373 -0.3483 0.0157
vn 0.8451 -0.3416 0.4113
vt 0.501200 0.738400
vt 0.500000 0.745600
vt 0.485900 0.743300
vt 0.486100 0.736500
vt 0.504700 0.699700
vt 0.523100 0.695700
vt 0.522700 0.705400
vt 0.505000 0.707000
vt 0.489500 0.699200
vt 0.489000 0.705700
vt 0.521700 0.714800
vt 0.504700 0.715500
vt 0.468800 0.710200
vt 0.468800 0.702900
vt 0.488900 0.713300
vt 0.489600 0.695600
vt 0.504300 0.695500
vt 0.468400 0.743000
vt 0.467700 0.735600
vt 0.467200 0.727500
vt 0.487200 0.728900
vt 0.542700 0.694600
vt 0.547200 0.703000
vt 0.485400 0.757000
vt 0.498900 0.758800
vt 0.499100 0.767500
vt 0.485800 0.764700
vt 0.595400 0.693900
vt 0.602500 0.696600
vt 0.600700 0.704700
vt 0.592400 0.703100
vt 0.522500 0.692800
vt 0.489000 0.692700
vt 0.504800 0.692500
vt 0.488400 0.720500
vt 0.468500 0.717700
vt 0.542200 0.737900
vt 0.516300 0.743400
vt 0.517400 0.737200
vt 0.546100 0.728900
vt 0.516900 0.752200
vt 0.537800 0.749000
vt 0.499500 0.751400
vt 0.485800 0.748700
vt 0.503500 0.723200
vt 0.502500 0.731600
vt 0.473400 0.758800
vt 0.470900 0.750500
vt 0.518500 0.731300
vt 0.548900 0.721400
vt 0.469400 0.697000
vt 0.537200 0.685300
vt 0.538400 0.687600
vt 0.520400 0.723100
vt 0.549900 0.709900
vt 0.469800 0.694500
vt 0.475100 0.765600
vt 0.457300 0.728800
vt 0.458500 0.717400
vt 0.458600 0.745100
vt 0.457700 0.737800
vt 0.461000 0.753400
vt 0.465000 0.760800
vt 0.467600 0.766600
vt 0.518200 0.761400
vt 0.535300 0.760300
vt 0.536300 0.684500
vt 0.522100 0.691200
vt 0.398400 0.707100
vt 0.394900 0.699400
vt 0.402300 0.699200
vt 0.407300 0.706600
vt 0.606700 0.707300
vt 0.607900 0.699000
vt 0.548800 0.736100
vt 0.543600 0.747400
vt 0.563400 0.852300
vt 0.553700 0.828500
vt 0.641000 0.820400
vt 0.638600 0.840400
vt 0.572200 0.873400
vt 0.640800 0.864500
vt 0.660000 0.823100
vt 0.655300 0.844400
vt 0.660000 0.861100
vt 0.749900 0.821200
vt 0.751200 0.829100
vt 0.751700 0.840000
vt 0.641800 0.875000
vt 0.578300 0.889400
vt 0.528000 0.785100
vt 0.641800 0.796400
vt 0.546100 0.750800
vt 0.636900 0.782400
vt 0.577200 0.746500
vt 0.634400 0.763700
vt 0.652800 0.794400
vt 0.748100 0.814100
vt 0.660600 0.767200
vt 0.652100 0.780600
vt 0.661000 0.871800
vt 0.748600 0.808000
vt 0.750200 0.802300
vt 0.750100 0.853200
vt 0.608100 0.111700
vt 0.593400 0.114400
vt 0.593500 0.090000
vt 0.606300 0.087900
vt 0.597100 0.073600
vt 0.591900 0.076100
vt 0.582000 0.058500
vt 0.589300 0.053500
vt 0.710600 0.192000
vt 0.701600 0.195800
vt 0.701000 0.191200
vt 0.708400 0.188100
vt 0.702900 0.178000
vt 0.695400 0.179100
vt 0.683700 0.159200
vt 0.698600 0.158500
vt 0.601800 0.062900
vt 0.605300 0.065300
vt 0.691000 0.182300
vt 0.594900 0.054100
vt 0.679600 0.160000
vt 0.617900 0.066000
vt 0.622100 0.093700
vt 0.644400 0.111800
vt 0.638800 0.123700
vt 0.624600 0.113300
vt 0.671300 0.149900
vt 0.675500 0.146100
vt 0.663200 0.120000
vt 0.649900 0.133300
vt 0.649500 0.088900
vt 0.676200 0.108100
vt 0.671900 0.124700
vt 0.669600 0.126300
vt 0.659400 0.124900
vt 0.681700 0.115700
vt 0.671500 0.150100
vt 0.690800 0.139000
vt 0.700200 0.101000
vt 0.712300 0.131700
vt 0.661100 0.057600
vt 0.695500 0.095100
vt 0.624100 0.056500
vt 0.622800 0.039100
vt 0.670400 0.034000
vt 0.701900 0.162600
vt 0.714300 0.154600
vt 0.715000 0.158000
vt 0.715400 0.085500
vt 0.717400 0.088200
vt 0.733700 0.129600
vt 0.739100 0.158600
vt 0.732900 0.162300
vt 0.744000 0.094400
vt 0.756600 0.124800
vt 0.746400 0.091600
vt 0.754900 0.161000
vt 0.756600 0.163300
vt 0.762400 0.124300
vt 0.679700 0.011800
vt 0.713900 0.046000
vt 0.619800 0.016100
s 1
usemtl Tshirt
f 70/1/1 20/2/1 21/3/1 68/4/1
f 38/5/2 40/6/2 31/7/2 29/8/2
f 39/9/3 38/5/3 29/8/3 30/10/3
f 31/7/4 28/11/4 26/12/4 29/8/4
f 7/13/5 8/14/5 30/10/5 27/15/5
f 43/16/6 42/17/6 38/5/6 39/9/6
f 21/3/7 9/18/7 66/19/7 68/4/7
f 68/4/8 66/19/8 36/20/8 34/21/8
f 76/22/9 77/23/9 28/11/9 31/7/9
f 15/24/10 14/25/10 11/26/10 12/27/10
f 61/28/11 59/29/11 60/30/11 62/31/11
f 44/32/12 40/6/12 38/5/12 42/17/12
f 43/16/13 82/33/13 81/34/13 42/17/13
f 24/35/14 10/36/14 7/13/14 27/15/14
f 72/37/15 22/38/15 69/39/15 80/40/15
f 18/41/16 22/38/16 72/37/16 73/42/16
f 69/39/17 22/38/17 20/2/17 70/1/17
f 22/38/18 18/41/18 16/43/18 20/2/18
f 16/43/19 14/25/19 15/24/19 17/44/19
f 24/35/20 23/45/20 35/46/20 34/21/20
f 15/24/21 5/47/21 4/48/21 17/44/21
f 80/40/22 69/39/22 33/49/22 79/50/22
f 8/14/23 37/51/23 39/9/23 30/10/23
f 33/49/24 69/39/24 70/1/24 35/46/24
f 40/6/25 44/32/25 71/52/25 75/53/25
f 79/50/26 33/49/26 25/54/26 78/55/26
f 26/12/27 23/45/27 24/35/27 27/15/27
f 23/45/28 25/54/28 33/49/28 35/46/28
f 28/11/29 25/54/29 23/45/29 26/12/29
f 37/51/30 41/56/30 43/16/30 39/9/30
f 4/48/31 9/18/31 21/3/31 17/44/31
f 40/6/32 75/53/32 76/22/32 31/7/32
f 34/21/33 35/46/33 70/1/33 68/4/33
f 12/27/34 6/57/34 5/47/34 15/24/34
f 36/20/35 50/58/35 51/59/35 10/36/35
f 66/19/36 9/18/36 49/60/36 67/61/36
f 48/62/37 49/60/37 9/18/37 4/48/37
f 29/8/38 26/12/38 27/15/38 30/10/38
f 4/48/39 5/47/39 47/63/39 48/62/39
f 5/47/40 6/57/40 46/64/40 47/63/40
f 13/65/41 18/41/41 73/42/41 74/66/41
f 77/23/42 78/55/42 25/54/42 28/11/42
f 84/67/43 71/52/43 44/32/43 83/68/43
f 18/41/44 13/65/44 14/25/44 16/43/44
f 65/69/45 59/70/45 61/71/45 57/72/45
f 42/17/46 81/34/46 83/68/46 44/32/46
f 36/20/47 66/19/47 67/61/47 50/58/47
f 2/73/48 60/30/48 59/29/48 3/74/48
f 54/75/49 53/76/49 73/42/49 72/37/49
f 20/2/50 16/43/50 17/44/50 21/3/50
f 36/20/51 10/36/51 24/35/51 34/21/51
usemtl Skin
f 87/77/52 85/78/52 88/79/52 90/80/52
f 86/81/53 87/77/53 90/80/53 89/82/53
f 90/80/54 88/79/54 91/83/54 93/84/54
f 89/82/55 90/80/55 93/84/55 92/85/55
f 93/84/56 91/83/56 94/86/56 96/87/56
f 92/85/57 93/84/57 96/87/57 95/88/57
f 89/82/58 98/89/58 97/90/58 86/81/58
f 85/78/59 99/91/59 100/92/59 88/79/59
f 99/91/60 101/93/60 102/94/60 100/92/60
f 101/93/61 97/95/61 98/96/61 102/94/61
f 88/79/62 100/92/62 103/97/62 91/83/62
f 91/83/63 103/97/63 104/98/63 94/86/63
f 102/94/64 98/96/64 105/99/64 106/100/64
f 92/85/65 105/101/65 98/89/65 89/82/65
f 103/97/66 100/92/66 102/94/66 106/100/66
f 103/97/67 106/100/67 107/102/67 104/98/67
f 105/99/68 108/103/68 107/102/68 106/100/68
f 95/88/69 108/104/69 105/101/69 92/85/69
f 94/105/70 104/106/70 110/107/70 109/108/70
f 118/109/71 117/110/71 112/111/71 111/112/71
f 111/113/72 112/114/72 114/115/72 113/116/72
f 120/117/73 119/118/73 116/119/73 115/120/73
f 118/109/74 120/121/74 115/122/74 109/108/74
f 117/123/75 119/118/75 114/115/75 112/114/75
f 109/108/76 110/107/76 117/110/76 118/109/76
f 113/116/77 114/115/77 119/118/77 120/117/77
f 111/112/78 113/124/78 120/121/78 118/109/78
f 110/125/79 116/119/79 119/118/79 117/123/79
f 109/108/80 115/122/80 122/126/80 121/127/80
f 124/128/81 95/129/81 96/130/81 121/127/81
f 94/105/82 109/108/82 121/127/82 96/130/82
f 104/131/83 123/132/83 116/119/83 110/125/83
f 95/129/84 124/128/84 126/133/84 108/134/84
f 126/133/85 124/128/85 125/135/85 127/136/85
f 128/137/86 107/138/86 108/139/86 126/133/86
f 128/137/87 126/133/87 127/136/87 129/140/87
f 123/132/88 104/141/88 107/138/88 128/137/88
f 123/132/89 128/137/89 129/140/89 130/142/89
f 130/142/90 115/120/90 116/119/90 123/132/90
f 130/142/91 129/140/91 135/143/91 136/144/91
f 127/136/92 125/135/92 133/145/92 134/146/92
f 132/147/93 138/148/93 148/149/93 133/145/93
f 129/140/94 127/136/94 134/146/94 135/143/94
f 122/150/95 115/120/95 131/151/95 132/152/95
f 115/120/96 130/142/96 136/144/96 131/151/96
f 135/143/97 134/146/97 139/153/97 140/154/97
f 125/135/98 122/126/98 132/147/98 133/145/98
f 131/151/99 136/144/99 141/155/99 137/156/99
f 132/152/100 131/151/100 137/156/100 138/157/100
f 136/144/101 135/143/101 140/154/102 141/155/103
f 141/155/103 140/154/102 146/158/104 147/159/104
f 140/154/105 139/153/105 145/160/105 146/158/105
f 124/128/106 121/127/106 122/126/106 125/135/106
f 137/156/107 141/155/107 147/159/107 142/161/107
f 138/157/108 137/156/108 142/161/108 143/162/108
f 144/163/109 147/159/109 146/158/109 145/160/109
f 142/161/110 147/159/110 144/163/110 143/162/110
f 133/145/111 148/149/111 139/153/111 134/146/111
f 148/149/112 144/164/112 145/165/112 139/153/112
f 138/148/113 143/166/113 144/164/113 148/149/113
l 52 63
l 52 55
l 57 64
l 45 63
l 54 55
l 1 3
l 56 64
l 56 58
l 32 58
