# Blender 4.5.3 LTS
# www.blender.org
mtllib pie_derecho.mtl
o Worker.002
v -0.181340 0.070613 -0.152707
v -0.178430 0.021088 -0.136854
v -0.210361 0.028504 -0.057001
v -0.151948 0.064542 0.038931
v -0.145627 0.078916 -0.166326
v -0.216431 0.066662 -0.071907
v -0.218313 0.063219 -0.021933
v -0.172350 0.065556 0.032683
v -0.135208 0.062950 0.034677
v -0.195773 0.066817 0.015293
v -0.210371 0.061171 0.007028
v -0.147312 0.036195 0.050268
v -0.212625 0.027635 -0.011626
v -0.166564 0.042809 0.048028
v -0.129569 0.033068 0.040846
v -0.189644 0.033292 0.041523
v -0.120041 0.031820 0.032569
v -0.210361 0.027614 0.020068
v -0.099727 0.015714 -0.011684
v -0.115521 0.023271 0.022681
v -0.155942 0.020500 -0.148074
v -0.106292 0.011914 -0.129233
v -0.097562 0.014144 -0.096886
v -0.123650 0.013403 -0.155809
v -0.100313 0.019041 -0.048602
v -0.209244 0.028276 -0.102625
v -0.107004 0.066549 0.014227
v -0.107711 0.021565 0.014321
v -0.206803 0.278634 -0.143265
v -0.186698 0.163817 -0.148353
v -0.242470 0.889324 -0.136223
v -0.217992 0.629010 -0.112459
v -0.225334 0.784721 -0.145861
v -0.240267 0.852335 -0.139625
v -0.233070 0.818778 -0.145034
v -0.230091 0.532610 -0.117433
v -0.217155 0.713650 -0.128095
v -0.231508 0.471091 -0.135158
v -0.221498 0.393698 -0.139801
v -0.197341 0.887795 -0.169490
v -0.170964 0.886465 -0.178839
v -0.145213 0.889380 -0.179625
v -0.124687 0.891761 -0.175922
v -0.256854 0.888998 -0.107019
v -0.222015 0.888385 -0.155995
v -0.187600 0.846707 -0.169863
v -0.156865 0.845413 -0.174433
v -0.133008 0.851741 -0.172520
v -0.113755 0.858413 -0.166750
v -0.258043 0.852633 -0.111694
v -0.173979 0.811503 -0.169956
v -0.133849 0.810102 -0.161197
v -0.116276 0.826488 -0.154847
v -0.105777 0.835836 -0.149491
v -0.215686 0.849777 -0.156812
v -0.256296 0.819591 -0.117289
v -0.099368 0.815747 -0.135106
v -0.207693 0.815678 -0.161890
v -0.262138 0.888853 -0.063187
v -0.265995 0.887171 -0.016734
v -0.248643 0.885504 0.016424
v -0.266151 0.854203 -0.065707
v -0.269150 0.854370 -0.017917
v -0.255985 0.853546 0.015256
v -0.268033 0.821765 -0.067594
v -0.268198 0.822945 -0.018527
v -0.199037 0.808994 0.068238
v -0.234279 0.881936 0.041045
v -0.123454 0.873563 0.068533
v -0.159072 0.878223 0.068300
v -0.213959 0.880709 0.055653
v -0.190135 0.879944 0.064796
v -0.123503 0.846659 0.067068
v -0.238798 0.849142 0.038053
v -0.146130 0.828748 0.072717
v -0.219192 0.845506 0.054518
v -0.192247 0.843151 0.065821
v -0.101366 0.821512 0.067610
v -0.091590 0.798865 0.059351
v -0.224662 0.813452 0.056875
v -0.160989 0.802280 0.076312
v -0.244145 0.818638 0.040852
v -0.258943 0.822748 0.017464
v -0.112117 0.815016 0.071350
v -0.094810 0.789628 0.058986
v -0.129305 0.790501 0.074038
v -0.097769 0.780267 0.055254
v -0.104686 0.808211 -0.131539
v -0.106016 0.795925 -0.131073
v -0.163627 0.778325 -0.170245
v -0.128178 0.770381 -0.156109
v -0.204342 0.778785 0.070895
v -0.253286 0.785682 -0.118271
v -0.195516 0.783545 -0.163058
v -0.266916 0.790216 -0.067404
v -0.268136 0.792361 -0.016758
v -0.229719 0.784029 0.060065
v -0.169184 0.772453 0.075583
v -0.246575 0.789176 0.042987
v -0.259605 0.792236 0.019418
v -0.131238 0.762106 0.068555
v -0.095054 0.753765 0.048662
v -0.100094 0.765564 -0.130939
v -0.172340 0.625824 -0.140804
v -0.143203 0.621771 -0.139801
v -0.210867 0.633435 0.060399
v -0.243390 0.629816 -0.087773
v -0.199596 0.627800 -0.132066
v -0.267857 0.631574 -0.057674
v -0.258540 0.639195 -0.021182
v -0.230029 0.635338 0.047832
v -0.178315 0.629237 0.063455
v -0.247382 0.638265 0.029545
v -0.257113 0.637830 0.011431
v -0.144584 0.624532 0.052043
v -0.120907 0.621068 0.022409
v -0.092260 0.613053 -0.030255
v -0.089542 0.612319 -0.080700
v -0.102331 0.614160 -0.115748
v -0.177848 0.531193 -0.138798
v -0.143241 0.528484 -0.143689
v -0.199037 0.537150 0.046620
v -0.251508 0.539591 -0.104899
v -0.201312 0.532910 -0.126927
v -0.256451 0.542362 -0.068350
v -0.245572 0.545299 -0.034033
v -0.221332 0.541369 0.042747
v -0.176398 0.539704 0.043262
v -0.228871 0.544213 0.026628
v -0.236606 0.548215 0.002585
v -0.152674 0.533407 0.033059
v -0.131206 0.526561 0.017262
v -0.096149 0.517481 -0.036138
v -0.092445 0.517657 -0.075188
v -0.106805 0.524316 -0.116244
v -0.175416 0.464711 -0.143141
v -0.137588 0.456986 -0.136720
v -0.188157 0.459840 0.036539
v -0.249222 0.469281 -0.107248
v -0.202646 0.467554 -0.139346
v -0.244135 0.470388 -0.070356
v -0.230464 0.472870 -0.035795
v -0.198934 0.468651 0.032906
v -0.174241 0.456324 0.032759
v -0.210723 0.474121 0.019734
v -0.219792 0.474710 -0.004743
v -0.160385 0.456148 0.018111
v -0.146115 0.450978 0.000140
v -0.111826 0.440461 -0.036653
v -0.100976 0.442705 -0.069182
v -0.110786 0.447720 -0.105967
v -0.161700 0.385457 -0.153689
v -0.133095 0.379562 -0.138664
v -0.198427 0.364092 -0.006611
v -0.240060 0.393802 -0.113194
v -0.192256 0.389335 -0.155199
v -0.245417 0.390710 -0.074746
v -0.247464 0.386698 -0.037566
v -0.217031 0.387411 0.007823
v -0.177873 0.362458 -0.012433
v -0.228106 0.391072 0.001081
v -0.244745 0.387370 -0.010275
v -0.159377 0.367081 -0.017645
v -0.143599 0.366915 -0.023084
v -0.106459 0.366119 -0.051457
v -0.102863 0.367370 -0.079060
v -0.113022 0.371589 -0.110257
v -0.150838 0.276979 -0.150442
v -0.127427 0.275293 -0.135954
v -0.192125 0.252409 0.012329
v -0.230257 0.277889 -0.119409
v -0.178114 0.279626 -0.153865
v -0.240639 0.274942 -0.088316
v -0.235758 0.277279 -0.056377
v -0.204559 0.254694 0.012156
v -0.175784 0.251995 0.008314
v -0.214125 0.260464 0.002725
v -0.219606 0.269595 -0.022183
v -0.156930 0.250557 -0.014061
v -0.139275 0.252802 -0.025804
v -0.100916 0.261323 -0.055775
v -0.101420 0.264073 -0.090436
v -0.114088 0.269761 -0.117072
v -0.133009 0.168821 -0.143845
v -0.117376 0.165337 -0.126637
v -0.189199 0.144499 0.018498
v -0.211994 0.158977 -0.125117
v -0.153780 0.169380 -0.154682
v -0.223494 0.152814 -0.088067
v -0.221405 0.148719 -0.050254
v -0.201291 0.144768 0.017668
v -0.178619 0.146257 0.015449
v -0.214083 0.144324 0.009413
v -0.221012 0.143817 -0.010357
v -0.147290 0.142948 0.009446
v -0.131690 0.141625 0.007035
v -0.105100 0.153217 -0.032203
v -0.098243 0.158977 -0.081017
v -0.107525 0.160745 -0.107402
v -0.123753 0.077148 -0.152241
v -0.110952 0.074470 -0.127909
v -0.213494 0.065194 -0.117454
v -0.123074 0.058586 0.030595
v -0.113690 0.060954 0.023628
v -0.102288 0.068389 -0.012588
v -0.095723 0.075101 -0.055200
v -0.099791 0.074532 -0.097912
v -0.087328 0.790276 0.000094
v -0.089691 0.784082 -0.000790
v -0.090929 0.765255 -0.003576
v -0.086637 0.732512 -0.001795
v -0.100900 0.614614 -0.004282
v -0.114923 0.521607 -0.005219
v -0.130419 0.443470 -0.020372
v -0.125046 0.361993 -0.033949
v -0.119486 0.255624 -0.037596
v -0.121379 0.145678 -0.002576
v -0.175231 0.703883 0.070468
v -0.138994 0.697406 0.061778
v -0.099430 0.691842 0.029146
v -0.090824 0.684500 -0.008365
v -0.106711 0.694531 -0.122366
v -0.128323 0.698237 -0.144455
v -0.164794 0.703551 -0.151962
v -0.191029 0.706911 -0.146978
v -0.239698 0.716454 -0.099801
v -0.264827 0.714921 -0.061904
v -0.265303 0.717984 -0.017026
v -0.257516 0.720106 0.016777
v -0.248343 0.718734 0.038974
v -0.232697 0.716175 0.054798
v -0.208758 0.709594 0.065951
v -0.109978 0.893972 -0.174340
v -0.105251 0.860811 -0.164216
v -0.101538 0.838681 -0.150566
v -0.095561 0.805765 -0.131290
v -0.094527 0.798040 -0.128612
v -0.093035 0.779647 -0.126337
v -0.094119 0.753981 -0.128312
v -0.086707 0.689143 -0.115582
v -0.153719 0.021745 0.042562
v -0.159866 0.021561 0.042254
v -0.159847 0.023017 0.040703
v -0.166311 0.020535 0.041818
v -0.166563 0.022017 0.040157
v -0.172676 0.018625 0.040699
v -0.172863 0.020200 0.039048
v -0.178679 0.016053 0.039116
v -0.178883 0.017457 0.037414
v -0.183954 0.012527 0.036842
v -0.183871 0.013850 0.035312
v -0.146803 0.022165 0.042306
v -0.146563 0.023537 0.040893
v -0.139867 0.021485 0.041863
v -0.139685 0.022775 0.040384
v -0.134337 0.020212 0.041168
v -0.134125 0.021478 0.039649
v -0.134645 0.019482 0.037959
v -0.159359 0.019053 0.041333
v -0.165536 0.018042 0.040932
v -0.171550 0.016318 0.039848
v -0.176995 0.014162 0.038303
v -0.181856 0.010893 0.036330
v -0.147264 0.019599 0.041264
v -0.140660 0.019013 0.040886
v -0.135325 0.017799 0.040287
v -0.130019 0.018142 0.039548
v -0.130053 0.019299 0.038018
v -0.130733 0.016175 0.038335
v -0.153708 0.023075 0.042240
v -0.160111 0.023045 0.041955
v -0.166816 0.022067 0.041482
v -0.173340 0.020166 0.040336
v -0.179621 0.017391 0.038646
v -0.185104 0.013209 0.035928
v -0.146634 0.023487 0.042001
v -0.139617 0.022772 0.041485
v -0.133805 0.021441 0.040715
v -0.129172 0.018982 0.038888
v -0.160319 0.043560 0.015431
v -0.166685 0.042661 0.014934
v -0.172221 0.040851 0.013858
v -0.148522 0.043860 0.015377
v -0.155104 0.041534 0.018257
v -0.160697 0.041223 0.018056
v -0.166738 0.040055 0.017668
v -0.172396 0.038079 0.016468
v -0.148936 0.041895 0.017813
v -0.184898 0.034450 0.011946
v -0.155074 0.036663 0.027275
v -0.161181 0.036363 0.026962
v -0.167557 0.035174 0.026533
v -0.173836 0.033137 0.025422
v -0.179747 0.030469 0.023846
v -0.180017 0.031947 0.022112
v -0.184917 0.026911 0.021571
v -0.154264 0.036197 0.023986
v -0.160096 0.036125 0.023547
v -0.166530 0.035246 0.023051
v -0.147893 0.036477 0.023507
v -0.160579 0.033829 0.026062
v -0.166694 0.032661 0.025665
v -0.172636 0.030799 0.024587
v -0.178011 0.028545 0.023043
v -0.148524 0.034502 0.025809
v -0.141825 0.033685 0.024940
v -0.136935 0.031823 0.024012
v -0.168129 0.036714 0.026175
v -0.174558 0.034708 0.025036
v -0.180735 0.031844 0.023359
v -0.186094 0.027645 0.020640
v -0.155131 0.029331 0.035160
v -0.161275 0.029058 0.034850
v -0.167696 0.027904 0.034415
v -0.174031 0.025867 0.033300
v -0.179996 0.023199 0.031721
v -0.185230 0.019652 0.029450
v -0.185173 0.021017 0.027914
v -0.148228 0.029825 0.034907
v -0.141273 0.029200 0.034472
v -0.135711 0.027931 0.033782
v -0.160720 0.026531 0.033936
v -0.172871 0.023550 0.032453
v -0.178290 0.021306 0.030912
v -0.142010 0.026692 0.033501
v -0.136639 0.025494 0.032908
v -0.131345 0.025829 0.032172
v -0.132015 0.023830 0.030963
v -0.155153 0.030661 0.034834
v -0.161551 0.030525 0.034545
v -0.168236 0.029414 0.034076
v -0.174721 0.027418 0.032931
v -0.180959 0.024564 0.031245
v -0.186392 0.020355 0.028534
v -0.148094 0.031148 0.034598
v -0.141062 0.030478 0.034089
v -0.135215 0.029160 0.033326
v -0.130528 0.026675 0.031511
v -0.130802 0.024577 0.029972
v -0.194444 -0.011258 0.063668
v -0.195069 0.002237 0.034190
v -0.206700 -0.022476 0.062805
v -0.204280 -0.016283 0.032212
v -0.117709 0.006092 0.040308
v -0.113564 -0.010894 0.068532
v -0.111663 -0.011239 0.042162
v -0.105319 -0.021338 0.070711
v -0.175982 -0.016075 0.111507
v -0.185837 -0.018042 0.092438
v -0.183711 -0.024649 0.116730
v -0.197631 -0.026477 0.092526
v -0.116631 -0.019829 0.098653
v -0.123123 -0.017485 0.115416
v -0.110983 -0.028446 0.103007
v -0.120283 -0.024951 0.123772
v -0.195434 0.010832 -0.085316
v -0.116247 0.018022 -0.074627
v -0.196517 0.015991 0.005481
v -0.198727 -0.007460 0.002786
v -0.198903 0.000579 -0.033624
v -0.120115 0.022992 0.008368
v -0.113672 0.009642 -0.027544
v -0.114846 -0.000169 0.008649
v -0.195480 0.023881 -0.086299
v -0.199554 0.021200 -0.032251
v -0.121389 0.036104 -0.074273
v -0.117706 0.031503 -0.025600
v -0.122261 0.039165 -0.026216
v -0.196904 0.030717 -0.032863
v -0.192750 0.029134 -0.085042
v -0.171650 -0.015424 0.118033
v -0.177363 -0.023614 0.126368
v -0.185831 0.030696 -0.105394
v -0.187798 0.014401 -0.103508
v -0.126657 -0.016726 0.120246
v -0.125948 -0.023895 0.131176
v -0.124801 0.039662 -0.091531
v -0.118717 0.020917 -0.092079
v -0.195551 0.009704 0.020112
v -0.201354 -0.012064 0.017379
v -0.120032 0.015190 0.024666
v -0.113846 -0.005883 0.026083
v -0.148916 -0.016551 0.129956
v -0.152141 -0.023744 0.140442
v -0.145453 0.039961 -0.113028
v -0.144334 0.019489 -0.117930
v -0.191003 -0.015594 0.078724
v -0.202956 -0.025391 0.078251
v -0.113826 -0.016767 0.084345
v -0.106987 -0.026820 0.087873
v -0.209968 -0.066252 0.025227
v -0.212625 -0.067331 0.058462
v -0.107320 -0.060265 0.035973
v -0.097565 -0.062674 0.067032
v -0.187790 0.010934 0.034873
v -0.185412 -0.006180 0.063284
v -0.123486 0.013277 0.038769
v -0.120384 -0.006273 0.065665
v -0.156067 -0.063123 0.031541
v -0.156864 -0.066031 0.065190
v -0.154143 0.003003 0.061599
v -0.153384 0.026548 0.035639
v -0.213587 -0.048465 0.060267
v -0.210495 -0.047090 0.025514
v -0.107958 -0.041762 0.036109
v -0.097521 -0.045278 0.068878
v -0.194932 -0.005906 0.048587
v -0.206917 -0.019799 0.047384
v -0.115220 -0.003905 0.054203
v -0.106977 -0.016227 0.055907
v -0.185624 -0.059476 0.119832
v -0.199585 -0.064644 0.093155
v -0.118181 -0.060103 0.134651
v -0.105993 -0.065412 0.105830
v -0.169624 -0.013762 0.109160
v -0.176117 -0.014394 0.091621
v -0.125917 -0.015312 0.111580
v -0.121481 -0.015832 0.094501
v -0.152414 -0.061995 0.133627
v -0.150007 -0.067314 0.101466
v -0.148751 -0.010189 0.089867
v -0.146314 -0.012527 0.112469
v -0.187033 -0.044647 0.119873
v -0.201012 -0.046910 0.093102
v -0.118751 -0.046608 0.134413
v -0.106156 -0.049122 0.106275
v -0.180417 -0.017374 0.103317
v -0.191000 -0.025831 0.105127
v -0.120160 -0.018929 0.108839
v -0.115476 -0.026776 0.114465
v -0.190986 -0.064848 -0.089426
v -0.111228 -0.064848 -0.078366
v -0.147368 -0.064848 -0.090696
v -0.193931 -0.033275 -0.089462
v -0.110554 -0.025637 -0.079481
v -0.197920 0.004823 -0.062817
v -0.114868 0.013221 -0.054467
v -0.199192 -0.067054 -0.011369
v -0.195109 -0.059992 -0.043047
v -0.121353 -0.062635 -0.004097
v -0.115814 -0.055862 -0.034433
v -0.192674 0.026859 0.006485
v -0.124962 0.031420 0.009172
v -0.155787 -0.061643 -0.006734
v -0.153437 -0.056203 -0.047176
v -0.199813 -0.046023 -0.011142
v -0.198820 -0.039333 -0.041291
v -0.119543 -0.040941 -0.004067
v -0.113723 -0.032508 -0.032573
v -0.197827 0.020758 -0.011814
v -0.197280 -0.003176 -0.014346
v -0.119878 0.029662 -0.007949
v -0.114919 0.005534 -0.009433
v -0.161438 -0.016374 0.127340
v -0.165072 -0.023956 0.136833
v -0.166299 0.017176 -0.118571
v -0.165397 0.037852 -0.114641
v -0.185401 -0.066113 0.062183
v -0.182838 -0.064872 0.028500
v -0.170014 0.000342 0.062199
v -0.173647 0.021864 0.035665
v -0.167486 -0.060361 0.129697
v -0.173571 -0.065874 0.099119
v -0.157621 -0.012307 0.111869
v -0.160983 -0.011007 0.090836
v -0.170758 -0.064848 -0.091643
v -0.176899 -0.064392 -0.008700
v -0.175010 -0.058369 -0.046747
v -0.136699 -0.016751 0.127391
v -0.138757 -0.023603 0.138673
v -0.129887 0.020214 -0.108425
v -0.135136 0.039993 -0.107179
v -0.126791 -0.065201 0.066314
v -0.131331 -0.061685 0.033939
v -0.136612 0.000479 0.063109
v -0.135995 0.023473 0.036249
v -0.134041 -0.060956 0.135033
v -0.127236 -0.067168 0.103493
v -0.134903 -0.013465 0.111487
v -0.134745 -0.011197 0.091080
v -0.124707 -0.064848 -0.085823
v -0.137290 -0.062142 -0.005458
v -0.130053 -0.055048 -0.039595
v -0.194398 0.026467 -0.085794
v -0.198768 0.017950 -0.063204
v -0.198892 0.027842 -0.032043
v -0.123265 0.039631 -0.074104
v -0.117709 0.031741 -0.053539
v -0.120006 0.036818 -0.025574
v -0.126811 0.043519 -0.011400
v -0.121514 0.037242 -0.053723
v -0.128991 0.045339 -0.090374
v -0.196262 0.024202 -0.063122
v -0.182267 0.036529 -0.103566
v -0.146602 0.046787 -0.109110
v -0.206824 -0.045373 0.059322
v -0.202781 -0.043526 0.026530
v -0.115169 -0.039149 0.036267
v -0.104092 -0.043006 0.066251
v -0.181057 -0.042374 0.117464
v -0.195291 -0.044224 0.090922
v -0.110284 -0.046836 0.101435
v -0.120996 -0.044528 0.128808
v -0.188903 -0.029707 -0.083940
v -0.115249 -0.023353 -0.075639
v -0.192077 -0.035490 -0.040909
v -0.191539 -0.041727 -0.009715
v -0.118630 -0.029617 -0.034206
v -0.125171 -0.037787 -0.003543
v -0.185787 -0.064848 -0.104889
v -0.180662 -0.058290 0.129480
v -0.125626 -0.056711 0.146295
v -0.111335 -0.064848 -0.094831
v -0.183752 0.033767 -0.105524
v -0.168327 -0.013932 0.114537
v -0.127650 -0.015327 0.116326
v -0.127120 0.043415 -0.091721
v -0.204466 -0.066881 0.010045
v -0.116652 -0.061704 0.019109
v -0.189753 0.019559 0.021157
v -0.124802 0.022847 0.024323
v -0.158054 -0.056863 0.151962
v -0.140588 -0.064848 -0.122842
v -0.147372 -0.013617 0.122014
v -0.146045 0.044915 -0.111270
v -0.156421 -0.062238 0.015201
v -0.154953 0.036683 0.024313
v -0.181668 -0.043280 0.130731
v -0.188242 -0.031584 -0.107334
v -0.126391 -0.043586 0.146150
v -0.111925 -0.024417 -0.096598
v -0.204994 -0.047096 0.008076
v -0.116436 -0.042121 0.016765
v -0.158196 -0.042212 0.150400
v -0.142589 -0.024166 -0.120836
v -0.206989 -0.066398 0.076278
v -0.100792 -0.064799 0.086753
v -0.181665 -0.011111 0.078103
v -0.119940 -0.012122 0.080635
v -0.153563 -0.067433 0.083529
v -0.151909 -0.004837 0.076457
v -0.207775 -0.047730 0.077626
v -0.100849 -0.047846 0.088263
v -0.213463 -0.066845 0.040899
v -0.099644 -0.060886 0.050782
v -0.186429 0.000785 0.048510
v -0.121414 0.001861 0.051829
v -0.157005 -0.064178 0.047468
v -0.153689 0.014189 0.047601
v -0.214621 -0.048041 0.042420
v -0.099592 -0.043045 0.052207
v -0.191880 -0.063162 0.107836
v -0.111440 -0.064311 0.121259
v -0.171837 -0.014384 0.102087
v -0.123912 -0.016041 0.104858
v -0.149701 -0.065675 0.118136
v -0.146578 -0.012634 0.101859
v -0.193937 -0.045856 0.106968
v -0.111776 -0.048502 0.120980
v -0.193462 -0.064848 -0.043801
v -0.116620 -0.064848 -0.035364
v -0.153056 -0.064848 -0.049972
v -0.196018 -0.035538 -0.069973
v -0.110650 -0.028109 -0.060084
v -0.194447 -0.061949 -0.033295
v -0.119709 -0.057107 -0.025865
v -0.196035 0.034760 -0.013745
v -0.124714 0.039507 -0.006224
v -0.152558 -0.058463 -0.027718
v -0.197558 -0.043123 -0.031284
v -0.116702 -0.036847 -0.023527
v -0.170551 -0.056428 0.144713
v -0.168075 -0.064848 -0.121777
v -0.158992 -0.013413 0.120215
v -0.163867 0.042733 -0.112863
v -0.180171 -0.064913 0.012659
v -0.171318 -0.041283 0.145323
v -0.170567 -0.027830 -0.120763
v -0.181086 -0.066369 0.080840
v -0.166002 -0.006377 0.077314
v -0.184967 -0.065501 0.044365
v -0.171652 0.010059 0.047788
v -0.168275 -0.064501 0.115654
v -0.158103 -0.012434 0.102283
v -0.174235 -0.064848 -0.049648
v -0.174949 -0.060583 -0.030053
v -0.140051 -0.055099 0.153699
v -0.122280 -0.064848 -0.112749
v -0.135655 -0.014180 0.119904
v -0.136989 0.044491 -0.106947
v -0.135323 -0.062022 0.016967
v -0.140600 -0.041596 0.152096
v -0.123386 -0.023667 -0.112139
v -0.126363 -0.067008 0.084957
v -0.135302 -0.006466 0.078079
v -0.128237 -0.062949 0.049600
v -0.136014 0.010961 0.048876
v -0.129542 -0.065605 0.119677
v -0.134661 -0.013421 0.102118
v -0.129756 -0.064848 -0.042046
v -0.133270 -0.058377 -0.026186
v -0.198168 0.021728 -0.063009
v -0.119308 0.035401 -0.053458
v -0.175705 -0.041066 0.127846
v -0.184034 -0.028339 -0.100057
v -0.127376 -0.042558 0.138673
v -0.115794 -0.022178 -0.091430
v -0.196772 -0.043104 0.009594
v -0.123084 -0.038870 0.017729
v -0.155163 -0.041115 0.145447
v -0.143580 -0.021581 -0.115644
v -0.201653 -0.044876 0.075790
v -0.106024 -0.045442 0.083782
v -0.207341 -0.044742 0.042585
v -0.106866 -0.040672 0.051233
v -0.188116 -0.043445 0.104662
v -0.115252 -0.046429 0.116192
v -0.190905 -0.031799 -0.064789
v -0.115421 -0.025382 -0.057609
v -0.189901 -0.038899 -0.029783
v -0.122229 -0.033905 -0.023302
v -0.166250 -0.040957 0.139728
v -0.168310 -0.025375 -0.114652
v -0.140352 -0.040822 0.146212
v -0.126454 -0.020689 -0.106900
v -0.173632 -0.064848 -0.067385
v -0.191583 -0.064848 -0.070081
v -0.112771 -0.064848 -0.057293
v -0.151732 -0.064848 -0.064493
v -0.127770 -0.064848 -0.061349
v -0.186603 -0.056808 -0.104666
v -0.111322 -0.053341 -0.077642
v -0.111591 -0.051544 -0.094529
v -0.141134 -0.049909 -0.121839
v -0.122776 -0.049826 -0.111798
v -0.191872 -0.058910 -0.088574
v -0.168771 -0.052605 -0.120794
v -0.193693 -0.059939 -0.069717
v -0.112178 -0.055111 -0.058348
vn 0.8565 0.0203 -0.5157
vn 0.7313 -0.2756 0.6239
vn 0.0950 -0.1266 -0.9874
vn -0.8298 -0.0657 -0.5542
vn -0.9831 -0.0535 -0.1749
vn 0.5185 0.2630 0.8136
vn 0.0837 -0.0113 -0.9964
vn 0.5241 0.1993 0.8280
vn -0.9816 0.1022 0.1612
vn 0.9724 -0.0158 0.2327
vn -0.1251 -0.0781 0.9891
vn -0.5502 -0.2311 -0.8024
vn -0.5630 0.0017 -0.8265
vn 0.3214 -0.2545 -0.9121
vn 0.0523 -0.1566 -0.9863
vn -0.8053 -0.0102 -0.5928
vn 0.2585 -0.1351 -0.9565
vn 0.0466 -0.1293 -0.9905
vn -0.2402 -0.1170 -0.9636
vn -0.4524 -0.0780 -0.8884
vn -0.6355 -0.0287 -0.7716
vn -0.8707 0.0419 -0.4901
vn -0.3265 -0.0313 -0.9447
vn -0.3773 0.1359 0.9160
vn -0.1375 0.1463 0.9796
vn -0.7984 0.1557 0.5816
vn -0.6072 0.1690 0.7764
vn 0.3814 -0.2542 0.8888
vn 0.9761 -0.1751 0.1288
vn 0.6699 -0.3025 -0.6780
vn 0.2494 -0.1955 -0.9485
vn 0.9648 -0.1294 0.2288
vn -0.9993 -0.0334 -0.0159
vn 0.1830 -0.1062 0.9774
vn -0.9891 -0.0521 0.1378
vn -0.7108 -0.0271 -0.7029
vn 0.5271 -0.1507 0.8363
vn -0.9982 -0.0598 -0.0028
vn -0.9947 -0.1023 0.0074
vn 0.1877 -0.1098 0.9761
vn 0.8279 0.1003 -0.5518
vn -0.7670 -0.0546 -0.6393
vn -0.9445 -0.1895 0.2683
vn -0.9936 -0.0228 0.1109
vn 0.9702 -0.1476 0.1923
vn -0.4916 -0.0710 0.8679
vn 0.9124 0.1776 0.3689
vn 0.6710 -0.2080 0.7117
vn -0.0596 0.0118 -0.9982
vn 0.9997 -0.0211 -0.0132
vn 0.3084 -0.2117 0.9274
vn -0.0429 -0.3534 0.9345
vn 0.9243 0.0080 -0.3815
vn 0.5052 0.1419 -0.8512
vn 0.9507 0.0540 -0.3053
vn -0.6675 0.3297 0.6676
vn -0.7229 -0.0859 0.6855
vn -0.9322 -0.2217 0.2861
vn -0.7416 -0.0878 -0.6651
vn 0.2680 0.3264 0.9065
vn 0.9817 0.0199 -0.1893
vn 0.6411 0.2793 0.7149
vn 0.9316 0.0338 -0.3619
vn -0.9084 -0.2159 0.3581
vn -0.9915 0.1092 -0.0704
vn -0.9993 0.0158 -0.0329
vn -0.4158 -0.0452 0.9084
vn 0.0825 0.0706 0.9941
vn 0.1112 -0.1174 -0.9868
vn 0.9968 -0.0357 0.0718
vn -0.9048 -0.0460 0.4233
vn 0.9972 -0.0136 0.0733
vn 0.7756 0.0245 0.6308
vn 0.7499 -0.2139 0.6260
vn -0.9737 -0.0421 -0.2240
vn -0.9997 -0.0194 -0.0132
vn -0.2874 -0.1884 0.9391
vn 0.7808 0.1417 0.6084
vn -0.6878 -0.0796 -0.7215
vn -0.2587 -0.1325 -0.9568
vn 0.4945 0.1200 0.8609
vn 0.6817 -0.1603 0.7138
vn -0.8077 -0.0244 -0.5891
vn -0.9387 -0.1307 -0.3189
vn -0.9694 -0.1945 0.1499
vn 0.5550 0.0062 -0.8318
vn -0.6289 -0.0456 0.7761
vn 0.9595 0.0002 -0.2818
vn -0.2623 -0.0265 -0.9646
vn -0.8182 0.1137 0.5635
vn -0.6107 0.0396 0.7909
vn 0.2954 -0.4898 -0.8202
vn -0.3714 0.0365 0.9278
vn -0.1237 0.0470 0.9912
vn 0.4842 -0.3390 -0.8066
vn 0.5498 -0.4398 -0.7102
vn 0.9312 -0.3462 0.1145
vn 0.4001 -0.1617 0.9021
vn 0.1405 0.1822 0.9732
vn 0.0807 0.0521 0.9954
vn 0.2133 -0.2256 -0.9506
vn -0.8988 0.1305 0.4184
vn -0.9504 0.0386 0.3086
vn -0.9062 -0.1630 -0.3902
vn -0.9619 0.0263 0.2722
vn 0.6914 0.0091 0.7224
vn 0.6416 -0.1372 0.7547
vn 0.5245 -0.3508 0.7758
vn -0.3496 -0.2604 -0.9000
vn 0.2557 -0.1239 0.9588
vn -0.6609 -0.1008 -0.7437
vn -0.0353 0.0525 0.9980
vn 0.5087 -0.0021 0.8610
vn 0.7850 -0.1215 0.6075
vn -0.9003 -0.0223 0.4346
vn -0.9786 0.0253 -0.2040
vn -0.9851 0.0872 -0.1483
vn 0.9201 0.0556 -0.3876
vn -0.1597 0.0675 0.9849
vn -0.3695 0.1541 0.9164
vn -0.6422 0.1496 0.7518
vn -0.8522 0.0792 0.5171
vn -0.9706 0.0241 0.2393
vn -0.9879 -0.1217 0.0957
vn -0.9689 -0.0582 -0.2405
vn -0.7322 -0.0978 -0.6740
vn -0.5278 -0.1335 -0.8388
vn -0.2341 -0.0591 -0.9704
vn 0.2900 0.0007 -0.9570
vn 0.7128 0.0659 -0.6982
vn 0.9888 0.1087 0.1020
vn 0.4483 -0.1859 0.8743
vn 0.0933 -0.1217 0.9882
vn -0.0000 -0.1798 0.9837
vn -0.3822 -0.1319 0.9146
vn 0.8611 0.0521 -0.5058
vn 0.2862 0.0299 -0.9577
vn 0.3867 0.3274 0.8621
vn -0.9212 -0.1839 0.3428
vn -0.8132 -0.1417 0.5645
vn 0.2505 0.0603 0.9662
vn 0.3722 0.2589 0.8913
vn 0.6200 -0.2479 0.7444
vn 0.4974 0.1389 0.8563
vn 0.6320 0.0243 -0.7746
vn 0.9724 0.0208 0.2322
vn -0.2901 0.0618 -0.9550
vn -0.9766 -0.0347 0.2122
vn -0.9127 0.0462 -0.4059
vn -0.8535 -0.1550 0.4974
vn 0.5858 0.0979 0.8045
vn -0.3080 0.0844 -0.9476
vn -0.2834 0.1186 -0.9516
vn 0.5655 -0.2556 0.7841
vn -0.9962 -0.0785 0.0389
vn 0.7884 0.0365 -0.6141
vn 0.5281 -0.2209 0.8200
vn -0.9730 -0.0372 0.2279
vn -0.2310 -0.2202 -0.9477
vn -0.8343 -0.2917 0.4678
vn -0.9212 -0.2535 0.2951
vn -0.1052 0.4434 0.8901
vn -0.7864 -0.0528 0.6154
vn 0.5798 -0.0970 -0.8090
vn -0.6151 0.0335 0.7877
vn 0.2627 0.1793 0.9481
vn 0.8203 0.0297 -0.5711
vn 0.2409 0.3399 0.9091
vn -0.5776 -0.0657 0.8136
vn 0.1831 -0.4262 0.8859
vn 0.3258 0.2892 0.9001
vn -0.9525 0.2215 0.2091
vn -0.7136 -0.2861 -0.6394
vn 0.3261 0.1127 -0.9386
vn -0.9860 -0.0255 0.1650
vn -0.9921 -0.0498 0.1151
vn 0.6714 -0.0878 0.7359
vn 0.4562 0.0167 0.8897
vn -0.5983 0.1578 -0.7856
vn -0.9834 -0.1741 -0.0506
vn -0.6679 -0.0534 0.7423
vn -0.7084 0.1017 -0.6984
vn -0.2125 0.2302 -0.9497
vn 0.6659 -0.0789 -0.7418
vn -0.9987 -0.0504 -0.0049
vn -0.9421 -0.1631 0.2930
vn 0.9392 -0.0468 -0.3403
vn 0.9853 0.0728 0.1546
vn -0.1431 -0.0613 0.9878
vn -0.7224 -0.2759 -0.6341
vn 0.9442 -0.1113 -0.3099
vn -0.3776 -0.0205 -0.9257
vn -0.8115 0.1205 0.5718
vn 0.6706 -0.1347 -0.7295
vn -0.2061 0.1303 0.9698
vn 0.8923 -0.1007 0.4400
vn 0.8769 -0.2049 0.4348
vn 0.0185 -0.0179 -0.9997
vn 0.4950 0.0141 -0.8688
vn -0.7139 -0.0225 0.6999
vn 0.9970 0.0071 0.0766
vn -0.4112 -0.0441 -0.9105
vn -0.9875 -0.1520 -0.0411
vn -0.4692 0.4583 0.7548
vn 0.7776 -0.0304 0.6280
vn -0.5241 0.0371 -0.8508
vn 0.9982 0.0296 0.0515
vn -0.0201 0.1623 -0.9865
vn -0.5816 0.7509 0.3128
vn 0.9008 0.4343 0.0016
vn -0.5700 0.7831 0.2487
vn 0.1199 -0.9759 -0.1825
vn -0.6024 0.7977 0.0262
vn 0.9987 -0.0114 -0.0492
vn 0.9756 0.1816 0.1235
vn 0.5108 0.2082 -0.8341
vn 0.2222 0.9749 -0.0105
vn -0.8848 -0.0914 0.4570
vn 0.9650 0.2526 0.0702
vn 0.0380 -0.9990 -0.0214
vn -0.4921 0.7965 0.3514
vn 0.9366 -0.1404 0.3210
vn 0.8879 0.0340 -0.4588
vn 0.5047 0.8387 0.2045
vn -0.9986 -0.0435 -0.0301
vn -0.9899 -0.0409 -0.1361
vn -0.9994 0.0345 0.0051
vn -0.9376 0.3425 0.0592
vn 0.9922 0.0088 -0.1240
vn -0.0000 -1.0000 -0.0000
vn 0.0808 0.7892 0.6088
vn -0.9969 -0.0606 0.0511
vn 0.9857 0.1685 -0.0098
vn -0.1367 0.9103 -0.3906
vn -0.9962 -0.0338 0.0805
vn 0.0055 0.9924 0.1226
vn 0.3147 0.7932 0.5213
vn 0.4617 0.8870 -0.0093
vn 0.9898 -0.1182 0.0801
vn 0.8466 0.0459 -0.5302
vn 0.2754 0.9466 0.1676
vn -0.6801 -0.0071 -0.7331
vn -0.3609 0.9081 -0.2124
vn 0.3697 0.6944 0.6173
vn -0.0497 0.9345 0.3524
vn 0.0976 -0.9952 0.0114
vn -0.2974 -0.2713 0.9154
vn 0.1933 0.9737 0.1207
vn 0.0560 -0.9477 0.3141
vn 0.0571 -0.9475 0.3145
vn 0.0497 -0.9489 0.3118
vn -0.0393 -0.9960 0.0804
vn 0.0606 -0.9975 0.0375
vn 0.1016 -0.9870 -0.1248
vn 0.0490 -0.9490 0.3115
vn 0.4295 0.0802 0.8995
vn -0.1023 0.8862 0.4518
vn -0.9091 0.0188 -0.4162
vn 0.7602 0.6003 0.2483
vn 0.0370 -0.9986 0.0379
vn 0.9528 0.3037 0.0031
vn -0.6015 0.7548 0.2617
vn 0.5009 -0.0146 -0.8654
vn 0.8975 -0.0156 -0.4407
vn 0.3883 0.9152 0.1077
vn 0.4614 0.8820 0.0956
vn 0.4623 0.8814 0.0971
vn 0.4615 0.8819 0.0959
vn -0.9470 -0.0394 -0.3187
vn 0.0322 -0.9971 -0.0689
vn -0.1026 0.1086 0.9888
vn -0.5150 0.0871 -0.8528
vn -0.1376 0.8184 0.5580
vn -0.0223 0.0190 -0.9996
vn -0.0132 -0.9990 -0.0421
vn -0.6135 -0.0805 -0.7856
vn 0.0022 -0.0740 -0.9973
vn 0.3402 0.7857 0.5166
vn -0.3828 0.7866 0.4845
vn -0.4328 0.0156 0.9013
vn 0.0414 -0.9919 -0.1201
vn 0.1908 0.9775 0.0902
vn -0.0113 0.9921 0.1251
vn 0.7999 0.2605 -0.5407
vn -0.4779 0.3809 -0.7915
vn 0.0419 0.3345 -0.9415
vn 0.0691 0.8971 0.4365
vn 0.0342 -0.3500 0.9361
vn 0.0877 0.6998 0.7090
vn 0.0283 0.3374 0.9409
vn 0.0376 -0.9773 -0.2087
vn -0.1456 0.7940 0.5903
vn 0.0900 -0.9914 -0.0950
vn 0.2381 -0.2516 0.9381
vn 0.4948 0.8683 0.0344
vn 0.3815 0.7959 0.4700
vn 0.9864 -0.0156 0.1635
vn 0.8454 0.0500 0.5317
vn 0.8931 0.0355 0.4486
vn -0.9435 -0.0906 -0.3189
vn -0.9441 -0.0905 -0.3170
vn -0.9448 -0.0907 -0.3149
vn 0.9622 -0.0096 0.2721
vn -0.3854 0.7820 0.4898
vn 0.9128 0.0231 -0.4077
vn -0.9117 -0.0698 0.4048
vn 0.3732 0.9133 -0.1634
vn -0.3998 0.9115 0.0966
vn 0.0530 -0.9809 -0.1870
vn 0.9653 -0.2331 -0.1179
vn -0.1606 -0.9623 0.2194
vn -0.1561 -0.9644 0.2134
vn -0.1551 -0.9648 0.2122
vn -0.4116 0.9102 0.0462
vn -0.9757 -0.1702 -0.1382
vn 0.4799 0.0737 -0.8742
vn -0.1816 0.9817 0.0578
vn -0.9245 -0.1349 -0.3564
vn 0.9410 0.0242 0.3377
vn 0.1643 0.8955 -0.4136
vn 0.2542 0.9574 0.1368
vn 0.9462 -0.1285 -0.2969
vn -0.9654 -0.0990 -0.2413
vn -0.9740 -0.2152 0.0710
vn 0.8226 -0.0111 -0.5686
vn 0.3758 0.9042 -0.2028
vn 0.8242 0.0478 -0.5643
vn -0.4125 0.9096 -0.0489
vn 0.9995 0.0071 -0.0303
vn -0.9729 -0.0323 -0.2291
vn -0.9221 -0.1300 0.3645
vn 0.7768 0.3953 -0.4903
vn -0.5145 0.8535 -0.0830
vn -0.8350 0.5324 0.1393
vn -0.9606 -0.0366 -0.2755
vn -0.8827 -0.0756 0.4637
vn -0.3332 0.9378 0.0978
vn -0.9837 -0.1743 0.0451
vn -0.0954 0.1823 0.9786
vn -0.2110 0.1395 0.9675
vn -0.2993 0.1073 0.9481
vn -0.4782 0.1024 0.8723
vn 0.1074 0.9939 0.0239
vn 0.2224 0.9747 -0.0220
vn 0.0275 -0.3641 0.9309
vn 0.0210 -0.3764 0.9262
vn -0.0872 -0.4312 0.8980
vn -0.0779 -0.4120 0.9079
vn -0.0598 -0.3605 0.9308
vn -0.0072 -0.3414 0.9399
vn 0.1515 -0.4736 0.8676
vn 0.4344 0.8944 -0.1064
vn -0.0497 0.2113 0.9762
vn -0.1410 0.9883 -0.0586
vn -0.2646 0.9611 -0.0797
vn -0.3726 0.9169 -0.1431
vn -0.5115 0.8286 -0.2277
vn 0.0208 0.2287 0.9733
vn 0.0903 0.2389 0.9668
vn 0.1817 0.2575 0.9490
vn 0.4335 0.1855 0.8819
vn -0.2160 0.1412 0.9661
vn -0.3029 0.1049 0.9472
vn -0.4813 0.0920 0.8717
vn -0.0763 -0.4031 0.9120
vn -0.0552 -0.3516 0.9345
vn -0.0000 -0.3306 0.9438
vn -0.0995 0.1845 0.9778
vn -0.2138 0.1381 0.9671
vn -0.3008 0.1042 0.9480
vn -0.4780 0.0965 0.8731
vn 0.0311 -0.3639 0.9309
vn 0.0349 -0.3549 0.9343
vn 0.0288 -0.3579 0.9333
vn -0.0734 -0.4079 0.9101
vn 0.1507 -0.4642 0.8728
vn -0.0536 0.2143 0.9753
vn 0.0178 0.2324 0.9725
vn 0.0879 0.2452 0.9655
vn 0.1809 0.2659 0.9469
vn 0.4333 0.1989 0.8790
vn 0.7486 -0.4799 0.4574
vn -0.0397 0.9866 0.1583
vn -0.5159 0.7824 0.3488
vn -0.4153 0.8358 0.3592
vn 0.9747 0.2088 0.0797
vn -0.5974 0.7362 0.3179
vn -0.7765 0.5133 0.3655
vn -0.6335 0.6321 0.4463
vn 0.0725 -0.9849 -0.1573
vn 0.5900 0.6779 0.4387
vn 0.7692 0.5805 0.2671
vn 0.4404 0.8399 0.3172
vn 0.4790 0.7916 0.3794
vn -0.3963 -0.1523 0.9054
vn -0.9805 -0.0818 -0.1787
vn 0.0894 -0.9958 -0.0197
vn 0.6424 0.6628 0.3847
vn -0.3292 0.9439 0.0246
vn -0.3071 0.9456 0.1070
vn -0.3507 0.8790 0.3230
vn -0.3268 0.9376 0.1187
vn 0.9739 0.2150 -0.0723
vn 0.5422 0.8302 0.1294
vn 0.4664 0.8410 0.2741
vn 0.7867 0.5967 0.1584
vn 0.4526 0.8731 0.1811
vn 0.5549 0.8288 0.0719
vn -0.3600 0.9246 0.1244
vn 0.4626 0.8812 0.0975
vn 0.9504 0.2923 -0.1067
vn 0.7441 0.6114 0.2692
vn -0.0522 -0.9981 0.0329
vn -0.9434 -0.0903 -0.3190
vn 0.9998 0.0145 -0.0105
vn -0.9551 0.2236 0.1944
vn -0.8778 0.3795 0.2924
vn 0.7651 0.6082 0.2113
vn -0.7138 0.6731 0.1937
vn 0.8343 0.4916 0.2496
vn 0.8749 0.4338 0.2152
vn 0.2952 0.9510 0.0919
vn -0.5619 0.8238 0.0748
vn 0.0569 0.9795 0.1930
vn 0.7430 0.6182 0.2564
vn 0.0979 0.9320 0.3490
vn -0.9848 0.1735 0.0087
vn -0.4393 0.8962 -0.0617
vn -0.4086 0.9040 -0.1259
vn -0.0075 -0.9997 0.0241
vn 0.0481 0.9354 0.3503
vn -0.3510 0.2503 0.9023
vn -0.1887 -0.9252 0.3291
vn -0.2885 0.8646 0.4113
vn 0.0850 -0.9964 -0.0067
vn -0.0416 0.0709 -0.9966
vn 0.0116 -0.9999 -0.0020
vn 0.2467 0.9149 0.3195
vn -0.1271 -0.9609 0.2461
vn 0.0827 -0.9881 -0.1299
vn -0.2217 0.9091 0.3527
vn 0.2673 0.9165 0.2977
vn -0.0733 -0.9920 0.1023
vn 0.0787 0.9911 0.1075
vn 0.4490 0.2938 -0.8438
vn 0.0711 -0.9937 -0.0866
vn 0.0304 0.2099 -0.9772
vn -0.0030 -0.9953 0.0968
vn 0.0477 -0.9533 0.2982
vn -0.6316 0.7075 0.3170
vn 0.1243 -0.9813 -0.1468
vn 0.3165 0.9358 0.1550
vn -0.9676 -0.0379 -0.2498
vn 0.5194 0.8480 0.1057
vn 0.0077 -0.9649 0.2624
vn -0.0582 0.9302 0.3624
vn -0.6263 -0.0839 -0.7750
vn -0.4542 0.6480 0.6114
vn -0.1781 0.9765 0.1213
vn -0.7141 0.0784 0.6957
vn -0.0159 0.9859 0.1663
vn -0.1285 0.9914 -0.0238
vn 0.0185 0.9998 -0.0123
vn -0.1556 0.6919 0.7051
vn 0.0736 0.9973 -0.0032
vn -0.0862 -0.9882 0.1263
vn -0.1612 -0.9622 0.2195
vn 0.0500 -0.9983 -0.0315
vn 0.0512 -0.9982 -0.0304
vn 0.0512 -0.9982 -0.0305
vn 0.0612 -0.9970 -0.0469
vn 0.2895 0.8862 0.3617
vn 0.0960 0.8256 0.5560
vn 0.4459 0.0291 -0.8946
vn -0.1272 0.9877 0.0911
vn 0.0258 -0.9957 -0.0890
vn -0.8353 0.4840 -0.2607
vn -0.9608 0.2635 -0.0865
vn -0.9916 0.1217 -0.0426
vn -0.9875 0.1254 0.0959
vn 0.8641 0.4977 -0.0753
vn 0.8967 0.4362 -0.0749
vn 0.9172 0.3984 0.0030
vn 0.9003 0.4055 0.1581
vn 0.6870 0.7262 -0.0259
vn 0.7839 0.6149 0.0857
vn -0.8121 0.5676 -0.1352
vn -0.8219 0.5695 -0.0107
vn -0.7933 0.5677 -0.2201
vn 0.0561 -0.9955 -0.0769
vn -0.8167 -0.0833 0.5710
vn 0.4981 0.2991 0.8139
vn 0.0670 -0.9927 0.1001
vn -0.1982 0.9377 0.2855
vn 0.0524 -0.9982 -0.0293
vn 0.9990 -0.0406 0.0201
vn 0.9900 -0.0714 0.1220
vn 0.3287 0.9400 -0.0915
vn -0.8744 -0.0820 0.4782
vn 0.9389 0.0128 0.3441
vn 0.9829 -0.0580 -0.1746
vn 0.9735 -0.2282 0.0160
vn 0.0634 -0.9846 -0.1629
vn -0.4812 0.8731 0.0778
vn 0.0215 -0.9997 0.0127
vn 0.9034 0.0619 0.4243
vn -0.9901 -0.0892 -0.1086
vn 0.0014 -0.9865 -0.1640
vn 0.1215 -0.9925 -0.0146
vn -0.0063 -0.9999 -0.0105
vn 0.9935 0.0306 0.1101
vn 0.9772 -0.1812 0.1108
vn -0.9997 0.0074 0.0236
vn -0.9750 0.0243 -0.2210
vn 0.9696 0.0061 0.2447
vn 0.8237 0.1345 0.5509
vn 0.9953 0.0466 -0.0846
vn -0.9817 -0.1784 -0.0665
vn -0.3864 0.9143 0.1217
vn 0.9968 -0.0741 0.0284
vn 0.4777 0.8445 0.2422
vn -0.8496 -0.1292 0.5114
vn -0.8714 -0.1559 0.4652
vn -0.8573 -0.0730 0.5096
vn -0.9808 -0.1595 -0.1118
vn -0.3323 0.9419 0.0490
vn -0.9880 -0.1295 -0.0843
vn -0.9476 -0.0703 0.3117
vn -0.9624 -0.0638 0.2640
vn 0.9895 0.0551 -0.1333
vn -0.9339 -0.3526 -0.0585
vn -0.9636 -0.2585 -0.0680
vn 0.9980 -0.0225 0.0583
vn 0.9845 -0.0725 0.1596
vt 0.866900 0.139400
vt 0.872800 0.101700
vt 0.885900 0.104600
vt 0.881500 0.143800
vt 0.139400 0.269500
vt 0.143100 0.300600
vt 0.133300 0.305100
vt 0.128200 0.274600
vt 0.905500 0.072800
vt 0.909800 0.045300
vt 0.920500 0.045300
vt 0.918600 0.073900
vt 0.945400 0.203900
vt 0.942000 0.239300
vt 0.926500 0.236300
vt 0.930100 0.201900
vt 0.953700 0.067200
vt 0.973600 0.064700
vt 0.966700 0.104300
vt 0.947200 0.107100
vt 0.146800 0.117000
vt 0.150800 0.173800
vt 0.138300 0.171500
vt 0.139900 0.113000
vt 0.895600 0.191400
vt 0.897400 0.147700
vt 0.912700 0.151700
vt 0.912100 0.196900
vt 0.145400 0.060400
vt 0.138200 0.062200
vt 0.143300 0.045000
vt 0.150100 0.045000
vt 0.057600 0.287700
vt 0.035600 0.285100
vt 0.037700 0.241300
vt 0.058000 0.239400
vt 0.821700 0.200500
vt 0.828100 0.170900
vt 0.840100 0.173900
vt 0.834500 0.206000
vt 0.116400 0.354700
vt 0.124700 0.386500
vt 0.110500 0.393700
vt 0.103300 0.360700
vt 0.902000 0.361100
vt 0.893100 0.410300
vt 0.869900 0.404400
vt 0.880800 0.351800
vt 0.865700 0.455700
vt 0.867500 0.429900
vt 0.890900 0.435000
vt 0.889800 0.460200
vt 0.794200 0.450900
vt 0.787600 0.421600
vt 0.808800 0.414000
vt 0.815000 0.448000
vt 0.841800 0.422600
vt 0.840600 0.451100
vt 0.916700 0.439100
vt 0.916200 0.463300
vt 0.798600 0.481900
vt 0.782300 0.483100
vt 0.776300 0.453800
vt 0.818000 0.481000
vt 0.840000 0.482800
vt 0.862400 0.484900
vt 0.885900 0.488300
vt 0.912800 0.491800
vt 0.126000 0.445900
vt 0.132300 0.466200
vt 0.115600 0.470100
vt 0.111400 0.450700
vt 0.146700 0.437400
vt 0.159100 0.451900
vt 0.084800 0.477100
vt 0.083500 0.459000
vt 0.098300 0.455300
vt 0.101100 0.473800
vt 0.182900 0.405900
vt 0.188200 0.411700
vt 0.178800 0.438400
vt 0.163700 0.424800
vt 0.189100 0.374800
vt 0.197400 0.379900
vt 0.778900 0.392700
vt 0.790000 0.379300
vt 0.825500 0.376500
vt 0.843300 0.328200
vt 0.863200 0.343200
vt 0.848400 0.393900
vt 0.166100 0.350400
vt 0.176500 0.365800
vt 0.171300 0.389800
vt 0.156400 0.362300
vt 0.036600 0.401600
vt 0.060300 0.403400
vt 0.062400 0.442600
vt 0.035400 0.441600
vt 0.139100 0.376200
vt 0.156100 0.406600
vt 0.137800 0.421000
vt 0.057900 0.367300
vt 0.073800 0.367000
vt 0.078300 0.403500
vt 0.935100 0.070900
vt 0.930700 0.107800
vt 0.113700 0.315800
vt 0.109700 0.283100
vt 0.119100 0.279100
vt 0.123500 0.310200
vt 0.049200 0.067900
vt 0.074700 0.068300
vt 0.057200 0.113900
vt 0.036600 0.115900
vt 0.959300 0.278600
vt 0.939000 0.270700
vt 0.959200 0.243700
vt 0.102900 0.319100
vt 0.103000 0.285300
vt 0.892300 0.069300
vt 0.899300 0.106800
vt 0.929600 0.154200
vt 0.947000 0.155500
vt 0.050900 0.181200
vt 0.072200 0.177500
vt 0.071400 0.240300
vt 0.036900 0.362200
vt 0.831400 0.235500
vt 0.816500 0.228100
vt 0.093600 0.363700
vt 0.099500 0.399200
vt 0.156000 0.068200
vt 0.170700 0.076700
vt 0.163900 0.125700
vt 0.129700 0.346600
vt 0.142200 0.338300
vt 0.860700 0.290100
vt 0.870100 0.251700
vt 0.890100 0.257400
vt 0.878700 0.298700
vt 0.877800 0.067800
vt 0.857100 0.067400
vt 0.857600 0.044900
vt 0.878300 0.045000
vt 0.101500 0.229700
vt 0.097400 0.288400
vt 0.088900 0.242400
vt 0.849700 0.134900
vt 0.855100 0.099700
vt 0.912700 0.108200
vt 0.894800 0.045100
vt 0.090200 0.064100
vt 0.092600 0.045000
vt 0.108300 0.045000
vt 0.099100 0.066000
vt 0.082900 0.366300
vt 0.089500 0.401800
vt 0.055100 0.323300
vt 0.075600 0.290900
vt 0.073800 0.326600
vt 0.926400 0.366500
vt 0.913400 0.310600
vt 0.937100 0.316600
vt 0.113100 0.114000
vt 0.131300 0.113200
vt 0.150900 0.063100
vt 0.857000 0.178900
vt 0.085200 0.325000
vt 0.065000 0.497400
vt 0.038400 0.498900
vt 0.037600 0.477800
vt 0.064900 0.478400
vt 0.036400 0.459100
vt 0.063400 0.460000
vt 0.120500 0.428000
vt 0.107400 0.433100
vt 0.821600 0.269300
vt 0.801300 0.259400
vt 0.838800 0.064900
vt 0.843900 0.044900
vt 0.155300 0.045000
vt 0.150300 0.267700
vt 0.156500 0.296400
vt 0.963300 0.205000
vt 0.962300 0.155200
vt 0.092900 0.323400
vt 0.163800 0.178000
vt 0.896300 0.305600
vt 0.094300 0.170200
vt 0.102100 0.169000
vt 0.955700 0.369800
vt 0.961300 0.324700
vt 0.838900 0.277300
vt 0.849900 0.244200
vt 0.082000 0.243600
vt 0.086900 0.172800
vt 0.851900 0.212600
vt 0.087000 0.495600
vt 0.103800 0.492200
vt 0.118600 0.490300
vt 0.765900 0.429800
vt 0.771500 0.426600
vt 0.767300 0.455000
vt 0.133700 0.488200
vt 0.152600 0.485200
vt 0.770800 0.400100
vt 0.200700 0.380900
vt 0.194200 0.416800
vt 0.187800 0.440600
vt 0.175100 0.461900
vt 0.170300 0.484300
vt 0.769900 0.484200
vt 0.951200 0.421800
vt 0.917900 0.415900
vt 0.078900 0.112100
vt 0.090600 0.112000
vt 0.155500 0.229900
vt 0.142900 0.227900
vt 0.131700 0.230800
vt 0.112900 0.229200
vt 0.122900 0.231500
vt 0.935100 0.045500
vt 0.106100 0.112800
vt 0.099000 0.112500
vt 0.152900 0.331000
vt 0.081900 0.441000
vt 0.095800 0.437800
vt 0.949200 0.469200
vt 0.951100 0.444800
vt 0.945400 0.496300
vt 0.032200 0.179400
vt 0.807100 0.358700
vt 0.132600 0.045000
vt 0.128500 0.061000
vt 0.034300 0.319100
vt 0.111400 0.169000
vt 0.126900 0.169400
vt 0.161100 0.045000
vt 0.176500 0.045000
vt 0.910800 0.231800
vt 0.894700 0.227500
vt 0.905700 0.262200
vt 0.876400 0.185300
vt 0.873200 0.220900
vt 0.088400 0.291000
vt 0.115900 0.063600
vt 0.123300 0.045000
vt 0.828400 0.317000
vt 0.954100 0.045700
vt 0.080200 0.045000
vt 0.924100 0.265200
vt 0.059900 0.045000
vt 0.831600 0.097300
vt 0.162400 0.326800
vt 0.831400 0.131800
vt 0.978900 0.045900
vt 0.352200 0.190800
vt 0.345500 0.216600
vt 0.374300 0.218900
vt 0.381300 0.191700
vt 0.261700 0.435800
vt 0.300600 0.435900
vt 0.275400 0.405600
vt 0.244900 0.405700
vt 0.325800 0.194400
vt 0.322300 0.219000
vt 0.698000 0.460900
vt 0.731600 0.480100
vt 0.753100 0.438400
vt 0.722300 0.423600
vt 0.705500 0.108800
vt 0.714100 0.096700
vt 0.675900 0.096800
vt 0.667300 0.109500
vt 0.163400 0.682400
vt 0.114300 0.675000
vt 0.121900 0.711200
vt 0.166200 0.709200
vt 0.358300 0.584700
vt 0.354100 0.542500
vt 0.313100 0.550000
vt 0.322500 0.589600
vt 0.353800 0.751700
vt 0.361100 0.781900
vt 0.399300 0.768200
vt 0.390700 0.748500
vt 0.259600 0.280800
vt 0.246400 0.286500
vt 0.248000 0.299400
vt 0.267400 0.297500
vt 0.250500 0.104000
vt 0.256000 0.135400
vt 0.278500 0.125000
vt 0.270900 0.094400
vt 0.298000 0.510100
vt 0.345800 0.507000
vt 0.325300 0.471100
vt 0.279700 0.471800
vt 0.620900 0.506000
vt 0.641300 0.479400
vt 0.611200 0.460600
vt 0.584900 0.484400
vt 0.621100 0.096100
vt 0.599800 0.093900
vt 0.597800 0.110200
vt 0.621200 0.110300
vt 0.164000 0.589600
vt 0.161500 0.564200
vt 0.120200 0.564400
vt 0.119800 0.583300
vt 0.096300 0.427400
vt 0.135500 0.427700
vt 0.132600 0.391400
vt 0.094100 0.391700
vt 0.165000 0.642700
vt 0.177700 0.639300
vt 0.175700 0.592300
vt 0.612500 0.297000
vt 0.675000 0.297500
vt 0.670500 0.268000
vt 0.614500 0.259600
vt 0.719700 0.306100
vt 0.714100 0.275900
vt 0.540200 0.238500
vt 0.534200 0.284700
vt 0.570400 0.294700
vt 0.576200 0.249700
vt 0.475900 0.216100
vt 0.470500 0.256300
vt 0.502100 0.271900
vt 0.508400 0.226700
vt 0.134100 0.360600
vt 0.097800 0.359200
vt 0.634700 0.694900
vt 0.672300 0.733200
vt 0.692600 0.708800
vt 0.668300 0.681900
vt 0.300100 0.376600
vt 0.318400 0.410000
vt 0.343300 0.400400
vt 0.324700 0.368400
vt 0.402000 0.080500
vt 0.437400 0.076700
vt 0.437100 0.045200
vt 0.400500 0.048700
vt 0.330400 0.642000
vt 0.361300 0.640300
vt 0.811700 0.138300
vt 0.818500 0.129400
vt 0.780300 0.106600
vt 0.775800 0.117900
vt 0.282200 0.264100
vt 0.292100 0.248400
vt 0.279300 0.239500
vt 0.265900 0.253200
vt 0.273700 0.378400
vt 0.291200 0.409000
vt 0.140800 0.473000
vt 0.154400 0.522600
vt 0.167200 0.522000
vt 0.155900 0.471100
vt 0.111600 0.518000
vt 0.103500 0.711400
vt 0.120900 0.756100
vt 0.137700 0.752700
vt 0.155100 0.329400
vt 0.140700 0.323100
vt 0.150100 0.365400
vt 0.759700 0.714300
vt 0.729400 0.742500
vt 0.774700 0.784300
vt 0.813100 0.755500
vt 0.745500 0.059700
vt 0.791700 0.072000
vt 0.797300 0.055400
vt 0.746900 0.042200
vt 0.737700 0.109100
vt 0.747900 0.097400
vt 0.316700 0.438700
vt 0.343100 0.441000
vt 0.255900 0.241100
vt 0.270400 0.229100
vt 0.711900 0.521300
vt 0.675800 0.499800
vt 0.718500 0.679200
vt 0.697200 0.658300
vt 0.144300 0.113800
vt 0.128300 0.097500
vt 0.098100 0.129400
vt 0.115100 0.145000
vt 0.761700 0.623000
vt 0.726500 0.594200
vt 0.717700 0.619600
vt 0.746800 0.646600
vt 0.205500 0.199000
vt 0.196900 0.191500
vt 0.183400 0.214100
vt 0.194000 0.224600
vt 0.436500 0.632900
vt 0.429900 0.661200
vt 0.439900 0.690900
vt 0.458600 0.651300
vt 0.602900 0.651800
vt 0.633800 0.631800
vt 0.593200 0.612000
vt 0.560200 0.634300
vt 0.700500 0.551800
vt 0.659900 0.528500
vt 0.714600 0.373100
vt 0.689900 0.404300
vt 0.743300 0.396400
vt 0.473000 0.621300
vt 0.445200 0.603700
vt 0.169300 0.170200
vt 0.152600 0.196700
vt 0.388200 0.296700
vt 0.397200 0.272200
vt 0.363300 0.263200
vt 0.355800 0.285300
vt 0.756400 0.313200
vt 0.750300 0.280500
vt 0.223800 0.272500
vt 0.220500 0.290000
vt 0.238000 0.295200
vt 0.238900 0.282400
vt 0.582800 0.444400
vt 0.549000 0.462100
vt 0.301500 0.199700
vt 0.305100 0.221500
vt 0.292900 0.789600
vt 0.289500 0.754800
vt 0.103500 0.468000
vt 0.175500 0.271100
vt 0.161800 0.262900
vt 0.151700 0.289700
vt 0.165400 0.296100
vt 0.172600 0.237400
vt 0.183800 0.247400
vt 0.470600 0.044500
vt 0.473000 0.077200
vt 0.511900 0.080400
vt 0.503900 0.045900
vt 0.622000 0.586000
vt 0.643300 0.556500
vt 0.602700 0.533000
vt 0.580600 0.561600
vt 0.210800 0.168600
vt 0.195300 0.146900
vt 0.785900 0.320300
vt 0.790400 0.286300
vt 0.259000 0.212400
vt 0.244100 0.224100
vt 0.838400 0.091900
vt 0.553300 0.587900
vt 0.788800 0.221300
vt 0.746600 0.216400
vt 0.825000 0.295200
vt 0.832900 0.224600
vt 0.824200 0.718800
vt 0.783900 0.680500
vt 0.240300 0.273000
vt 0.245800 0.255900
vt 0.233600 0.239300
vt 0.226600 0.258600
vt 0.402800 0.244200
vt 0.430800 0.288200
vt 0.435500 0.258200
vt 0.226700 0.153100
vt 0.218100 0.127300
vt 0.561600 0.506800
vt 0.538900 0.532300
vt 0.252800 0.267100
vt 0.245200 0.278100
vt 0.235200 0.163800
vt 0.216900 0.181100
vt 0.380300 0.714300
vt 0.348300 0.714900
vt 0.758500 0.320100
vt 0.785700 0.328200
vt 0.807800 0.337100
vt 0.811000 0.332500
vt 0.311800 0.337200
vt 0.287200 0.344200
vt 0.171200 0.088400
vt 0.155000 0.071500
vt 0.366600 0.430100
vt 0.231000 0.201200
vt 0.212600 0.219100
vt 0.643200 0.372100
vt 0.618600 0.411000
vt 0.642000 0.425500
vt 0.662100 0.386700
vt 0.419400 0.315400
vt 0.495300 0.499800
vt 0.474500 0.534500
vt 0.514500 0.561800
vt 0.198900 0.066200
vt 0.182500 0.048200
vt 0.177900 0.706500
vt 0.176400 0.680600
vt 0.173800 0.565300
vt 0.106100 0.317700
vt 0.139400 0.222400
vt 0.128900 0.249400
vt 0.711400 0.056500
vt 0.119000 0.280400
vt 0.291600 0.223800
vt 0.282300 0.204600
vt 0.206800 0.458300
vt 0.197300 0.424200
vt 0.334900 0.100200
vt 0.367100 0.089400
vt 0.363100 0.057200
vt 0.327500 0.069800
vt 0.151100 0.430300
vt 0.404700 0.093200
vt 0.370900 0.101500
vt 0.647500 0.353700
vt 0.673900 0.360600
vt 0.236500 0.541700
vt 0.219600 0.498900
vt 0.512400 0.678800
vt 0.495900 0.708600
vt 0.531100 0.692600
vt 0.550200 0.681600
vt 0.439300 0.090200
vt 0.712600 0.214000
vt 0.673700 0.210700
vt 0.700000 0.761500
vt 0.140500 0.798400
vt 0.152800 0.792300
vt 0.261400 0.147800
vt 0.181600 0.322000
vt 0.217600 0.312900
vt 0.183700 0.291100
vt 0.201900 0.766000
vt 0.185300 0.737500
vt 0.176600 0.743600
vt 0.192100 0.775000
vt 0.276700 0.318000
vt 0.251300 0.319900
vt 0.525900 0.171500
vt 0.566000 0.183500
vt 0.605800 0.195800
vt 0.627100 0.204000
vt 0.282600 0.718100
vt 0.474200 0.092100
vt 0.340000 0.681000
vt 0.272100 0.649300
vt 0.277900 0.685600
vt 0.387600 0.154500
vt 0.355400 0.156800
vt 0.399900 0.747900
vt 0.388000 0.715300
vt 0.443700 0.206000
vt 0.438100 0.239100
vt 0.489700 0.164000
vt 0.296300 0.082900
vt 0.305800 0.112400
vt 0.283300 0.137500
vt 0.310400 0.124500
vt 0.618300 0.063100
vt 0.597900 0.061000
vt 0.061900 0.083500
vt 0.069200 0.083400
vt 0.069100 0.081200
vt 0.061900 0.081500
vt 0.076700 0.083300
vt 0.076700 0.081100
vt 0.084300 0.083300
vt 0.084300 0.081300
vt 0.090600 0.083200
vt 0.090600 0.081900
vt 0.046800 0.083600
vt 0.039200 0.083600
vt 0.039000 0.085300
vt 0.046600 0.085300
vt 0.033200 0.083600
vt 0.033000 0.085000
vt 0.039200 0.081900
vt 0.039200 0.077800
vt 0.032300 0.078400
vt 0.033300 0.082100
vt 0.047000 0.081800
vt 0.047300 0.077700
vt 0.093300 0.079900
vt 0.085100 0.077800
vt 0.077400 0.077300
vt 0.069500 0.077300
vt 0.061900 0.077500
vt 0.025700 0.080900
vt 0.028600 0.082400
vt 0.028500 0.083700
vt 0.028400 0.084900
vt 0.054900 0.081400
vt 0.054800 0.083300
vt 0.061900 0.085500
vt 0.069400 0.085500
vt 0.076800 0.085400
vt 0.084500 0.085200
vt 0.090500 0.084400
vt 0.069200 0.107800
vt 0.076700 0.107700
vt 0.076700 0.105500
vt 0.069100 0.105600
vt 0.084300 0.107700
vt 0.084300 0.105700
vt 0.090600 0.107700
vt 0.090700 0.106300
vt 0.085100 0.102200
vt 0.077400 0.101700
vt 0.069500 0.101700
vt 0.061900 0.101900
vt 0.061900 0.105900
vt 0.061900 0.095700
vt 0.069200 0.095600
vt 0.069100 0.093400
vt 0.061900 0.093700
vt 0.076700 0.095500
vt 0.076700 0.093300
vt 0.084300 0.095500
vt 0.084300 0.093500
vt 0.090600 0.095400
vt 0.090600 0.094100
vt 0.039200 0.094100
vt 0.039200 0.090000
vt 0.032300 0.090600
vt 0.033300 0.094300
vt 0.085100 0.090000
vt 0.077400 0.089500
vt 0.025700 0.093100
vt 0.028600 0.094700
vt 0.054900 0.093600
vt 0.054800 0.095500
vt 0.047000 0.094000
vt 0.046800 0.095800
vt 0.039200 0.095900
vt 0.033200 0.095800
vt 0.028500 0.095900
vt 0.025000 0.095900
vt 0.405900 0.226700
vt 0.370600 0.236500
vt 0.467700 0.277000
vt 0.499000 0.293300
vt 0.766000 0.423000
vt 0.340800 0.471500
vt 0.258200 0.375400
vt 0.260300 0.347400
vt 0.244800 0.343900
vt 0.080200 0.149400
vt 0.095200 0.163500
vt 0.550200 0.053000
vt 0.555400 0.087500
vt 0.305000 0.233100
vt 0.319200 0.234000
vt 0.295100 0.231200
vt 0.341400 0.234000
vt 0.369900 0.681000
vt 0.238100 0.315800
vt 0.231600 0.376100
vt 0.339300 0.112100
vt 0.220400 0.342900
vt 0.525400 0.613400
vt 0.712800 0.038700
vt 0.096900 0.674900
vt 0.531000 0.306900
vt 0.565900 0.319800
vt 0.412400 0.197900
vt 0.360600 0.501400
vt 0.371000 0.532000
vt 0.148700 0.392600
vt 0.298700 0.311500
vt 0.286000 0.290100
vt 0.512100 0.096900
vt 0.554900 0.104200
vt 0.249300 0.187400
vt 0.573900 0.668200
vt 0.531700 0.656200
vt 0.458200 0.572800
vt 0.491500 0.592500
vt 0.846100 0.075400
vt 0.814600 0.678600
vt 0.792500 0.653300
vt 0.486300 0.669000
vt 0.503100 0.640500
vt 0.519800 0.477800
vt 0.333400 0.259000
vt 0.275600 0.270600
vt 0.408600 0.763100
vt 0.467900 0.708000
vt 0.668000 0.442400
vt 0.327100 0.278400
vt 0.461100 0.306800
vt 0.309900 0.254900
vt 0.275800 0.174600
vt 0.302700 0.272500
vt 0.447300 0.335700
vt 0.663300 0.608600
vt 0.686000 0.580900
vt 0.719600 0.310300
vt 0.675700 0.306000
vt 0.612100 0.310800
vt 0.377100 0.681300
vt 0.368500 0.640100
vt 0.367900 0.582900
vt 0.373200 0.582800
vt 0.373700 0.640400
vt 0.379100 0.541500
vt 0.613400 0.317900
vt 0.676600 0.311500
vt 0.719800 0.317800
vt 0.756000 0.324400
vt 0.196900 0.242900
vt 0.727800 0.779800
vt 0.113700 0.635800
vt 0.252700 0.581100
vt 0.189300 0.264300
vt 0.672500 0.057200
vt 0.189400 0.393600
vt 0.183700 0.358300
vt 0.262400 0.603100
vt 0.421700 0.155300
vt 0.455800 0.159100
vt 0.325500 0.161200
vt 0.297600 0.167500
vt 0.672100 0.036500
vt 0.617400 0.038300
vt 0.097300 0.631100
vt 0.096600 0.579600
s 1
usemtl BodySuit
f 183/1/1 199/2/1 185/3/1 169/4/1
f 214/5/2 213/6/2 132/7/2 148/8/2
f 200/9/3 24/10/3 21/11/3 5/12/3
f 155/13/4 139/14/4 38/15/4 39/16/4
f 202/17/5 6/18/5 189/19/5 187/20/5
f 217/21/6 216/22/6 180/23/6 196/24/6
f 152/25/7 168/26/7 172/27/7 156/28/7
f 203/29/8 9/30/8 15/31/8 17/32/8
f 142/33/9 141/34/9 157/35/9 158/36/9
f 149/37/10 165/38/10 166/39/10 150/40/10
f 112/41/11 218/42/11 232/43/11 106/44/11
f 37/45/12 33/46/12 94/47/12 225/48/12
f 55/49/13 58/50/13 35/51/13 34/52/13
f 48/53/14 53/54/14 52/55/14 47/56/14
f 47/56/15 52/55/15 51/57/15 46/58/15
f 34/52/16 35/51/16 56/59/16 50/60/16
f 42/61/17 43/62/17 49/63/17 48/53/17
f 42/61/18 48/53/18 47/56/18 41/64/18
f 41/64/19 47/56/19 46/58/19 40/65/19
f 45/66/20 40/65/20 46/58/20 55/49/20
f 34/52/21 31/67/21 45/66/21 55/49/21
f 31/67/22 34/52/22 50/60/22 44/68/22
f 58/50/23 55/49/23 46/58/23 51/57/23
f 67/69/24 77/70/24 76/71/24 80/72/24
f 77/70/25 67/69/25 81/73/25 75/74/25
f 64/75/26 83/76/26 82/77/26 74/78/26
f 80/72/27 76/71/27 74/78/27 82/77/27
f 87/79/28 85/80/28 84/81/28 86/82/28
f 210/83/29 209/84/29 85/80/29 87/79/29
f 88/85/30 89/86/30 52/55/30 53/54/30
f 91/87/31 223/88/31 224/89/31 90/90/31
f 221/91/32 211/92/32 102/93/32 220/94/32
f 227/95/33 228/96/33 96/97/33 95/98/33
f 218/42/34 219/99/34 101/100/34 98/101/34
f 110/102/35 114/103/35 229/104/35 228/96/35
f 1/105/36 202/17/36 187/20/36 30/106/36
f 128/107/37 144/108/37 147/109/37 131/110/37
f 6/111/38 7/112/38 190/113/38 189/114/38
f 125/115/39 123/116/39 139/14/39 141/117/39
f 122/118/40 138/119/40 144/108/40 128/107/40
f 201/120/41 200/9/41 184/121/41 185/3/41
f 39/16/42 29/122/42 171/123/42 155/13/42
f 158/36/43 174/124/43 178/125/43 162/126/43
f 228/96/44 227/95/44 109/127/44 110/102/44
f 134/128/45 133/129/45 149/37/45 150/40/45
f 111/130/46 106/44/46 232/43/46 231/131/46
f 217/21/47 27/132/47 205/133/47 197/134/47
f 115/135/48 116/136/48 220/94/48 219/99/48
f 105/137/49 121/138/49 120/139/49 104/140/49
f 207/141/50 206/142/50 25/143/50 23/144/50
f 131/110/51 115/135/51 112/41/51 128/107/51
f 154/145/52 138/119/52 143/146/52 159/147/52
f 183/1/53 182/148/53 198/149/53 199/2/53
f 200/9/54 5/12/54 188/150/54 184/121/54
f 207/141/55 23/144/55 22/151/55 201/120/55
f 11/152/56 18/153/56 16/154/56 10/155/56
f 113/156/57 111/130/57 231/131/57 230/157/57
f 126/158/58 142/33/58 146/159/58 130/160/58
f 226/161/59 37/45/59 32/162/59 107/163/59
f 192/164/60 9/30/60 203/29/60 195/165/60
f 199/2/61 198/149/61 206/142/61 207/141/61
f 204/166/62 27/132/62 217/21/62 196/24/62
f 183/1/63 167/167/63 166/39/63 182/148/63
f 114/103/64 130/160/64 129/168/64 113/156/64
f 60/169/65 59/170/65 62/171/65 63/172/65
f 63/172/66 62/171/66 65/173/66 66/174/66
f 232/43/67 92/175/67 97/176/67 231/131/67
f 75/74/68 81/73/68 86/82/68 84/81/68
f 104/140/69 224/89/69 223/88/69 105/137/69
f 134/128/70 118/177/70 117/178/70 133/129/70
f 113/156/71 230/157/71 229/104/71 114/103/71
f 25/143/72 206/142/72 205/179/72 19/180/72
f 204/166/73 203/29/73 17/32/73 20/181/73
f 213/6/74 214/5/74 149/182/74 133/183/74
f 157/184/75 155/13/75 171/123/75 173/185/75
f 96/97/76 66/174/76 65/173/76 95/98/76
f 138/119/77 122/118/77 127/186/77 143/146/77
f 216/22/78 217/21/78 197/134/78 181/187/78
f 171/123/79 29/122/79 30/106/79 187/20/79
f 108/188/80 225/48/80 224/89/80 104/140/80
f 154/145/81 159/147/81 175/189/81 170/190/81
f 132/7/82 116/136/82 115/135/82 131/110/82
f 227/191/83 226/161/83 107/163/83 109/192/83
f 171/123/84 187/20/84 189/19/84 173/185/84
f 130/160/85 114/103/85 110/102/85 126/158/85
f 119/193/86 135/194/86 121/138/86 105/137/86
f 159/147/87 161/195/87 177/196/87 175/189/87
f 167/167/88 151/197/88 150/40/88 166/39/88
f 30/106/89 29/122/89 172/27/89 188/150/89
f 61/198/90 64/75/90 74/78/90 68/199/90
f 76/71/91 71/200/91 68/199/91 74/78/91
f 235/201/92 54/202/92 49/63/92 234/203/92
f 77/70/93 72/204/93 71/200/93 76/71/93
f 75/74/94 70/205/94 72/204/94 77/70/94
f 54/202/95 53/54/95 48/53/95 49/63/95
f 57/206/96 88/85/96 53/54/96 54/202/96
f 209/84/97 208/207/97 79/208/97 85/80/97
f 85/80/98 79/208/98 78/209/98 84/81/98
f 73/210/99 75/74/99 84/81/99 78/209/99
f 73/210/100 69/211/100 70/205/100 75/74/100
f 43/62/101 233/212/101 234/203/101 49/63/101
f 61/198/102 60/169/102 63/172/102 64/75/102
f 64/75/103 63/172/103 66/174/103 83/76/103
f 226/161/104 227/191/104 95/213/104 93/214/104
f 194/215/105 193/216/105 177/196/105 178/125/105
f 181/187/106 165/217/106 215/218/106 216/22/106
f 215/218/107 214/5/107 148/8/107 164/219/107
f 144/108/108 160/220/108 163/221/108 147/109/108
f 21/11/109 2/222/109 1/105/109 5/12/109
f 115/135/110 219/99/110 218/42/110 112/41/110
f 108/188/111 32/162/111 37/45/111 225/48/111
f 186/223/112 170/190/112 175/189/112 191/224/112
f 216/22/113 215/218/113 164/219/113 180/23/113
f 212/225/114 116/136/114 132/7/114 213/6/114
f 100/226/115 229/104/115 230/157/115 99/227/115
f 62/228/116 50/60/116 56/59/116 65/229/116
f 59/230/117 44/68/117 50/60/117 62/228/117
f 207/141/118 201/120/118 185/3/118 199/2/118
f 67/69/119 92/175/119 98/101/119 81/73/119
f 92/175/120 67/69/120 80/72/120 97/176/120
f 97/176/121 80/72/121 82/77/121 99/227/121
f 83/76/122 100/226/122 99/227/122 82/77/122
f 66/174/123 96/97/123 100/226/123 83/76/123
f 174/124/124 173/231/124 189/114/124 190/113/124
f 56/59/125 93/214/125 95/213/125 65/229/125
f 35/51/126 33/46/126 93/214/126 56/59/126
f 33/46/127 35/51/127 58/50/127 94/47/127
f 51/57/128 90/90/128 94/47/128 58/50/128
f 52/55/129 91/87/129 90/90/129 51/57/129
f 89/86/130 103/232/130 91/87/130 52/55/130
f 211/92/131 210/83/131 87/79/131 102/93/131
f 102/93/132 87/79/132 86/82/132 101/100/132
f 101/100/133 86/82/133 81/73/133 98/101/133
f 106/44/134 122/118/134 128/107/134 112/41/134
f 106/44/135 111/130/135 127/186/135 122/118/135
f 201/120/136 22/151/136 24/10/136 200/9/136
f 168/26/137 184/121/137 188/150/137 172/27/137
f 12/233/138 15/31/138 9/30/138 4/234/138
f 126/158/139 125/235/139 141/34/139 142/33/139
f 111/130/140 113/156/140 129/168/140 127/186/140
f 170/190/141 186/223/141 192/164/141 176/236/141
f 196/24/142 180/23/142 179/237/142 195/165/142
f 148/8/143 132/7/143 131/110/143 147/109/143
f 176/236/144 192/164/144 195/165/144 179/237/144
f 169/4/145 185/3/145 184/121/145 168/26/145
f 27/132/146 28/238/146 19/239/146 205/133/146
f 5/12/147 1/105/147 30/106/147 188/150/147
f 174/124/148 190/113/148 194/215/148 178/125/148
f 109/192/149 107/163/149 123/116/149 125/115/149
f 162/126/150 178/125/150 177/196/150 161/195/150
f 160/220/151 176/236/151 179/237/151 163/221/151
f 39/16/152 38/15/152 140/240/152 156/28/152
f 136/241/153 140/240/153 124/242/153 120/139/153
f 164/219/154 148/8/154 147/109/154 163/221/154
f 157/35/155 173/231/155 174/124/155 158/36/155
f 167/167/156 153/243/156 137/244/156 151/197/156
f 220/94/157 102/93/157 101/100/157 219/99/157
f 228/96/158 229/104/158 100/226/158 96/97/158
f 90/90/159 224/89/159 225/48/159 94/47/159
f 143/146/160 127/186/160 129/168/160 145/245/160
f 130/160/161 146/159/161 145/245/161 129/168/161
f 12/233/162 4/234/162 8/246/162 14/247/162
f 11/152/163 10/155/163 193/216/163 194/215/163
f 105/137/164 223/88/164 222/248/164 119/193/164
f 191/224/165 175/189/165 177/196/165 193/216/165
f 154/145/166 170/190/166 176/236/166 160/220/166
f 167/167/167 183/1/167 169/4/167 153/243/167
f 4/234/168 9/30/168 192/164/168 186/223/168
f 193/216/169 10/155/169 8/246/169 191/224/169
f 154/145/170 160/220/170 144/108/170 138/119/170
f 203/29/171 204/166/171 196/24/171 195/165/171
f 158/36/172 162/126/172 146/159/172 142/33/172
f 26/249/173 202/17/173 1/105/173 2/222/173
f 153/243/174 152/25/174 136/241/174 137/244/174
f 13/250/175 18/153/175 11/152/175 7/112/175
f 190/113/176 7/112/176 11/152/176 194/215/176
f 214/5/177 215/218/177 165/217/177 149/182/177
f 180/23/178 164/219/178 163/221/178 179/237/178
f 32/162/179 36/251/179 123/116/179 107/163/179
f 13/250/180 7/112/180 6/111/180 3/252/180
f 159/147/181 143/146/181 145/245/181 161/195/181
f 36/251/182 38/15/182 139/14/182 123/116/182
f 38/15/183 36/251/183 124/242/183 140/240/183
f 135/194/184 151/197/184 137/244/184 121/138/184
f 141/117/185 139/14/185 155/13/185 157/184/185
f 110/102/186 109/127/186 125/235/186 126/158/186
f 135/194/187 119/193/187 118/177/187 134/128/187
f 197/253/188 205/179/188 206/142/188 198/149/188
f 232/43/189 218/42/189 98/101/189 92/175/189
f 33/46/190 37/45/190 226/161/190 93/214/190
f 135/194/191 134/128/191 150/40/191 151/197/191
f 104/140/192 120/139/192 124/242/192 108/188/192
f 162/126/193 161/195/193 145/245/193 146/159/193
f 103/232/194 222/248/194 223/88/194 91/87/194
f 191/224/195 8/246/195 4/234/195 186/223/195
f 133/183/196 117/254/196 212/225/196 213/6/196
f 116/136/197 212/225/197 221/91/197 220/94/197
f 137/244/198 136/241/198 120/139/198 121/138/198
f 153/243/199 169/4/199 168/26/199 152/25/199
f 231/131/200 97/176/200 99/227/200 230/157/200
f 181/255/201 197/253/201 198/149/201 182/148/201
f 29/122/202 39/16/202 156/28/202 172/27/202
f 3/256/203 6/18/203 202/17/203 26/249/203
f 14/247/204 8/246/204 10/155/204 16/154/204
f 27/132/205 204/166/205 20/181/205 28/238/205
f 32/162/206 108/188/206 124/242/206 36/251/206
f 165/38/207 181/255/207 182/148/207 166/39/207
f 152/25/208 156/28/208 140/240/208 136/241/208
usemtl Shoes
f 351/257/209 349/258/209 387/259/209 388/260/209
f 346/261/210 344/262/210 409/263/210 410/264/210
f 351/257/211 428/265/211 427/266/211 349/258/211
f 467/267/212 438/268/212 565/269/212 586/270/212
f 504/271/213 434/272/213 563/273/213 618/274/213
f 435/275/214 632/276/214 633/277/214 531/278/214
f 367/279/215 452/280/215 453/281/215 362/282/215
f 471/283/216 386/284/216 385/285/216 472/286/216
f 479/287/217 417/288/217 555/289/217 599/290/217
f 511/291/218 528/292/218 423/293/218 411/294/218
f 363/295/219 361/296/219 381/297/219 382/298/219
f 399/299/220 526/300/220 591/301/220 474/302/220
f 447/303/221 570/304/221 620/305/221 506/306/221
f 449/307/222 571/308/222 566/309/222 441/310/222
f 393/311/223 405/312/223 551/313/223 545/314/223
f 449/307/224 564/315/224 619/316/224 508/317/224
f 365/318/225 485/319/225 436/320/225 360/321/225
f 364/322/226 356/323/226 436/320/226 485/319/226
f 359/324/227 358/325/227 450/326/227 451/327/227
f 343/328/228 341/329/228 379/330/228 380/331/228
f 551/313/229 406/332/229 394/333/229 545/314/229
f 560/334/230 627/335/230 626/336/230 585/337/230
f 475/338/231 597/339/231 549/340/231 401/341/231
f 403/342/232 550/343/232 544/344/232 392/345/232
f 367/279/233 362/282/233 437/346/233 488/347/233
f 611/348/234 535/349/234 578/350/234 623/351/234
f 365/318/235 360/321/235 451/327/235 450/326/235
f 422/352/236 464/353/236 574/354/236 524/355/236
f 398/356/237 547/357/237 597/339/237 475/338/237
f 533/358/238 448/359/238 509/360/238 609/361/238
f 566/309/239 571/308/239 448/359/239 440/362/239
f 633/277/240 513/363/240 588/364/240 635/365/240
f 613/366/241 543/367/241 406/332/241 499/368/241
f 433/369/230 466/370/230 573/371/230 523/372/230
f 631/373/242 637/374/242 573/375/242 510/376/242
f 605/377/243 623/351/243 578/350/243 529/378/243
f 397/379/244 476/380/244 597/339/244 547/357/244
f 383/381/245 524/355/245 574/354/245 454/382/245
f 518/383/246 438/268/246 467/267/246 576/384/246
f 626/336/230 629/385/230 562/386/230 585/337/230
f 445/387/247 562/388/247 600/389/247 483/390/247
f 628/391/230 561/392/230 600/393/230 630/394/230
f 624/395/248 592/396/248 530/397/248 606/398/248
f 413/399/249 512/400/250 587/401/250 477/402/251
f 412/403/252 536/404/252 579/405/252 463/406/252
f 391/407/253 518/383/253 576/384/253 459/408/253
f 445/409/254 569/410/254 586/270/254 468/411/254
f 598/412/255 553/413/255 413/399/249 477/402/251
f 592/396/256 587/414/256 512/415/256 530/397/256
f 401/416/257 460/417/257 580/418/257 541/419/257
f 364/322/258 373/420/258 374/421/258 356/323/258
f 355/422/259 430/423/259 429/424/259 353/425/259
f 519/426/260 393/427/260 474/302/260 591/301/260
f 346/261/261 382/298/261 381/297/261 344/262/261
f 350/428/262 348/429/262 427/266/262 428/265/262
f 611/430/263 386/284/263 471/283/263 625/431/263
f 519/432/264 533/358/264 405/312/264 393/311/264
f 617/433/265 559/434/265 426/435/265 502/436/265
f 606/398/266 530/397/266 425/437/267 503/438/268
f 391/439/269 404/440/269 532/441/269 518/442/269
f 458/443/270 581/444/270 548/445/270 400/446/270
f 592/396/271 534/447/271 522/448/271 587/414/271
f 373/420/272 457/449/272 456/450/272 374/421/272
f 383/381/273 454/382/273 455/451/273 384/452/273
f 535/349/274 634/453/274 637/374/274 578/350/274
f 458/443/275 400/446/275 540/454/275 579/405/275
f 456/450/276 623/455/276 605/456/276 374/421/276
f 456/450/277 386/457/277 611/458/277 623/455/277
f 433/369/230 523/372/230 588/459/230 481/460/230
f 375/461/278 469/462/278 470/463/278 376/464/278
f 396/465/279 460/417/279 582/466/279 546/467/279
f 534/447/280 577/468/280 572/469/280 522/448/280
f 400/446/281 548/445/281 596/470/281 473/471/281
f 479/287/282 589/472/282 516/473/282 417/288/282
f 622/474/283 577/468/283 534/447/283 610/475/283
f 471/283/284 472/286/284 377/476/284 378/477/284
f 373/420/285 514/478/285 575/479/285 457/449/285
f 457/449/286 575/479/286 525/480/286 385/481/286
f 475/338/287 401/341/287 541/482/287 595/483/287
f 445/387/288 468/484/288 585/485/288 562/388/288
f 476/380/289 402/486/289 549/340/289 597/339/289
f 470/463/290 384/452/290 610/487/290 624/488/290
f 566/489/291 440/490/291 482/491/291 601/492/291
f 401/416/292 549/493/292 582/466/292 460/417/292
f 394/494/293 537/495/293 594/496/293 473/471/293
f 468/484/294 439/497/294 560/498/294 585/485/294
f 435/275/295 531/278/295 607/499/295 505/500/295
f 571/308/296 449/307/296 508/317/296 621/501/296
f 394/333/297 406/332/297 543/367/297 537/502/297
f 425/437/298 530/397/298 512/415/298 413/503/298
f 553/504/299 559/434/299 425/437/299 413/503/299
f 631/373/300 636/505/301 434/272/302 529/378/302
f 543/367/303 426/435/303 414/506/303 537/502/303
f 455/451/304 454/382/304 371/507/304 372/508/304
f 498/509/305 346/261/305 410/264/305 615/510/305
f 424/511/306 542/512/306 536/513/306 412/514/306
f 498/515/307 405/312/307 533/358/307 609/361/307
f 496/516/308 403/342/308 542/512/308 612/517/308
f 441/518/309 566/489/309 601/492/309 483/519/309
f 509/520/310 363/295/310 382/298/310 609/521/310
f 462/522/311 572/523/312 511/524/313 411/525/313
f 550/343/314 403/342/314 496/516/314 614/526/314
f 436/320/315 356/323/315 504/527/315 618/528/315
f 626/336/230 627/335/230 431/529/230 466/370/230
f 635/365/316 588/364/316 523/530/316 634/531/316
f 630/394/230 600/393/230 562/386/230 629/385/230
f 528/292/317 577/468/317 622/474/317 604/532/317
f 356/323/318 374/421/318 605/456/318 504/527/318
f 502/533/319 354/534/319 430/423/319 617/535/319
f 611/536/320 625/537/320 593/538/320 535/539/320
f 480/540/321 599/290/321 555/289/321 418/541/321
f 382/298/322 346/261/322 498/509/322 609/521/322
f 608/542/323 380/331/323 359/324/323 507/543/323
f 620/544/324 451/327/324 360/321/324 506/545/324
f 633/277/325 635/365/325 593/538/325 531/278/325
f 607/499/326 531/278/326 593/538/326 625/537/326
f 471/283/327 378/477/327 607/546/327 625/431/327
f 497/547/328 404/440/328 550/343/328 614/526/328
f 357/548/329 437/346/329 619/549/329 505/550/329
f 433/369/230 481/460/230 630/394/230 629/385/230
f 544/344/330 550/343/330 404/440/330 391/439/330
f 351/257/331 388/260/331 612/551/331 501/552/331
f 472/286/332 590/553/332 517/554/332 377/476/332
f 504/271/333 605/377/333 529/378/333 434/272/333
f 343/328/334 408/555/334 407/556/334 341/329/334
f 497/557/335 343/328/335 380/331/335 608/542/335
f 552/558/336 558/559/336 424/511/336 412/514/336
f 558/559/337 423/293/337 500/560/337 616/561/337
f 447/303/338 439/562/338 565/563/338 570/304/338
f 271/564/339 272/565/339 244/566/339 242/567/339
f 272/565/340 273/568/340 246/569/340 244/566/340
f 273/568/341 274/570/341 248/571/341 246/569/341
f 274/570/342 275/572/342 250/573/342 248/571/342
f 276/574/343 277/575/343 255/576/343 253/577/343
f 277/575/344 278/578/344 257/579/344 255/576/344
f 254/580/345 265/581/345 266/582/345 256/583/345
f 252/584/346 264/585/346 265/581/346 254/580/346
f 250/573/347 263/586/347 262/587/347 248/571/347
f 248/571/348 262/587/348 261/588/348 246/569/348
f 246/569/349 261/588/349 260/589/349 244/566/349
f 244/566/350 260/589/350 259/590/350 242/567/350
f 266/582/351 269/591/351 267/592/351 256/583/351
f 278/578/352 279/593/352 268/594/352 257/579/352
f 241/595/353 270/596/353 271/564/353 242/567/353
f 243/597/354 245/598/354 272/565/354 271/564/354
f 245/598/355 247/599/355 273/568/355 272/565/355
f 247/599/356 249/600/356 274/570/356 273/568/356
f 249/600/357 251/601/357 275/572/357 274/570/357
f 241/595/358 252/584/358 276/574/358 270/596/358
f 252/584/359 254/580/359 277/575/359 276/574/359
f 254/580/360 256/583/360 278/578/360 277/575/360
f 256/583/361 267/592/361 279/593/361 278/578/361
f 308/602/362 309/603/362 293/604/362 292/605/362
f 309/603/363 310/606/363 294/607/363 293/604/363
f 310/606/364 311/608/364 296/609/364 294/607/364
f 294/607/365 304/610/365 303/611/365 293/604/365
f 293/604/366 303/611/366 302/612/366 292/605/366
f 292/605/367 302/612/367 301/613/367 291/614/367
f 330/615/368 331/616/368 314/617/368 313/618/368
f 331/616/369 332/619/369 315/620/369 314/617/369
f 332/619/370 333/621/370 316/622/370 315/620/370
f 333/621/371 334/623/371 317/624/371 316/622/371
f 320/625/372 325/626/373 326/627/374 321/628/374
f 316/622/375 324/629/375 323/630/375 315/620/375
f 326/627/376 328/631/376 327/632/376 321/628/376
f 312/633/377 329/634/377 330/615/377 313/618/377
f 312/633/378 319/635/378 335/636/378 329/634/378
f 319/635/379 320/625/379 336/637/379 335/636/379
f 320/625/380 321/628/380 337/638/380 336/637/380
f 321/628/381 327/632/381 338/639/381 337/638/381
f 327/632/382 328/631/382 339/640/382 338/639/382
f 592/396/383 624/395/383 610/475/383 534/447/383
f 340/641/384 396/465/384 546/467/384 407/556/384
f 340/641/385 387/259/385 538/642/385 396/465/385
f 363/295/386 453/281/386 452/280/386 361/296/386
f 350/428/387 372/508/387 371/507/387 348/429/387
f 341/329/388 395/643/388 520/644/388 379/330/388
f 341/329/389 407/556/389 546/467/389 395/643/389
f 565/269/390 439/645/390 468/411/390 586/270/390
f 344/262/391 397/379/391 547/357/391 409/263/391
f 344/262/392 381/297/392 521/646/392 397/379/392
f 345/647/393 398/356/393 539/648/393 389/649/393
f 345/647/394 409/263/394 547/357/394 398/356/394
f 561/650/395 441/651/395 483/390/395 600/389/395
f 565/563/396 438/652/396 446/653/396 570/304/396
f 399/299/397 459/408/397 576/384/397 526/300/397
f 355/422/398 353/425/398 375/461/398 376/464/398
f 348/429/399 415/654/399 554/655/399 427/266/399
f 348/429/400 371/507/400 515/656/400 415/654/400
f 349/258/401 416/657/401 538/642/401 387/259/401
f 349/258/402 427/266/402 554/655/402 416/657/402
f 366/658/403 488/347/403 437/346/403 357/548/403
f 352/659/404 418/541/404 555/289/404 429/424/404
f 352/659/405 389/649/405 539/648/405 418/541/405
f 347/660/406 410/264/406 409/263/406 345/647/406
f 353/425/407 417/288/407 516/473/407 375/461/407
f 353/425/408 429/424/408 555/289/408 417/288/408
f 501/661/409 424/511/409 558/559/409 616/561/409
f 503/438/268 425/437/267 559/434/410 617/433/410
f 366/658/411 357/548/411 378/477/411 377/476/411
f 354/534/412 390/662/412 389/649/412 352/659/412
f 420/663/413 463/406/413 579/405/413 540/454/413
f 636/505/301 631/373/300 510/376/414 431/664/414
f 632/276/415 432/665/415 513/363/415 633/277/415
f 358/325/416 442/666/416 567/667/416 450/326/416
f 358/325/417 379/330/417 520/644/417 442/666/417
f 354/534/418 352/659/418 429/424/418 430/423/418
f 342/668/419 340/641/419 407/556/419 408/555/419
f 361/296/420 443/669/420 521/646/420 381/297/420
f 361/296/421 452/280/421 568/670/421 443/669/421
f 406/332/422 551/313/422 615/671/422 499/368/422
f 447/303/423 506/306/423 618/274/423 563/273/423
f 480/540/424 421/672/424 557/673/424 599/290/424
f 347/660/425 345/647/425 389/649/425 390/662/425
f 383/381/426 469/462/426 589/472/426 524/355/426
f 359/324/427 380/331/427 379/330/427 358/325/427
f 446/653/428 532/441/428 608/674/428 507/675/428
f 532/441/429 404/440/429 497/547/429 608/674/429
f 440/490/430 519/426/430 591/301/430 482/491/430
f 480/540/431 595/483/431 541/482/431 421/672/431
f 610/487/432 384/452/432 455/451/432 622/676/432
f 462/522/433 411/525/433 552/677/433 583/678/433
f 396/465/434 538/642/434 580/418/434 460/417/434
f 537/495/435 414/679/435 478/680/435 594/496/435
f 637/374/436 634/453/436 523/681/436 573/375/436
f 420/663/437 540/454/437 594/496/437 478/680/437
f 481/460/230 588/459/230 513/682/230 432/683/230
f 375/461/438 516/473/438 589/472/438 469/462/438
f 419/684/439 462/522/439 583/678/439 556/685/439
f 596/470/440 545/686/440 394/494/440 473/471/440
f 416/657/441 465/687/441 580/418/441 538/642/441
f 480/540/442 418/541/442 539/648/442 595/483/442
f 420/663/443 556/685/443 583/678/443 463/406/443
f 422/688/444 524/355/444 589/472/444 479/287/444
f 472/286/445 385/285/445 525/689/445 590/553/445
f 393/427/446 545/686/446 596/470/446 474/302/446
f 457/449/447 385/481/447 386/457/447 456/450/447
f 420/663/448 478/680/448 598/412/448 556/685/448
f 419/684/449 477/402/449 587/401/449 522/690/449
f 342/668/450 388/260/450 387/259/450 340/641/450
f 444/691/451 467/267/451 586/270/451 569/410/451
f 502/436/452 426/435/452 543/367/452 613/366/452
f 446/653/453 438/652/453 518/442/453 532/441/453
f 619/316/454 564/315/454 435/275/454 505/500/454
f 419/684/455 556/685/455 598/412/455 477/402/455
f 421/692/456 541/419/456 580/418/456 465/687/456
f 578/350/457 637/374/457 631/373/457 529/378/457
f 626/336/230 466/370/230 433/369/230 629/385/230
f 395/643/458 546/467/458 582/466/458 461/693/458
f 416/657/459 554/655/459 584/694/459 465/687/459
f 455/451/460 372/508/460 604/695/460 622/676/460
f 421/692/461 465/687/461 584/694/461 557/696/461
f 415/654/462 464/353/462 584/694/462 554/655/462
f 422/352/463 557/696/463 584/694/463 464/353/463
f 461/693/464 582/466/464 549/493/464 402/697/464
f 422/688/465 479/287/465 599/290/465 557/673/465
f 552/677/466 412/403/466 463/406/466 583/678/466
f 419/684/467 522/690/467 572/523/312 462/522/311
f 458/443/468 392/698/468 544/699/469 581/444/470
f 399/299/471 548/445/471 581/444/471 459/408/471
f 398/356/472 475/338/472 595/483/472 539/648/472
f 383/381/473 384/452/473 470/463/473 469/462/473
f 635/365/474 634/531/474 535/539/474 593/538/474
f 415/654/475 515/656/475 574/354/475 464/353/475
f 400/446/476 473/471/476 594/496/476 540/454/476
f 364/322/477 484/700/477 514/478/477 373/420/477
f 364/322/478 485/319/478 602/701/478 484/700/478
f 365/318/479 486/702/479 602/701/479 485/319/479
f 365/318/480 450/326/480 567/667/480 486/702/480
f 366/658/481 377/476/481 517/554/481 487/703/481
f 366/658/482 487/703/482 603/704/482 488/347/482
f 367/279/483 488/347/483 603/704/483 489/705/483
f 367/279/484 489/705/484 568/670/484 452/280/484
f 368/706/485 489/705/485 603/704/485 491/707/485
f 368/706/486 490/708/486 568/670/486 489/705/486
f 369/709/487 493/710/487 602/701/487 486/702/487
f 370/711/488 484/700/488 602/701/488 493/710/488
f 370/711/489 494/712/489 514/478/489 484/700/489
f 399/299/490 474/302/490 596/470/490 548/445/490
f 528/292/491 511/291/491 572/469/491 577/468/491
f 481/460/230 432/683/230 628/391/230 630/394/230
f 470/463/492 624/488/492 606/713/492 376/464/492
f 414/679/493 553/413/493 598/412/493 478/680/493
f 371/507/494 454/382/494 574/354/494 515/656/494
f 581/444/470 544/699/469 391/407/495 459/408/495
f 431/529/230 510/714/230 573/371/230 466/370/230
f 639/715/496 632/276/496 435/275/496 564/315/496
f 449/307/497 441/310/497 639/715/497 564/315/497
f 551/313/498 405/312/498 498/515/498 615/671/498
f 411/294/499 423/293/499 558/559/499 552/558/499
f 426/435/500 559/434/500 553/504/500 414/506/500
f 448/359/501 533/358/501 519/432/501 440/362/501
f 621/716/502 453/281/502 363/295/502 509/520/502
f 445/409/503 483/519/503 601/492/503 569/410/503
f 446/653/504 507/675/504 620/305/504 570/304/504
f 536/404/505 392/698/505 458/443/505 579/405/505
f 617/535/506 430/423/506 355/422/506 503/717/506
f 434/272/507 636/505/507 638/718/507 563/273/507
f 482/491/508 444/691/508 569/410/508 601/492/508
f 444/691/509 526/300/509 576/384/509 467/267/509
f 482/491/510 591/301/510 526/300/510 444/691/510
f 499/719/511 347/660/511 390/662/511 613/720/511
f 508/721/512 362/282/512 453/281/512 621/716/512
f 496/722/513 342/668/513 408/555/513 614/723/513
f 614/723/514 408/555/514 343/328/514 497/557/514
f 390/662/515 354/534/515 502/533/515 613/720/515
f 503/717/516 355/422/516 376/464/516 606/713/516
f 378/477/517 357/548/517 505/550/517 607/546/517
f 506/545/518 360/321/518 436/320/518 618/528/518
f 612/517/519 542/512/519 424/511/519 501/661/519
f 437/346/520 362/282/520 508/721/520 619/549/520
f 509/360/521 448/359/521 571/308/521 621/501/521
f 350/428/522 428/265/522 616/724/522 500/725/522
f 428/265/523 351/257/523 501/552/523 616/724/523
f 604/695/524 372/508/524 350/428/524 500/725/524
f 507/543/525 359/324/525 451/327/525 620/544/525
f 500/560/526 423/293/526 528/292/526 604/532/526
f 638/718/527 439/562/527 447/303/527 563/273/527
f 542/512/528 403/342/528 392/345/528 536/513/528
f 388/260/529 342/668/529 496/722/529 612/551/529
f 615/510/530 410/264/530 347/660/530 499/719/530
f 627/726/531 560/727/531 439/562/531 638/718/531
f 636/505/532 431/664/532 627/726/532 638/718/532
f 632/276/533 639/715/533 628/728/533 432/665/533
f 628/728/534 639/715/534 441/310/534 561/729/534
l 236 237
l 402 527
l 495 525
l 280 281
l 284 288
l 284 285
l 318 334
l 238 239
l 281 282
l 285 286
l 290 291
l 239 240
l 257 258
l 286 287
l 305 306
l 295 310
l 297 300
l 297 298
l 306 307
l 298 299
l 237 238
l 313 322
l 492 517
