# Blender 4.5.3 LTS
# www.blender.org
mtllib pie_izquierdo.mtl
o Worker.001
v -0.137588 0.456986 -0.136720
v -0.086637 0.732512 -0.001795
v -0.084521 0.686040 -0.039982
v 0.036274 0.067210 -0.235156
v 0.014061 0.009377 -0.235735
v 0.077349 0.023695 -0.179025
v 0.042913 0.077893 -0.070864
v 0.003209 0.067128 -0.245177
v 0.082581 0.072505 -0.172551
v 0.089354 0.069155 -0.134889
v 0.055239 0.079868 -0.081635
v 0.029531 0.071533 -0.068990
v 0.064639 0.081781 -0.094592
v 0.078941 0.077386 -0.107936
v 0.055922 0.030117 -0.061791
v 0.085673 0.027284 -0.142562
v 0.075953 0.043137 -0.077862
v 0.037815 0.031720 -0.067007
v 0.079686 0.044057 -0.096435
v 0.022882 0.027108 -0.074407
v 0.079861 0.035608 -0.119574
v -0.026557 0.022671 -0.119977
v 0.008278 0.019642 -0.080827
v -0.012525 0.005559 -0.239789
v -0.052546 0.010781 -0.204743
v -0.050477 0.018309 -0.180535
v -0.031092 0.005627 -0.230875
v -0.037108 0.023313 -0.150049
v 0.050834 0.019608 -0.219510
v -0.026593 0.072329 -0.096784
v -0.008684 0.018628 -0.091963
v 0.068372 0.286059 -0.213419
v 0.048435 0.163713 -0.230037
v 0.054671 0.890983 -0.161817
v 0.065436 0.638368 -0.146399
v 0.055519 0.794613 -0.180617
v 0.054940 0.856007 -0.167846
v 0.052282 0.824930 -0.174361
v 0.063885 0.550852 -0.163317
v 0.068145 0.719403 -0.166636
v 0.084980 0.483242 -0.166481
v 0.085487 0.406098 -0.180752
v 0.005542 0.889154 -0.187763
v -0.022337 0.887572 -0.193895
v -0.047615 0.890519 -0.192530
v -0.068088 0.892622 -0.187939
v 0.077721 0.893061 -0.134651
v 0.029159 0.889389 -0.177246
v -0.001825 0.849962 -0.190338
v -0.030955 0.848565 -0.194019
v -0.056411 0.853720 -0.190783
v -0.078762 0.859444 -0.182603
v 0.080834 0.858987 -0.142893
v -0.010044 0.815517 -0.192561
v -0.045777 0.809342 -0.188446
v -0.069635 0.827037 -0.178673
v -0.089414 0.836075 -0.167588
v 0.027474 0.854776 -0.182841
v 0.083367 0.826545 -0.147650
v -0.093003 0.813633 -0.149491
v 0.027391 0.822056 -0.190141
v 0.087731 0.892411 -0.089947
v 0.095487 0.889660 -0.043088
v 0.084711 0.885276 -0.012277
v 0.093315 0.859748 -0.094537
v 0.096738 0.855732 -0.045486
v 0.085870 0.851372 -0.012982
v 0.098300 0.827388 -0.096860
v 0.095807 0.823876 -0.046562
v 0.017422 0.798605 0.042088
v 0.068962 0.880958 0.011211
v -0.024963 0.868900 0.060679
v -0.001374 0.865675 0.053245
v 0.047142 0.876221 0.026849
v 0.024257 0.870428 0.041719
v -0.039004 0.837357 0.052712
v 0.067845 0.845420 0.009907
v -0.021630 0.818556 0.045074
v 0.045922 0.839369 0.027567
v 0.018611 0.831513 0.042731
v -0.068039 0.810872 0.037997
v 0.044536 0.804452 0.028490
v -0.021623 0.791004 0.042726
v 0.066615 0.810095 0.012207
v 0.084163 0.818275 -0.011556
v -0.060453 0.802779 0.036363
v -0.076529 0.777988 0.028238
v -0.094527 0.798040 -0.128612
v -0.053409 0.781745 0.028456
v -0.076796 0.767431 0.021605
v -0.093035 0.779647 -0.126337
v -0.086229 0.805410 -0.156368
v -0.080121 0.791613 -0.163917
v -0.014719 0.786639 -0.200586
v -0.046702 0.781891 -0.190297
v 0.014982 0.767962 0.042016
v 0.086976 0.792957 -0.146781
v 0.026729 0.790606 -0.193761
v 0.102426 0.794082 -0.095425
v 0.098889 0.790365 -0.044754
v 0.045229 0.773709 0.029095
v -0.023440 0.761646 0.036877
v 0.066242 0.779787 0.013342
v 0.086169 0.785799 -0.010331
v -0.053781 0.755978 0.018564
v -0.083222 0.746099 0.008340
v -0.094119 0.753981 -0.128312
v -0.080855 0.764240 -0.163637
v 0.008392 0.624987 -0.185643
v -0.040948 0.613550 -0.175302
v 0.013172 0.618462 0.023812
v 0.085725 0.642846 -0.124134
v 0.035808 0.631419 -0.176026
v 0.100585 0.641129 -0.077973
v 0.095311 0.636859 -0.044231
v 0.041713 0.623901 0.017653
v -0.012915 0.614160 0.011259
v 0.062147 0.628565 0.001462
v 0.082064 0.632949 -0.019111
v -0.032122 0.612619 -0.006965
v -0.048023 0.609992 -0.028381
v -0.076588 0.601926 -0.076559
v -0.073411 0.603726 -0.111694
v -0.066715 0.606683 -0.144051
v 0.002501 0.535630 -0.193264
v -0.041835 0.522569 -0.179438
v 0.020007 0.526477 0.001144
v 0.093357 0.555526 -0.123493
v 0.048011 0.547584 -0.178280
v 0.091392 0.547470 -0.091356
v 0.082850 0.539549 -0.058510
v 0.036439 0.527574 -0.003083
v 0.000001 0.523438 -0.008081
v 0.051682 0.531266 -0.015783
v 0.067597 0.534234 -0.034463
v -0.016677 0.522372 -0.020883
v -0.027459 0.521297 -0.042706
v -0.059253 0.514027 -0.085251
v -0.067140 0.512569 -0.116689
v -0.062161 0.515361 -0.150690
v 0.005272 0.469550 -0.200906
v -0.038346 0.455828 -0.181114
v 0.020442 0.450275 -0.023104
v 0.098579 0.480926 -0.135696
v 0.049852 0.478775 -0.187484
v 0.086190 0.473894 -0.104635
v 0.073181 0.465683 -0.077047
v 0.028942 0.451422 -0.025519
v 0.008697 0.449385 -0.028516
v 0.046377 0.456996 -0.037736
v 0.058000 0.459540 -0.053485
v -0.003190 0.448930 -0.046059
v -0.017152 0.447751 -0.061238
v -0.046725 0.442891 -0.098358
v -0.052994 0.445084 -0.124807
v -0.050108 0.449520 -0.154496
v 0.011352 0.394764 -0.217731
v -0.025243 0.384537 -0.200389
v 0.034816 0.364723 -0.053596
v 0.098506 0.401713 -0.151476
v 0.054619 0.402168 -0.207918
v 0.097720 0.394609 -0.121125
v 0.088476 0.386481 -0.091699
v 0.049510 0.368322 -0.053973
v 0.021527 0.363472 -0.060897
v 0.065032 0.372644 -0.055934
v 0.076594 0.378239 -0.067852
v 0.008240 0.365126 -0.078207
v -0.010417 0.366884 -0.094852
v -0.044157 0.367960 -0.121528
v -0.044772 0.372075 -0.144227
v -0.041527 0.377101 -0.173048
v 0.011404 0.282884 -0.231568
v -0.017097 0.278499 -0.220503
v 0.032499 0.261126 -0.078348
v 0.083326 0.284404 -0.188466
v 0.040503 0.285490 -0.227752
v 0.090347 0.278416 -0.155395
v 0.086459 0.273236 -0.122252
v 0.047380 0.257569 -0.073759
v 0.018942 0.268375 -0.089129
v 0.062023 0.257807 -0.076872
v 0.073553 0.263474 -0.093148
v 0.005217 0.272139 -0.104514
v -0.021463 0.257879 -0.118974
v -0.045641 0.267000 -0.141942
v -0.042301 0.270991 -0.169697
v -0.034487 0.273587 -0.199914
v 0.002869 0.167157 -0.237369
v -0.017844 0.168491 -0.226800
v 0.041413 0.159060 -0.110019
v 0.068238 0.157395 -0.208176
v 0.025654 0.164510 -0.238207
v 0.082385 0.154737 -0.178663
v 0.085973 0.155182 -0.135903
v 0.055043 0.155813 -0.100918
v 0.002750 0.152586 -0.111663
v 0.063254 0.154458 -0.097588
v 0.077907 0.153476 -0.105179
v -0.021592 0.149422 -0.106667
v -0.029229 0.151873 -0.108668
v -0.038973 0.159422 -0.144175
v -0.037153 0.164882 -0.178580
v -0.028840 0.168718 -0.204774
v -0.016194 0.070716 -0.245745
v -0.032749 0.072950 -0.232829
v 0.063181 0.069651 -0.207825
v 0.011476 0.072960 -0.072313
v -0.006896 0.069558 -0.079169
v -0.038594 0.079041 -0.137216
v -0.036823 0.079837 -0.172158
v -0.038285 0.078637 -0.205798
v -0.061661 0.607117 -0.049786
v -0.041990 0.518991 -0.063861
v -0.029944 0.446345 -0.077311
v -0.027131 0.367071 -0.106775
v -0.036774 0.263101 -0.122790
v -0.038983 0.154437 -0.116741
v -0.021316 0.690611 0.026142
v -0.047924 0.688171 0.006956
v -0.071878 0.684986 -0.009334
v -0.086707 0.689143 -0.115582
v -0.072988 0.692897 -0.154196
v -0.046395 0.698338 -0.183347
v 0.000211 0.704306 -0.194681
v 0.033182 0.711186 -0.187567
v 0.086376 0.722142 -0.124445
v 0.100626 0.722343 -0.082863
v 0.097803 0.716967 -0.039745
v 0.083874 0.711999 -0.011692
v 0.065663 0.706922 0.009714
v 0.042561 0.701148 0.024198
v 0.012872 0.695317 0.033809
v 0.063636 0.021989 -0.070554
v 0.068900 0.021637 -0.073733
v 0.062768 0.023230 -0.071738
v 0.068166 0.022992 -0.075087
v 0.074370 0.020438 -0.077167
v 0.073812 0.021834 -0.078747
v 0.079427 0.018370 -0.081166
v 0.078827 0.019890 -0.082708
v 0.083946 0.015681 -0.085406
v 0.087493 0.012103 -0.089910
v 0.086707 0.013447 -0.091217
v 0.057432 0.022537 -0.067508
v 0.056553 0.023799 -0.068636
v 0.051103 0.021989 -0.064617
v 0.050245 0.023158 -0.065834
v 0.045891 0.020789 -0.062616
v 0.044991 0.021927 -0.063853
v 0.061341 0.021400 -0.073029
v 0.055622 0.021855 -0.070201
v 0.049676 0.021069 -0.067543
v 0.044640 0.019869 -0.065592
v 0.063099 0.019476 -0.071453
v 0.068000 0.019135 -0.074309
v 0.073243 0.017966 -0.077586
v 0.078021 0.016084 -0.081389
v 0.082064 0.013809 -0.085329
v 0.085394 0.010490 -0.089371
v 0.057318 0.019962 -0.068648
v 0.051320 0.019497 -0.065858
v 0.046325 0.018359 -0.063864
v 0.041300 0.018701 -0.062006
v 0.040617 0.019735 -0.063368
v 0.063481 0.023271 -0.070830
v 0.068993 0.023064 -0.074110
v 0.074670 0.021917 -0.077699
v 0.079851 0.019869 -0.081798
v 0.084567 0.016994 -0.086262
v 0.088083 0.012796 -0.091258
v 0.057142 0.023819 -0.067694
v 0.050710 0.023220 -0.064830
v 0.045219 0.021968 -0.062762
v 0.040255 0.019486 -0.062185
v 0.039790 0.017377 -0.063695
v 0.075342 0.034853 -0.112273
v 0.076718 0.034161 -0.112253
v 0.068352 0.034915 -0.091200
v 0.073336 0.032837 -0.095151
v 0.072788 0.034481 -0.096763
v 0.077783 0.030138 -0.099340
v 0.081237 0.026570 -0.103796
v 0.080482 0.027987 -0.105156
v 0.067163 0.032413 -0.091560
v 0.071868 0.030520 -0.095324
v 0.075859 0.028235 -0.099230
v 0.035240 0.031441 -0.077717
v 0.068693 0.036446 -0.091782
v 0.073802 0.034409 -0.095830
v 0.078434 0.031524 -0.100235
v 0.081836 0.027294 -0.105171
v 0.033740 0.030551 -0.079079
v 0.061434 0.029155 -0.077731
v 0.066697 0.028804 -0.080910
v 0.065994 0.030210 -0.082288
v 0.072147 0.027604 -0.084334
v 0.071630 0.029052 -0.085938
v 0.077183 0.025526 -0.088315
v 0.076604 0.027108 -0.089881
v 0.081671 0.022837 -0.092532
v 0.081082 0.024274 -0.094146
v 0.085177 0.019269 -0.097014
v 0.084412 0.020634 -0.098338
v 0.055239 0.029714 -0.074688
v 0.048869 0.029166 -0.071780
v 0.048032 0.030386 -0.073021
v 0.043637 0.027956 -0.069762
v 0.042758 0.029145 -0.071023
v 0.047432 0.028307 -0.074706
v 0.042375 0.027098 -0.072739
v 0.060855 0.026632 -0.078600
v 0.065756 0.026281 -0.081459
v 0.070989 0.025102 -0.084727
v 0.075746 0.023230 -0.088516
v 0.079768 0.020955 -0.092441
v 0.083057 0.017625 -0.096464
v 0.055084 0.027118 -0.075795
v 0.049045 0.026653 -0.072989
v 0.044030 0.025515 -0.070975
v 0.039035 0.025877 -0.069120
v 0.038394 0.026963 -0.070510
v 0.039045 0.023871 -0.070506
v 0.061310 0.030458 -0.078027
v 0.066811 0.030272 -0.081308
v 0.072468 0.029114 -0.084885
v 0.077628 0.027077 -0.088964
v 0.082302 0.024202 -0.093404
v 0.085777 0.019972 -0.098371
v 0.054981 0.031027 -0.074893
v 0.048497 0.030417 -0.072013
v 0.042985 0.029166 -0.069927
v 0.038011 0.026694 -0.069314
v 0.037515 0.024585 -0.070802
v 0.109240 -0.011247 -0.071274
v 0.095952 0.001772 -0.097521
v 0.119540 -0.023088 -0.077850
v 0.102994 -0.016800 -0.103653
v 0.030721 0.006994 -0.055534
v 0.040317 -0.006118 -0.028729
v 0.026140 -0.010068 -0.051071
v 0.034009 -0.016500 -0.022926
v 0.115621 -0.010134 -0.020392
v 0.115238 -0.014505 -0.041860
v 0.124824 -0.020148 -0.019461
v 0.125590 -0.024753 -0.047376
v 0.057246 -0.009966 -0.003643
v 0.070937 -0.007593 0.008066
v 0.054257 -0.018975 0.002848
v 0.072323 -0.016617 0.016756
v 0.041548 0.011481 -0.201992
v -0.024414 0.018570 -0.158612
v 0.083760 0.015660 -0.123473
v 0.084256 -0.007722 -0.126937
v 0.067256 0.000655 -0.159025
v 0.017867 0.023116 -0.084787
v -0.004894 0.010125 -0.113400
v 0.013172 0.000036 -0.082087
v 0.042840 0.024833 -0.201775
v 0.068486 0.021036 -0.157422
v -0.018741 0.036621 -0.164185
v -0.002890 0.031192 -0.115510
v 0.000623 0.038773 -0.118002
v -0.014521 0.041823 -0.165964
v 0.065767 0.030645 -0.155933
v 0.042892 0.030531 -0.198094
v 0.114907 -0.009337 -0.012587
v 0.123821 -0.019565 -0.007956
v 0.031248 0.032857 -0.213812
v 0.026781 0.015323 -0.214960
v 0.076345 -0.007308 0.010653
v 0.080833 -0.016841 0.020608
v -0.020179 0.040903 -0.182530
v -0.029143 0.021727 -0.176067
v 0.089779 0.009301 -0.110143
v 0.093429 -0.012484 -0.115324
v 0.025436 0.015247 -0.070401
v 0.020493 -0.005725 -0.066263
v 0.100533 -0.010120 0.008674
v 0.108289 -0.021128 0.016379
v -0.005305 0.042557 -0.209252
v -0.016014 0.020983 -0.210100
v 0.113304 -0.014163 -0.056386
v 0.123532 -0.025280 -0.062478
v 0.048011 -0.009003 -0.014924
v 0.043575 -0.018848 -0.008598
v 0.104318 -0.067775 -0.112573
v 0.122373 -0.069066 -0.084551
v 0.019015 -0.061208 -0.054549
v 0.025105 -0.061930 -0.022571
v 0.089934 0.010510 -0.093462
v 0.101143 -0.005580 -0.067331
v 0.035147 0.013923 -0.059611
v 0.045002 -0.001930 -0.034472
v 0.059841 -0.064371 -0.081515
v 0.076449 -0.065943 -0.052246
v 0.072881 0.005505 -0.054009
v 0.060100 0.026425 -0.076487
v 0.124204 -0.049178 -0.083386
v 0.105063 -0.047590 -0.112542
v 0.019769 -0.041450 -0.054704
v 0.026067 -0.042208 -0.020895
v 0.102581 -0.006408 -0.084785
v 0.112467 -0.020409 -0.091539
v 0.035033 -0.001371 -0.042128
v 0.028487 -0.013595 -0.036749
v 0.127689 -0.061525 -0.017692
v 0.127327 -0.065436 -0.047812
v 0.075332 -0.059814 0.027275
v 0.050906 -0.060741 0.007630
v 0.108941 -0.007009 -0.019440
v 0.106324 -0.009500 -0.037975
v 0.071589 -0.005215 0.003360
v 0.059583 -0.006229 -0.009591
v 0.105001 -0.060293 0.010180
v 0.087597 -0.064604 -0.017038
v 0.081444 -0.002342 -0.026564
v 0.089996 -0.003650 -0.005492
v 0.129075 -0.042285 -0.018292
v 0.128682 -0.046169 -0.048504
v 0.075839 -0.044483 0.026816
v 0.051382 -0.041893 0.007973
v 0.115631 -0.012060 -0.029703
v 0.125734 -0.022068 -0.033132
v 0.065198 -0.008826 0.003669
v 0.063667 -0.017554 0.010828
v 0.033451 -0.064632 -0.204598
v -0.031553 -0.064632 -0.157122
v -0.005554 -0.063543 -0.185085
v 0.036263 -0.032152 -0.205974
v -0.032426 -0.024117 -0.157733
v 0.052985 0.005116 -0.183792
v -0.016857 0.013691 -0.138850
v 0.077586 -0.067555 -0.139718
v 0.059076 -0.058788 -0.165674
v 0.012479 -0.062669 -0.096481
v -0.006683 -0.054216 -0.120577
v 0.080937 0.026549 -0.120753
v 0.022582 0.031503 -0.086355
v 0.041548 -0.062175 -0.115096
v 0.020431 -0.054727 -0.149594
v 0.078372 -0.045571 -0.139770
v 0.063316 -0.038439 -0.165850
v 0.011031 -0.040018 -0.095568
v -0.007494 -0.031180 -0.117919
v 0.076769 0.020510 -0.139325
v 0.074918 -0.003239 -0.141342
v 0.008878 0.029631 -0.099490
v 0.004738 0.005910 -0.098041
v 0.110326 -0.010542 0.000448
v 0.117958 -0.021333 0.007082
v 0.005287 0.019105 -0.219717
v 0.015137 0.041275 -0.216108
v 0.100161 -0.067556 -0.068395
v 0.081981 -0.066270 -0.096859
v 0.087121 0.001917 -0.060992
v 0.077928 0.021524 -0.086055
v 0.116396 -0.060930 -0.000417
v 0.107245 -0.063882 -0.030248
v 0.099665 -0.004394 -0.011371
v 0.092664 -0.004227 -0.031500
v 0.014589 -0.064632 -0.196987
v 0.059210 -0.064922 -0.126813
v 0.039635 -0.057023 -0.159428
v 0.088569 -0.008884 0.012196
v 0.095663 -0.019328 0.021157
v -0.025348 0.021412 -0.195715
v -0.013924 0.042164 -0.200844
v 0.050503 -0.064040 -0.037031
v 0.039200 -0.062771 -0.067700
v 0.058145 0.004058 -0.044389
v 0.045043 0.023664 -0.067730
v 0.089479 -0.059960 0.020106
v 0.068507 -0.063487 -0.004478
v 0.079479 -0.003745 -0.000966
v 0.069675 -0.002294 -0.018873
v -0.023210 -0.063543 -0.170069
v 0.025871 -0.062380 -0.105220
v 0.003426 -0.053466 -0.131859
v 0.043089 0.027646 -0.200162
v 0.054391 0.018344 -0.183285
v 0.068104 0.027687 -0.157226
v -0.016727 0.040138 -0.165488
v -0.015055 0.031616 -0.142810
v -0.001176 0.036405 -0.116575
v 0.012862 0.043333 -0.105777
v -0.012063 0.036994 -0.145334
v -0.014715 0.046735 -0.184009
v 0.052561 0.024647 -0.181445
v 0.068166 0.038752 -0.142397
v -0.000350 0.049755 -0.206708
v 0.117823 -0.046035 -0.081018
v 0.098765 -0.043975 -0.107993
v 0.026222 -0.038776 -0.057971
v 0.030628 -0.039809 -0.026315
v 0.122694 -0.039605 -0.017583
v 0.122632 -0.042829 -0.047715
v 0.052747 -0.039277 0.001757
v 0.075187 -0.041293 0.020826
v 0.034464 -0.028660 -0.198724
v -0.026460 -0.021926 -0.156564
v 0.057576 -0.034631 -0.162324
v 0.071785 -0.041298 -0.134600
v -0.003923 -0.028359 -0.121673
v 0.016264 -0.036957 -0.097764
v 0.021569 -0.064632 -0.215767
v 0.127906 -0.058489 -0.006840
v 0.087431 -0.056894 0.034018
v -0.039238 -0.064632 -0.171683
v 0.031103 0.036312 -0.212695
v 0.110337 -0.007236 -0.014091
v 0.075363 -0.005532 0.006731
v -0.017225 0.044760 -0.184371
v 0.092312 -0.068074 -0.123348
v 0.019273 -0.062391 -0.073820
v 0.085239 0.019187 -0.106460
v 0.029542 0.022847 -0.072946
v 0.118713 -0.056935 0.023678
v -0.026695 -0.064632 -0.210193
v 0.095445 -0.005638 0.002413
v -0.002159 0.047831 -0.208404
v 0.052447 -0.063308 -0.096075
v 0.129509 -0.042576 -0.006188
v 0.022810 -0.030346 -0.219024
v 0.088155 -0.044893 0.033558
v -0.039306 -0.022818 -0.173461
v 0.091981 -0.047209 -0.125303
v 0.018105 -0.041725 -0.075754
v 0.118206 -0.043331 0.022265
v -0.023751 -0.022644 -0.209324
v 0.125848 -0.068124 -0.066189
v 0.037277 -0.061486 -0.006721
v 0.104835 -0.008683 -0.052508
v 0.051672 -0.004960 -0.021077
v 0.082230 -0.064917 -0.034526
v 0.077907 0.000304 -0.039869
v 0.127296 -0.048299 -0.065342
v 0.038177 -0.041619 -0.005390
v 0.114814 -0.068487 -0.100423
v 0.019252 -0.061382 -0.037872
v 0.095104 0.000511 -0.080820
v 0.039418 0.004037 -0.047140
v 0.068197 -0.065322 -0.067927
v 0.065942 0.014967 -0.066112
v 0.116676 -0.048661 -0.099600
v 0.020007 -0.041784 -0.036564
v 0.127503 -0.062248 -0.031223
v 0.063026 -0.060939 0.018656
v 0.107524 -0.007977 -0.026726
v 0.066635 -0.005859 -0.001612
v 0.095249 -0.062079 -0.002193
v 0.085197 -0.003651 -0.014969
v 0.129023 -0.043266 -0.032940
v 0.063316 -0.043051 0.018279
v 0.057173 -0.064632 -0.165581
v -0.006498 -0.064632 -0.121797
v 0.018684 -0.064632 -0.151900
v 0.047308 -0.034512 -0.189790
v -0.023184 -0.026676 -0.140690
v 0.063088 -0.060831 -0.156771
v 0.000787 -0.055569 -0.114869
v 0.074391 0.034533 -0.140153
v 0.013999 0.039424 -0.100087
v 0.028828 -0.057313 -0.132045
v 0.066914 -0.042269 -0.156450
v -0.000621 -0.035550 -0.111363
v 0.126251 -0.056453 0.011376
v -0.001991 -0.064632 -0.222261
v 0.104814 -0.006241 -0.004668
v 0.014568 0.046177 -0.213833
v 0.072157 -0.066019 -0.109551
v 0.074681 0.031162 -0.097410
v 0.127337 -0.041675 0.011577
v 0.000913 -0.026441 -0.222499
v 0.105187 -0.066439 -0.049913
v 0.090709 -0.002354 -0.045784
v 0.091361 -0.066987 -0.083889
v 0.081816 0.010231 -0.074451
v 0.110419 -0.063022 -0.013173
v 0.095549 -0.004471 -0.020053
v 0.037484 -0.064632 -0.161631
v 0.047442 -0.059502 -0.144692
v 0.103677 -0.058547 0.033728
v -0.038056 -0.064632 -0.192644
v 0.084122 -0.005092 0.006093
v -0.010271 0.046973 -0.202147
v 0.034702 -0.062836 -0.084538
v 0.103511 -0.044636 0.032077
v -0.036551 -0.022066 -0.192572
v 0.058952 -0.063248 -0.020400
v 0.064040 -0.000058 -0.030587
v 0.043875 -0.063461 -0.052440
v 0.050948 0.012434 -0.056633
v 0.078217 -0.061006 0.008699
v 0.074825 -0.003644 -0.009104
v 0.001913 -0.064632 -0.133896
v 0.012572 -0.057007 -0.121570
v 0.054153 0.022142 -0.182448
v -0.013844 0.035195 -0.143969
v 0.122911 -0.040023 -0.005906
v 0.022562 -0.027190 -0.210627
v 0.085497 -0.042105 0.026505
v -0.033440 -0.020686 -0.170742
v 0.085487 -0.043190 -0.120070
v 0.024444 -0.038556 -0.078043
v 0.113191 -0.041697 0.019330
v -0.020410 -0.020161 -0.205219
v 0.121071 -0.045114 -0.064062
v 0.040627 -0.039334 -0.011782
v 0.110367 -0.045321 -0.096010
v 0.025974 -0.039240 -0.040858
v 0.122839 -0.040164 -0.032211
v 0.064122 -0.040323 0.012415
v 0.045281 -0.030847 -0.182799
v -0.017793 -0.024029 -0.140763
v 0.060896 -0.038088 -0.151497
v 0.004372 -0.032713 -0.113773
v 0.120233 -0.040941 0.009042
v 0.001825 -0.024071 -0.216046
v 0.100513 -0.042628 0.027011
v -0.031356 -0.019206 -0.189407
v 0.028580 -0.064632 -0.176977
v 0.043099 -0.064632 -0.187846
v -0.020247 -0.064632 -0.139294
v 0.010669 -0.063543 -0.164061
v -0.008952 -0.063543 -0.149956
v 0.022468 -0.055223 -0.215942
v -0.031058 -0.051422 -0.156523
v -0.038795 -0.049533 -0.171517
v -0.025673 -0.047960 -0.209562
v -0.037096 -0.047806 -0.192024
v 0.034702 -0.057436 -0.204257
v -0.000848 -0.050832 -0.221713
v 0.045219 -0.058570 -0.188508
v -0.021191 -0.053298 -0.139925
v -0.118181 -0.060103 0.134651
vn 0.8873 -0.0428 -0.4593
vn -0.9493 -0.1316 -0.2855
vn -0.9601 -0.0310 -0.2780
vn -0.2229 -0.1012 -0.9696
vn -0.6259 -0.2348 0.7437
vn -0.7833 -0.2389 0.5739
vn 0.9946 -0.0154 0.1028
vn 0.9868 0.0029 -0.1621
vn -0.1379 -0.1987 0.9703
vn 0.2352 -0.1136 -0.9653
vn 0.9455 -0.0314 -0.3241
vn -0.9986 0.0071 -0.0528
vn 0.9919 -0.0621 -0.1103
vn -0.5260 -0.1645 0.8344
vn -0.1532 -0.1292 0.9797
vn 0.5754 -0.0607 0.8157
vn 0.7674 -0.0368 0.6402
vn -0.3719 -0.2853 0.8833
vn 0.7927 -0.1403 0.5932
vn 0.3098 0.0040 -0.9508
vn -0.7694 -0.2466 0.5893
vn 0.9528 0.0227 0.3027
vn -0.4202 0.1242 -0.8989
vn -0.8860 -0.0117 -0.4635
vn 0.9778 -0.0651 -0.1989
vn -0.9123 -0.1739 0.3709
vn -0.9896 -0.0569 0.1324
vn -0.6940 -0.2541 0.6736
vn 0.8535 0.0873 0.5137
vn 0.1731 -0.2928 0.9404
vn -0.7875 -0.2893 0.5442
vn -0.9986 -0.0085 -0.0525
vn 0.5745 -0.0916 -0.8133
vn -0.3951 -0.3709 0.8405
vn 0.9490 -0.0143 -0.3151
vn -0.3817 -0.2461 0.8909
vn -0.6852 -0.3073 0.6604
vn 0.9342 -0.1093 0.3397
vn 0.0051 0.0778 -0.9970
vn -0.3022 -0.0707 0.9506
vn 0.2707 -0.2935 0.9168
vn 0.7713 0.0855 -0.6307
vn -0.9738 -0.1788 -0.1405
vn -0.4583 0.1008 0.8831
vn -0.1984 -0.1178 -0.9730
vn 0.7595 0.0432 0.6491
vn 0.9764 -0.0365 0.2130
vn 0.8316 0.2095 -0.5143
vn -0.8540 -0.0789 -0.5142
vn 0.9447 -0.0208 0.3272
vn 0.9141 -0.1155 0.3887
vn -0.7377 -0.1212 -0.6642
vn 0.9977 -0.0118 0.0665
vn -0.9487 -0.2177 0.2292
vn 0.2494 -0.2155 0.9441
vn 0.9426 -0.1585 0.2938
vn -0.6014 -0.2402 0.7620
vn 0.9204 -0.0115 0.3908
vn 0.8892 0.0132 -0.4572
vn 0.8006 -0.0252 -0.5987
vn -0.9829 0.0014 -0.1839
vn -0.7880 -0.2683 0.5542
vn -0.3693 0.0477 -0.9281
vn -0.6450 0.0920 0.7586
vn -0.6470 -0.3125 0.6955
vn 0.8645 -0.1891 0.4656
vn -0.4532 0.1573 -0.8774
vn 0.8561 -0.0579 -0.5136
vn 0.6311 -0.2685 0.7278
vn 0.9146 0.0788 -0.3966
vn -0.5776 -0.1970 0.7922
vn -0.8151 -0.2468 0.5241
vn -0.3200 0.2553 0.9124
vn -0.9722 0.2025 -0.1180
vn -0.7196 -0.0378 -0.6933
vn 0.8440 -0.2317 0.4837
vn -0.5247 -0.1716 0.8338
vn -0.9947 -0.0503 -0.0902
vn 0.1894 -0.1786 0.9655
vn -0.3334 -0.1291 0.9339
vn 0.0572 0.0628 -0.9964
vn 0.9994 -0.0352 0.0018
vn -0.0204 -0.2281 0.9734
vn 0.8595 -0.0827 -0.5044
vn 0.6798 -0.0938 0.7274
vn 0.6310 -0.1507 -0.7610
vn 0.6803 0.1231 -0.7225
vn -0.9831 -0.0470 -0.1770
vn -0.1193 0.0957 0.9882
vn -0.7741 -0.1549 0.6139
vn 0.9364 0.1330 0.3248
vn 0.8928 -0.0575 0.4467
vn -0.9896 -0.0837 -0.1172
vn 0.5883 -0.0929 0.8033
vn 0.4902 0.1643 -0.8560
vn -0.3061 -0.1231 -0.9440
vn -0.0014 -0.0450 -0.9990
vn 0.6602 0.1300 -0.7397
vn -0.2885 -0.0166 -0.9573
vn -0.0904 -0.0006 -0.9959
vn 0.1697 -0.0007 -0.9855
vn 0.3159 0.0660 -0.9465
vn 0.4881 0.1341 -0.8624
vn 0.7090 0.1759 -0.6829
vn 0.1252 0.1241 -0.9843
vn 0.4700 -0.0142 0.8826
vn 0.0506 -0.0503 0.9975
vn 0.7954 -0.0011 0.6061
vn 0.6084 0.0137 0.7935
vn 0.0576 -0.4072 0.9115
vn -0.6059 -0.1464 -0.7820
vn 0.8356 -0.0668 -0.5452
vn 0.9491 -0.0899 -0.3020
vn -0.9166 -0.1623 -0.3653
vn 0.1907 -0.0481 -0.9805
vn -0.3800 -0.2528 0.8898
vn 0.9205 0.0807 0.3824
vn -0.4044 0.0881 0.9103
vn -0.5161 0.1545 -0.8425
vn 0.4719 0.1356 0.8712
vn -0.7974 -0.0634 0.6001
vn 0.2706 0.1284 -0.9541
vn 0.7223 -0.0497 -0.6898
vn 0.9761 0.0267 0.2156
vn -0.9339 0.1351 -0.3310
vn 0.2036 0.2477 -0.9472
vn 0.4280 -0.1481 0.8915
vn -0.7735 -0.3188 0.5477
vn -0.7951 0.0198 -0.6062
vn 0.7420 -0.2008 0.6397
vn -0.9864 -0.1077 0.1243
vn 0.5102 0.3247 0.7964
vn -0.2669 0.0727 -0.9610
vn -0.6259 -0.3206 0.7110
vn -0.2637 -0.0522 0.9632
vn -0.9829 -0.0170 0.1836
vn 0.5512 0.1668 -0.8175
vn -0.1030 0.4336 0.8952
vn 0.5872 0.0108 0.8094
vn 0.4058 0.0436 -0.9129
vn 0.5684 0.1060 -0.8159
vn 0.7767 -0.2381 0.5831
vn -0.9883 -0.1356 0.0692
vn 0.9878 0.1126 -0.1072
vn 0.9980 0.0632 -0.0045
vn -0.2255 -0.2324 0.9461
vn -0.4543 -0.1222 0.8824
vn -0.2906 -0.1693 0.9417
vn -0.2286 -0.2279 0.9465
vn -0.9612 0.1855 0.2044
vn 0.0772 0.3483 0.9342
vn 0.4789 -0.0552 -0.8761
vn -0.9237 -0.1611 -0.3476
vn 0.9916 0.1102 0.0671
vn -0.2516 -0.0977 -0.9629
vn 0.1655 0.1338 -0.9771
vn -0.9850 -0.0500 0.1654
vn -0.8244 0.0663 -0.5621
vn 0.8291 0.4081 0.3820
vn 0.6444 -0.1973 0.7388
vn 0.7473 -0.0908 0.6583
vn 0.2867 -0.1037 -0.9524
vn 0.9747 -0.1362 0.1773
vn 0.5608 0.2006 -0.8033
vn 0.9918 0.0157 -0.1272
vn 0.8100 -0.0165 0.5862
vn 0.6096 -0.0261 0.7923
vn 0.5187 -0.0275 0.8545
vn 0.2428 -0.1528 0.9580
vn -0.4713 -0.2358 -0.8499
vn -0.6641 -0.3168 -0.6773
vn -0.0760 -0.3873 0.9188
vn 0.1962 -0.2784 0.9402
vn 0.9453 0.0187 0.3257
vn 0.9496 -0.0369 0.3112
vn -0.7326 -0.2427 0.6359
vn -0.9926 0.0482 -0.1115
vn -0.6130 -0.1722 0.7711
vn 0.2786 -0.1035 0.9548
vn 0.3664 -0.0956 0.9255
vn 0.9538 0.1397 -0.2660
vn 0.9579 0.1694 -0.2317
vn -0.6597 -0.3403 0.6700
vn -0.0407 -0.0953 0.9946
vn 0.4203 -0.0041 0.9074
vn 0.5918 0.0261 0.8056
vn 0.7775 0.0438 0.6273
vn 0.9359 0.0878 0.3413
vn 0.9531 0.1004 -0.2854
vn 0.6893 0.1339 -0.7120
vn 0.4524 0.1592 -0.8775
vn 0.0907 0.1810 -0.9793
vn -0.2335 0.1904 -0.9535
vn -0.6117 0.0411 -0.7900
vn -0.9444 0.0428 -0.3261
vn -0.0944 -0.4282 0.8987
vn -0.4063 -0.2359 0.8828
vn -0.4690 -0.2799 0.8377
vn -0.8327 0.0098 -0.5536
vn 0.3041 0.0653 -0.9504
vn -0.4050 0.0655 -0.9120
vn 0.0171 0.4445 0.8956
vn 0.9783 -0.0925 0.1856
vn -0.6483 -0.1139 -0.7528
vn 0.0029 0.9981 -0.0622
vn 0.5512 0.1803 0.8147
vn 0.6476 0.1356 0.7498
vn 0.7140 0.1013 0.6928
vn 0.8342 0.0941 0.5434
vn 0.0533 0.9960 -0.0712
vn -0.0934 0.9956 0.0082
vn -0.2166 0.9760 0.0233
vn -0.4019 0.6365 -0.6583
vn -0.3673 0.6648 -0.6505
vn -0.2768 0.6838 -0.6751
vn 0.4108 -0.3676 0.8344
vn 0.4127 -0.3805 0.8276
vn 0.3777 -0.3857 0.8418
vn 0.4969 -0.4349 0.7509
vn 0.4910 -0.4152 0.7659
vn 0.4842 -0.3650 0.7952
vn 0.4421 -0.3457 0.8277
vn 0.4558 -0.3688 0.8101
vn -0.4419 0.8954 0.0555
vn 0.5105 0.2125 0.8332
vn 0.0991 0.9825 -0.1576
vn 0.1988 0.9547 -0.2214
vn 0.4462 0.2332 0.8640
vn 0.3802 0.2450 0.8919
vn 0.2891 0.2648 0.9200
vn 0.0312 0.1897 0.9814
vn 0.6488 0.1356 0.7488
vn 0.7152 0.0981 0.6920
vn 0.8372 0.0853 0.5403
vn 0.4944 -0.4089 0.7671
vn 0.4879 -0.3571 0.7965
vn 0.5517 0.1796 0.8145
vn 0.6471 0.1329 0.7507
vn 0.7143 0.0979 0.6930
vn 0.8348 0.0888 0.5434
vn -0.2088 0.9769 0.0445
vn -0.4032 0.6374 -0.6567
vn 0.4118 -0.3619 0.8363
vn 0.4129 -0.3746 0.8302
vn 0.3791 -0.3800 0.8437
vn 0.4993 -0.4333 0.7503
vn 0.4919 -0.4134 0.7662
vn 0.4858 -0.3613 0.7959
vn 0.4435 -0.3407 0.8290
vn 0.4566 -0.3655 0.8111
vn 0.2782 -0.4657 0.8401
vn -0.4386 0.8962 0.0672
vn 0.5107 0.2106 0.8336
vn 0.1073 0.9832 -0.1474
vn 0.2078 0.9550 -0.2114
vn 0.2719 0.9106 -0.3113
vn 0.3552 0.8230 -0.4433
vn 0.4470 0.2308 0.8642
vn 0.3795 0.2456 0.8920
vn 0.2893 0.2690 0.9187
vn 0.0330 0.2007 0.9791
vn -0.4343 -0.4807 0.7618
vn -0.8142 0.2020 0.5443
vn 0.6332 0.7738 0.0155
vn 0.5646 0.8252 0.0198
vn 0.7264 0.6622 -0.1837
vn 0.7425 0.6696 0.0182
vn 0.8610 0.5067 -0.0447
vn 0.7761 0.6246 0.0866
vn -0.3534 0.7052 0.6146
vn -0.5611 0.5928 0.5777
vn 0.8567 0.3365 -0.3909
vn -0.3350 0.8683 0.3658
vn -0.3148 0.8245 0.4702
vn -0.3924 0.8916 0.2260
vn -0.2882 0.8476 0.4455
vn 0.5997 0.7960 0.0817
vn 0.0542 -0.9947 0.0871
vn -0.3338 0.6134 0.7157
vn 0.6597 0.7351 -0.1563
vn 0.3889 0.9014 -0.1901
vn 0.4230 0.9041 -0.0611
vn -0.8025 0.1559 0.5760
vn 0.9116 -0.0300 -0.4100
vn 0.5080 0.8610 -0.0255
vn 0.4060 0.8960 -0.1796
vn 0.7115 0.6971 -0.0882
vn -0.4379 0.8290 0.3478
vn -0.4389 0.8286 0.3476
vn -0.4473 0.8243 0.3470
vn -0.3725 0.8536 0.3642
vn -0.5836 0.5834 0.5649
vn -0.2733 0.8626 0.4257
vn -0.4486 0.8236 0.3470
vn -0.0091 -0.9996 0.0284
vn 0.4197 -0.3128 0.8520
vn -0.2223 0.8735 0.4332
vn -0.5678 0.0343 0.8224
vn -0.8751 0.4211 0.2383
vn -0.6124 0.6197 0.4910
vn -0.0392 -0.9991 -0.0155
vn 0.6817 -0.0810 -0.7272
vn -0.8860 0.0168 0.4634
vn -0.0000 -1.0000 -0.0000
vn 0.9352 0.2165 -0.2803
vn 0.9147 0.3725 -0.1567
vn -0.6125 0.4963 0.6152
vn -0.6550 0.4285 0.6223
vn -0.8150 0.2588 0.5185
vn 0.3480 0.9072 -0.2362
vn -0.8378 -0.1114 0.5345
vn 0.1904 0.9731 -0.1296
vn 0.3739 0.8950 -0.2432
vn 0.8092 0.0086 0.5875
vn -0.8943 0.1528 0.4206
vn 0.2984 -0.9376 0.1784
vn 0.4329 0.2689 0.8604
vn 0.4435 0.8809 -0.1652
vn 0.4428 0.8828 -0.1568
vn 0.4432 0.8826 -0.1571
vn 0.1680 -0.9750 0.1455
vn -0.0677 -0.9977 -0.0032
vn -0.0673 -0.9977 -0.0024
vn -0.0681 -0.9977 -0.0016
vn -0.1999 0.8705 0.4497
vn -0.1701 0.9706 0.1705
vn 0.0623 0.9933 0.0977
vn -0.1606 -0.9843 -0.0738
vn -0.0832 -0.9965 -0.0070
vn -0.7417 0.3287 -0.5847
vn 0.1071 -0.9909 0.0810
vn -0.0843 -0.9964 -0.0022
vn -0.0760 -0.9971 -0.0015
vn -0.0702 -0.9975 0.0007
vn -0.0763 -0.9971 -0.0023
vn -0.0594 0.7306 0.6802
vn 0.2278 0.9731 0.0343
vn -0.1569 0.9350 0.3181
vn -0.8118 0.5296 -0.2461
vn 0.5828 0.7928 0.1784
vn -0.0234 -0.9976 0.0656
vn -0.0331 -0.9973 0.0654
vn -0.0425 -0.9971 0.0639
vn -0.0321 -0.9973 0.0661
vn 0.4787 0.7073 0.5202
vn -0.0687 -0.9952 0.0693
vn 0.2227 0.9104 -0.3487
vn 0.7783 -0.1403 0.6120
vn 0.9585 0.0605 0.2784
vn 0.0690 -0.9975 -0.0126
vn 0.7680 0.6065 0.2057
vn -0.0538 0.9153 -0.3990
vn 0.0197 0.9328 0.3599
vn 0.8734 0.1677 -0.4572
vn 0.3049 0.3804 -0.8731
vn 0.6835 -0.0411 -0.7288
vn -0.4869 0.0512 0.8720
vn 0.2552 0.7310 0.6328
vn 0.9972 -0.0751 -0.0018
vn 0.9971 -0.0756 -0.0028
vn 0.9971 -0.0755 -0.0028
vn 0.2011 0.8787 0.4329
vn 0.0596 0.9977 -0.0336
vn 0.0390 -0.9876 0.1523
vn -0.0011 1.0000 0.0063
vn 0.0210 -0.9948 0.1000
vn -0.0878 -0.9960 -0.0167
vn -0.0891 -0.9959 -0.0132
vn -0.0890 -0.9959 -0.0135
vn -0.0530 0.9786 0.1989
vn -0.1712 0.9545 0.2442
vn -0.9967 0.0455 -0.0674
vn -0.4353 0.0657 -0.8979
vn -0.2700 0.3443 -0.8992
vn 0.4755 0.8741 0.0994
vn 0.0505 0.7020 0.7104
vn 0.0925 0.9831 0.1579
vn -0.0982 -0.9946 0.0330
vn -0.1288 -0.9914 0.0237
vn 0.1847 -0.0848 -0.9791
vn -0.1465 -0.9825 -0.1147
vn -0.0994 -0.9949 0.0148
vn -0.8925 0.3900 -0.2266
vn -0.0052 -0.9767 0.2145
vn 0.7768 0.2406 -0.5820
vn 0.8600 0.1764 -0.4789
vn 0.8653 0.0999 -0.4912
vn 0.9112 0.1095 -0.3972
vn -0.7769 0.6020 0.1844
vn -0.8501 0.4693 0.2390
vn -0.8454 0.3770 0.3784
vn -0.7173 0.3906 0.5770
vn -0.6409 0.7231 0.2574
vn -0.6530 0.5971 0.4659
vn -0.5963 0.7745 0.2110
vn -0.5675 0.7834 0.2535
vn 0.5934 0.6439 -0.4830
vn 0.6100 0.6369 -0.4714
vn 0.8178 0.4648 -0.3394
vn 0.0291 -0.9970 0.0712
vn 0.0096 -0.9992 -0.0395
vn 0.0277 -0.9993 0.0247
vn 0.2628 0.9646 0.0233
vn 0.2525 -0.0067 -0.9676
vn 0.3345 0.8707 0.3605
vn 0.8295 -0.1360 -0.5417
vn 0.9896 -0.0898 0.1126
vn 0.0852 -0.9902 0.1106
vn 0.4275 0.8815 0.2007
vn 0.4275 0.8814 0.2007
vn 0.9962 -0.0847 -0.0181
vn 0.7545 0.0193 -0.6560
vn 0.0272 0.8801 0.4741
vn -0.5871 0.0552 0.8076
vn 0.4693 0.8713 -0.1433
vn 0.5427 0.7999 -0.2562
vn -0.7905 -0.0093 0.6125
vn -0.9372 0.0602 0.3436
vn 0.8006 -0.1874 -0.5691
vn -0.4035 0.9144 0.0326
vn -0.8682 -0.0661 0.4918
vn -0.4442 0.1105 0.8891
vn -0.1492 -0.9782 -0.1443
vn -0.3387 0.2516 -0.9066
vn -0.6676 0.0249 0.7441
vn -0.9088 -0.2289 0.3489
vn -0.8528 -0.2263 0.4707
vn 0.9968 -0.0725 0.0343
vn -0.8262 0.0350 0.5623
vn -0.9971 0.0303 0.0704
vn 0.3031 0.7066 0.6394
vn -0.3373 0.8443 0.4164
vn 0.5303 0.8252 -0.1947
vn -0.1658 0.9828 0.0808
vn -0.4061 0.8753 0.2625
vn -0.2360 0.9037 0.3573
vn 0.9024 -0.0626 -0.4264
vn 0.8921 0.0010 -0.4518
vn 0.7486 -0.0346 -0.6621
vn 0.1369 0.9902 0.0273
vn 0.8089 -0.3052 -0.5025
vn 0.8250 -0.2223 -0.5196
vn -0.8521 -0.0149 0.5232
vn -0.7929 -0.0576 0.6066
vn -0.5869 0.6004 0.5432
vn -0.6730 0.5980 0.4353
vn -0.8101 -0.1801 0.5580
vn -0.0430 -0.9969 0.0652
vn -0.2299 -0.9598 -0.1608
vn 0.0322 -0.9905 0.1336
vn -0.5355 0.5649 0.6278
vn -0.0599 -0.9982 -0.0091
vn 0.0931 -0.9925 0.0788
vn -0.9032 -0.0064 0.4291
vn 0.3750 0.9269 0.0174
vn -0.0386 -0.9988 0.0284
vn 0.8090 -0.1665 -0.5637
vn 0.8055 0.5263 -0.2723
vn -0.3110 0.9399 0.1412
vn -0.1031 0.8000 0.5910
vn 0.7000 -0.2465 0.6703
vn 0.4132 0.9095 -0.0465
vn -0.8442 0.3102 0.4370
vn 0.7220 0.6876 -0.0761
vn 0.8834 0.0290 -0.4678
vn 0.8342 -0.0698 -0.5471
vn -0.9096 0.2722 0.3140
vn 0.6898 0.7174 -0.0974
vn -0.0668 -0.9978 -0.0011
vn -0.0255 -0.9993 -0.0273
vn -0.2815 0.9201 0.2725
vn -0.0502 -0.9984 0.0246
vn 0.8712 -0.0376 -0.4894
vn 0.9971 -0.0760 -0.0038
vn 0.3919 0.9073 -0.1524
vn 0.4169 0.9007 -0.1218
vn 0.2067 0.8426 0.4973
vn -0.9937 -0.0047 -0.1120
vn -0.1495 -0.9812 -0.1218
vn 0.4002 0.9156 0.0376
vn 0.4942 0.6936 0.5241
vn 0.2158 -0.1100 -0.9702
vn 0.0819 0.9831 0.1639
vn -0.1771 -0.9599 -0.2173
vn 0.5452 0.1059 0.8316
vn 0.1203 0.9434 0.3089
vn -0.4301 -0.0513 -0.9013
vn -0.0427 -0.9979 -0.0484
vn -0.2196 -0.9668 -0.1310
vn 0.0611 -0.9973 -0.0412
vn 0.1985 0.0457 -0.9790
vn -0.8365 0.0698 -0.5435
vn -0.4529 0.0237 -0.8912
vn 0.2367 -0.2198 0.9464
vn -0.0269 -0.9977 0.0626
vn -0.0232 -0.9976 0.0655
vn -0.9838 0.1014 -0.1479
vn -0.8134 0.4378 0.3831
vn -0.0669 -0.9978 -0.0016
vn -0.0066 -1.0000 -0.0017
vn 0.6635 -0.0909 -0.7426
vn 0.0593 0.0798 0.9950
vn -0.8710 -0.0363 0.4900
vn -0.9331 0.0135 0.3594
vn 0.3130 0.9269 0.2073
vn -0.9992 0.0379 0.0142
vn 0.4191 0.8271 0.3744
vn 0.6555 0.6857 0.3165
vn -0.1291 -0.9717 -0.1978
vn -0.0499 -0.9976 0.0485
vn -0.3262 0.9027 -0.2804
vn -0.0784 0.8460 0.5273
vn 0.7408 0.2103 0.6380
vn 0.2744 0.9560 -0.1033
vn -0.6233 0.3897 -0.6779
vn -0.0274 -0.9977 0.0621
vn -0.8159 0.0359 -0.5771
vn 0.2332 0.9660 0.1118
vn -0.0308 -0.9988 0.0381
vn -0.0878 -0.9960 -0.0170
vn -0.0109 0.2332 0.9724
vn -0.4118 0.9113 0.0011
vn -0.0138 -0.9942 0.1062
vn -0.9993 -0.0084 0.0352
vn -0.3034 0.9337 0.1902
vn 0.8859 -0.1820 -0.4267
vn -0.9281 0.1028 0.3578
vn -0.9499 -0.0501 0.3085
vn 0.9856 -0.1357 -0.1013
vn -0.8149 -0.0680 0.5755
vn -0.3963 0.8539 0.3373
vn 0.9949 -0.0711 -0.0712
vn 0.4433 0.8809 -0.1657
vn -0.7386 0.0101 0.6741
vn 0.3153 0.9029 -0.2923
vn 0.9822 -0.0723 -0.1736
vn 0.8202 -0.0950 -0.5642
vn -0.9744 -0.1214 0.1895
vn 0.1192 0.9549 0.2718
vn 0.7352 -0.1042 -0.6698
vn 0.9871 -0.1594 0.0170
vn -0.0847 -0.9964 -0.0021
vn 0.0331 -0.9971 0.0691
vn 0.6978 0.6470 0.3075
vn -0.8292 0.0291 -0.5582
vn 0.0433 -0.9911 0.1259
vn 0.8888 -0.2236 -0.4000
vn 0.9728 -0.0705 -0.2206
vn -0.9066 0.0353 0.4205
vn 0.7157 -0.0410 -0.6972
vn 0.9905 -0.1289 0.0482
vn -0.7184 -0.0045 0.6956
vn 0.6827 -0.0952 -0.7245
vn -0.3764 0.9262 0.0208
vn -0.6750 -0.1385 0.7247
vn 0.1039 0.9758 0.1923
vn 0.6565 -0.1576 -0.7377
vn 0.7775 -0.0843 -0.6233
vn 0.8321 -0.1861 -0.5225
vn 0.4149 0.8557 -0.3093
vn -0.6630 0.0145 0.7485
vn 0.7344 -0.0395 -0.6776
vn 0.1631 0.9769 0.1381
vt 0.581400 0.071300
vt 0.600200 0.070900
vt 0.598000 0.111500
vt 0.580700 0.109400
vt 0.707500 0.312300
vt 0.692500 0.323400
vt 0.688900 0.287000
vt 0.701700 0.281800
vt 0.684600 0.118500
vt 0.689800 0.161500
vt 0.673300 0.160900
vt 0.667500 0.119200
vt 0.644000 0.072300
vt 0.628500 0.069500
vt 0.632200 0.046000
vt 0.643300 0.046000
vt 0.281200 0.343800
vt 0.295300 0.309200
vt 0.302900 0.313700
vt 0.290200 0.351100
vt 0.254300 0.322000
vt 0.267100 0.293400
vt 0.277300 0.298800
vt 0.264400 0.330000
vt 0.344800 0.416300
vt 0.349500 0.379100
vt 0.367700 0.381700
vt 0.368100 0.420300
vt 0.573800 0.283700
vt 0.593100 0.283300
vt 0.599600 0.325900
vt 0.570800 0.330100
vt 0.327900 0.178500
vt 0.336600 0.177100
vt 0.337100 0.238100
vt 0.329100 0.236000
vt 0.616400 0.070200
vt 0.620000 0.045900
vt 0.590900 0.161900
vt 0.575100 0.159600
vt 0.705600 0.203300
vt 0.696600 0.203500
vt 0.704500 0.161600
vt 0.570200 0.209100
vt 0.585800 0.212000
vt 0.276600 0.384200
vt 0.258800 0.422200
vt 0.241900 0.407900
vt 0.264600 0.374100
vt 0.291000 0.394300
vt 0.279000 0.433600
vt 0.295400 0.440300
vt 0.304400 0.401700
vt 0.316300 0.407200
vt 0.308300 0.445900
vt 0.329100 0.411800
vt 0.324500 0.451200
vt 0.311400 0.282500
vt 0.318300 0.285500
vt 0.312100 0.319200
vt 0.345500 0.240300
vt 0.345800 0.176800
vt 0.357700 0.178100
vt 0.354200 0.242100
vt 0.626400 0.115300
vt 0.613000 0.114600
vt 0.285300 0.270200
vt 0.294200 0.273800
vt 0.286500 0.304000
vt 0.344700 0.074800
vt 0.360900 0.071200
vt 0.371700 0.116900
vt 0.354300 0.118600
vt 0.669600 0.205500
vt 0.648900 0.208000
vt 0.641500 0.162900
vt 0.658200 0.161900
vt 0.683900 0.204100
vt 0.687800 0.235100
vt 0.675600 0.237000
vt 0.382100 0.070500
vt 0.355300 0.045000
vt 0.374300 0.045000
vt 0.273000 0.076800
vt 0.254200 0.086600
vt 0.248000 0.045000
vt 0.268700 0.045000
vt 0.704100 0.077000
vt 0.685600 0.077300
vt 0.687700 0.046200
vt 0.700800 0.046200
vt 0.275900 0.227000
vt 0.286800 0.228500
vt 0.274000 0.266000
vt 0.344900 0.290200
vt 0.368700 0.244800
vt 0.360600 0.293100
vt 0.322700 0.286700
vt 0.303100 0.277800
vt 0.704400 0.117200
vt 0.604500 0.045900
vt 0.321000 0.234200
vt 0.571300 0.372400
vt 0.597000 0.370200
vt 0.301200 0.359500
vt 0.341800 0.045000
vt 0.638900 0.117000
vt 0.298000 0.045000
vt 0.300600 0.066200
vt 0.292000 0.069200
vt 0.288700 0.045000
vt 0.319600 0.322900
vt 0.619100 0.277600
vt 0.616100 0.320800
vt 0.698900 0.233600
vt 0.699200 0.255000
vt 0.686700 0.257900
vt 0.285800 0.120200
vt 0.290500 0.118500
vt 0.306800 0.180600
vt 0.290500 0.172400
vt 0.673100 0.294200
vt 0.677700 0.334000
vt 0.657700 0.347600
vt 0.650800 0.306100
vt 0.334200 0.288500
vt 0.574100 0.249000
vt 0.591800 0.250200
vt 0.607500 0.248800
vt 0.672800 0.261500
vt 0.376500 0.180700
vt 0.371200 0.459000
vt 0.344100 0.455500
vt 0.707000 0.232600
vt 0.709700 0.252500
vt 0.312800 0.366800
vt 0.373500 0.335100
vt 0.354600 0.332700
vt 0.380300 0.296600
vt 0.607300 0.163000
vt 0.601600 0.212700
vt 0.272600 0.336800
vt 0.652600 0.267800
vt 0.653000 0.240900
vt 0.278900 0.122500
vt 0.284300 0.072000
vt 0.297100 0.230200
vt 0.340500 0.328900
vt 0.336100 0.375700
vt 0.582400 0.045900
vt 0.329000 0.325700
vt 0.318100 0.180600
vt 0.668700 0.077000
vt 0.654000 0.073300
vt 0.660600 0.046100
vt 0.673800 0.046100
vt 0.309800 0.232500
vt 0.280600 0.045000
vt 0.625000 0.163500
vt 0.394900 0.113900
vt 0.396600 0.180600
vt 0.337400 0.120700
vt 0.342800 0.120100
vt 0.621400 0.366000
vt 0.637200 0.312800
vt 0.641500 0.356800
vt 0.629700 0.274900
vt 0.308500 0.045000
vt 0.311200 0.069300
vt 0.334400 0.076300
vt 0.328300 0.045000
vt 0.323800 0.371300
vt 0.654700 0.453800
vt 0.630700 0.456100
vt 0.632800 0.432400
vt 0.652900 0.428600
vt 0.718700 0.452600
vt 0.699700 0.448800
vt 0.702100 0.414200
vt 0.725500 0.426100
vt 0.677800 0.449600
vt 0.678100 0.422000
vt 0.604500 0.460500
vt 0.606100 0.436300
vt 0.714500 0.481700
vt 0.737100 0.455900
vt 0.729800 0.483200
vt 0.696600 0.479700
vt 0.675700 0.480700
vt 0.655200 0.481500
vt 0.630700 0.484300
vt 0.602600 0.488500
vt 0.275300 0.452000
vt 0.291300 0.458800
vt 0.288500 0.479400
vt 0.271200 0.471400
vt 0.247700 0.457500
vt 0.253100 0.440600
vt 0.320500 0.489700
vt 0.304100 0.485000
vt 0.305600 0.464400
vt 0.321600 0.470500
vt 0.223600 0.406800
vt 0.233800 0.425500
vt 0.224000 0.439100
vt 0.218100 0.414800
vt 0.737100 0.391000
vt 0.724400 0.379500
vt 0.631400 0.410900
vt 0.605500 0.414300
vt 0.572500 0.418500
vt 0.722500 0.343200
vt 0.711200 0.361700
vt 0.674600 0.397800
vt 0.649400 0.404600
vt 0.254700 0.365000
vt 0.232200 0.391200
vt 0.385900 0.247600
vt 0.282200 0.174400
vt 0.652900 0.118100
vt 0.320900 0.071600
vt 0.271300 0.176900
vt 0.628500 0.245300
vt 0.624600 0.211000
vt 0.319900 0.045000
vt 0.305200 0.120000
vt 0.264800 0.128400
vt 0.327200 0.122800
vt 0.713600 0.276200
vt 0.337500 0.512500
vt 0.339500 0.493100
vt 0.366900 0.495900
vt 0.363500 0.515500
vt 0.341700 0.474600
vt 0.369500 0.477100
vt 0.746700 0.366100
vt 0.736100 0.354800
vt 0.693300 0.385500
vt 0.319000 0.508400
vt 0.302800 0.504200
vt 0.287200 0.499800
vt 0.271200 0.494000
vt 0.254000 0.487900
vt 0.746500 0.431400
vt 0.750300 0.402700
vt 0.232000 0.465800
vt 0.216900 0.442700
vt 0.237600 0.487200
vt 0.569000 0.466600
vt 0.570700 0.441600
vt 0.568600 0.493800
vt 0.054800 0.083300
vt 0.061900 0.083500
vt 0.061900 0.085500
vt 0.054600 0.085200
vt 0.061900 0.081500
vt 0.069100 0.081200
vt 0.069200 0.083400
vt 0.076700 0.081100
vt 0.076700 0.083300
vt 0.084300 0.081300
vt 0.084300 0.083300
vt 0.090600 0.081900
vt 0.090600 0.083200
vt 0.046600 0.085300
vt 0.046800 0.083600
vt 0.039000 0.085300
vt 0.039200 0.083600
vt 0.033000 0.085000
vt 0.033200 0.083600
vt 0.038400 0.089400
vt 0.031400 0.088600
vt 0.046400 0.089400
vt 0.054100 0.089400
vt 0.039200 0.081900
vt 0.033300 0.082100
vt 0.032300 0.078400
vt 0.039200 0.077800
vt 0.047000 0.081800
vt 0.047300 0.077700
vt 0.054900 0.081400
vt 0.055100 0.077400
vt 0.085100 0.077800
vt 0.093300 0.079900
vt 0.077400 0.077300
vt 0.069500 0.077300
vt 0.061900 0.077500
vt 0.028400 0.084900
vt 0.028500 0.083700
vt 0.069400 0.085500
vt 0.076800 0.085400
vt 0.028600 0.082400
vt 0.069200 0.107800
vt 0.069100 0.105600
vt 0.076700 0.105500
vt 0.076700 0.107700
vt 0.084300 0.105700
vt 0.084300 0.107700
vt 0.090700 0.106300
vt 0.090600 0.107700
vt 0.077400 0.101700
vt 0.085100 0.102200
vt 0.069500 0.101700
vt 0.061900 0.095700
vt 0.061900 0.093700
vt 0.069100 0.093400
vt 0.069200 0.095600
vt 0.076700 0.093300
vt 0.076700 0.095500
vt 0.084300 0.093500
vt 0.084300 0.095500
vt 0.090600 0.094100
vt 0.090600 0.095400
vt 0.039200 0.095900
vt 0.039000 0.097500
vt 0.033000 0.097200
vt 0.033200 0.095800
vt 0.038400 0.101600
vt 0.031400 0.100800
vt 0.039200 0.094100
vt 0.033300 0.094300
vt 0.032300 0.090600
vt 0.039200 0.090000
vt 0.047000 0.094000
vt 0.047300 0.089900
vt 0.054900 0.093600
vt 0.055100 0.089600
vt 0.085100 0.090000
vt 0.093300 0.092100
vt 0.077400 0.089500
vt 0.069500 0.089500
vt 0.061900 0.089700
vt 0.028600 0.094700
vt 0.025700 0.093100
vt 0.028400 0.097100
vt 0.028500 0.095900
vt 0.054800 0.095500
vt 0.061900 0.097700
vt 0.069400 0.097700
vt 0.076800 0.097600
vt 0.084500 0.097400
vt 0.090500 0.096600
vt 0.046800 0.095800
vt 0.025000 0.095900
vt 0.298000 0.510100
vt 0.345800 0.507000
vt 0.354100 0.542500
vt 0.313100 0.550000
vt 0.405900 0.226700
vt 0.438100 0.239100
vt 0.435500 0.258200
vt 0.402800 0.244200
vt 0.370600 0.236500
vt 0.374300 0.218900
vt 0.412400 0.197900
vt 0.443700 0.206000
vt 0.301500 0.199700
vt 0.305100 0.221500
vt 0.291600 0.223800
vt 0.282300 0.204600
vt 0.470500 0.256300
vt 0.502100 0.271900
vt 0.499000 0.293300
vt 0.467700 0.277000
vt 0.300600 0.435900
vt 0.275400 0.405600
vt 0.291200 0.409000
vt 0.316700 0.438700
vt 0.340800 0.471500
vt 0.325300 0.471100
vt 0.475900 0.216100
vt 0.508400 0.226700
vt 0.258200 0.375400
vt 0.244800 0.343900
vt 0.260300 0.347400
vt 0.273700 0.378400
vt 0.154400 0.522600
vt 0.140800 0.473000
vt 0.155900 0.471100
vt 0.167200 0.522000
vt 0.173800 0.565300
vt 0.161500 0.564200
vt 0.597800 0.110200
vt 0.599800 0.093900
vt 0.621100 0.096100
vt 0.621200 0.110300
vt 0.531700 0.656200
vt 0.503100 0.640500
vt 0.525400 0.613400
vt 0.560200 0.634300
vt 0.223800 0.272500
vt 0.226600 0.258600
vt 0.240300 0.273000
vt 0.238900 0.282400
vt 0.352200 0.190800
vt 0.345500 0.216600
vt 0.322300 0.219000
vt 0.325800 0.194400
vt 0.319200 0.234000
vt 0.305000 0.233100
vt 0.295100 0.231200
vt 0.358300 0.584700
vt 0.322500 0.589600
vt 0.612500 0.297000
vt 0.570400 0.294700
vt 0.576200 0.249700
vt 0.614500 0.259600
vt 0.341400 0.234000
vt 0.238100 0.315800
vt 0.238000 0.295200
vt 0.248000 0.299400
vt 0.251300 0.319900
vt 0.217600 0.312900
vt 0.220500 0.290000
vt 0.245200 0.278100
vt 0.246400 0.286500
vt 0.813100 0.755500
vt 0.774700 0.784300
vt 0.729400 0.742500
vt 0.759700 0.714300
vt 0.128300 0.097500
vt 0.155000 0.071500
vt 0.171200 0.088400
vt 0.144300 0.113800
vt 0.161800 0.262900
vt 0.172600 0.237400
vt 0.183800 0.247400
vt 0.175500 0.271100
vt 0.128900 0.249400
vt 0.139400 0.222400
vt 0.369900 0.681000
vt 0.380300 0.714300
vt 0.348300 0.714900
vt 0.340000 0.681000
vt 0.231600 0.376100
vt 0.220400 0.342900
vt 0.697200 0.658300
vt 0.718500 0.679200
vt 0.692600 0.708800
vt 0.668300 0.681900
vt 0.711400 0.056500
vt 0.712800 0.038700
vt 0.746900 0.042200
vt 0.745500 0.059700
vt 0.114300 0.675000
vt 0.121900 0.711200
vt 0.103500 0.711400
vt 0.096900 0.674900
vt 0.672300 0.733200
vt 0.634700 0.694900
vt 0.534200 0.284700
vt 0.565900 0.319800
vt 0.531000 0.306900
vt 0.360600 0.501400
vt 0.371000 0.532000
vt 0.279700 0.471800
vt 0.437400 0.076700
vt 0.473000 0.077200
vt 0.474200 0.092100
vt 0.439300 0.090200
vt 0.120200 0.564400
vt 0.111600 0.518000
vt 0.309900 0.254900
vt 0.292100 0.248400
vt 0.511900 0.080400
vt 0.555400 0.087500
vt 0.554900 0.104200
vt 0.512100 0.096900
vt 0.226700 0.153100
vt 0.210800 0.168600
vt 0.195300 0.146900
vt 0.218100 0.127300
vt 0.361300 0.640300
vt 0.330400 0.642000
vt 0.495900 0.708600
vt 0.512400 0.678800
vt 0.550200 0.681600
vt 0.531100 0.692600
vt 0.244100 0.224100
vt 0.233600 0.239300
vt 0.212600 0.219100
vt 0.231000 0.201200
vt 0.334900 0.100200
vt 0.367100 0.089400
vt 0.370900 0.101500
vt 0.339300 0.112100
vt 0.467900 0.708000
vt 0.486300 0.669000
vt 0.659900 0.528500
vt 0.700500 0.551800
vt 0.686000 0.580900
vt 0.643300 0.556500
vt 0.183400 0.214100
vt 0.194000 0.224600
vt 0.267400 0.297500
vt 0.276700 0.318000
vt 0.286000 0.290100
vt 0.298700 0.311500
vt 0.689900 0.404300
vt 0.714600 0.373100
vt 0.743300 0.396400
vt 0.722300 0.423600
vt 0.602700 0.533000
vt 0.620900 0.506000
vt 0.353800 0.751700
vt 0.390700 0.748500
vt 0.399300 0.768200
vt 0.361100 0.781900
vt 0.573900 0.668200
vt 0.561600 0.506800
vt 0.580600 0.561600
vt 0.538900 0.532300
vt 0.318400 0.410000
vt 0.343100 0.441000
vt 0.235200 0.163800
vt 0.256000 0.135400
vt 0.261400 0.147800
vt 0.287200 0.344200
vt 0.300100 0.376600
vt 0.399900 0.747900
vt 0.388000 0.715300
vt 0.430800 0.288200
vt 0.397200 0.272200
vt 0.553300 0.587900
vt 0.514500 0.561800
vt 0.461100 0.306800
vt 0.447300 0.335700
vt 0.419400 0.315400
vt 0.458200 0.572800
vt 0.474500 0.534500
vt 0.491500 0.592500
vt 0.747900 0.097400
vt 0.780300 0.106600
vt 0.775800 0.117900
vt 0.737700 0.109100
vt 0.115100 0.145000
vt 0.095200 0.163500
vt 0.080200 0.149400
vt 0.098100 0.129400
vt 0.275800 0.174600
vt 0.259000 0.212400
vt 0.249300 0.187400
vt 0.824200 0.718800
vt 0.783900 0.680500
vt 0.792500 0.653300
vt 0.814600 0.678600
vt 0.487700 0.323200
vt 0.818500 0.129400
vt 0.811700 0.138300
vt 0.196900 0.191500
vt 0.205500 0.199000
vt 0.540200 0.238500
vt 0.785700 0.328200
vt 0.758500 0.320100
vt 0.756400 0.313200
vt 0.785900 0.320300
vt 0.503900 0.045900
vt 0.470600 0.044500
vt 0.152600 0.196700
vt 0.343300 0.400400
vt 0.366600 0.430100
vt 0.305800 0.112400
vt 0.296300 0.082900
vt 0.327500 0.069800
vt 0.252800 0.267100
vt 0.245800 0.255900
vt 0.255900 0.241100
vt 0.265900 0.253200
vt 0.302700 0.272500
vt 0.282200 0.264100
vt 0.473000 0.621300
vt 0.259600 0.280800
vt 0.275600 0.270600
vt 0.746800 0.646600
vt 0.458600 0.651300
vt 0.519800 0.477800
vt 0.549000 0.462100
vt 0.584900 0.484400
vt 0.120900 0.756100
vt 0.137700 0.752700
vt 0.846100 0.075400
vt 0.838400 0.091900
vt 0.791700 0.072000
vt 0.797300 0.055400
vt 0.811000 0.332500
vt 0.807800 0.337100
vt 0.363300 0.263200
vt 0.311800 0.337200
vt 0.698000 0.460900
vt 0.731600 0.480100
vt 0.711900 0.521300
vt 0.675800 0.499800
vt 0.641300 0.479400
vt 0.668000 0.442400
vt 0.766000 0.423000
vt 0.753100 0.438400
vt 0.439900 0.690900
vt 0.429900 0.661200
vt 0.436500 0.632900
vt 0.719700 0.306100
vt 0.719600 0.310300
vt 0.675700 0.306000
vt 0.675000 0.297500
vt 0.612100 0.310800
vt 0.377100 0.681300
vt 0.368500 0.640100
vt 0.367900 0.582900
vt 0.373200 0.582800
vt 0.373700 0.640400
vt 0.379100 0.541500
vt 0.382000 0.680600
vt 0.392800 0.713200
vt 0.613400 0.317900
vt 0.576400 0.330400
vt 0.676600 0.311500
vt 0.719800 0.317800
vt 0.593200 0.612000
vt 0.726500 0.594200
vt 0.761700 0.623000
vt 0.717700 0.619600
vt 0.279300 0.239500
vt 0.270400 0.229100
vt 0.618300 0.063100
vt 0.672500 0.057200
vt 0.675900 0.096800
vt 0.250500 0.104000
vt 0.602900 0.651800
vt 0.270900 0.094400
vt 0.278500 0.125000
vt 0.489700 0.164000
vt 0.455800 0.159100
vt 0.183700 0.291100
vt 0.189300 0.264300
vt 0.667300 0.109500
vt 0.714100 0.096700
vt 0.705500 0.108800
vt 0.140700 0.323100
vt 0.134100 0.360600
vt 0.097800 0.359200
vt 0.106100 0.317700
vt 0.189400 0.393600
vt 0.244900 0.405700
vt 0.197300 0.424200
vt 0.712600 0.214000
vt 0.714100 0.275900
vt 0.670500 0.268000
vt 0.673700 0.210700
vt 0.135500 0.427700
vt 0.151100 0.430300
vt 0.262400 0.603100
vt 0.272100 0.649300
vt 0.196900 0.242900
vt 0.662100 0.386700
vt 0.643200 0.372100
vt 0.647500 0.353700
vt 0.673900 0.360600
vt 0.790400 0.286300
vt 0.825000 0.295200
vt 0.181600 0.322000
vt 0.219600 0.498900
vt 0.236500 0.541700
vt 0.700000 0.761500
vt 0.252700 0.581100
vt 0.297600 0.167500
vt 0.183700 0.358300
vt 0.261700 0.435800
vt 0.206800 0.458300
vt 0.177700 0.639300
vt 0.165000 0.642700
vt 0.164000 0.589600
vt 0.175700 0.592300
vt 0.177900 0.706500
vt 0.166200 0.709200
vt 0.163400 0.682400
vt 0.176400 0.680600
vt 0.151700 0.289700
vt 0.165400 0.296100
vt 0.437100 0.045200
vt 0.402000 0.080500
vt 0.400500 0.048700
vt 0.421700 0.155300
vt 0.333400 0.259000
vt 0.327100 0.278400
vt 0.672100 0.036500
vt 0.617400 0.038300
vt 0.097300 0.631100
vt 0.113700 0.635800
vt 0.096600 0.579600
vt 0.119800 0.583300
vt 0.495300 0.499800
vt 0.633800 0.631800
vt 0.611200 0.460600
vt 0.283300 0.137500
vt 0.566000 0.183500
vt 0.605800 0.195800
vt 0.132600 0.391400
vt 0.150100 0.365400
vt 0.148700 0.392600
vt 0.310400 0.124500
vt 0.381300 0.191700
vt 0.622000 0.586000
vt 0.642000 0.425500
vt 0.155100 0.329400
vt 0.404700 0.093200
vt 0.324700 0.368400
vt 0.176600 0.743600
vt 0.788800 0.221300
vt 0.750300 0.280500
vt 0.746600 0.216400
vt 0.618600 0.411000
vt 0.169300 0.170200
vt 0.216900 0.181100
vt 0.832900 0.224600
vt 0.140500 0.798400
vt 0.152800 0.792300
vt 0.182500 0.048200
vt 0.198900 0.066200
vt 0.289500 0.754800
vt 0.282600 0.718100
vt 0.663300 0.608600
vt 0.582800 0.444400
vt 0.094100 0.391700
vt 0.355800 0.285300
vt 0.388200 0.296700
vt 0.096300 0.427400
vt 0.727800 0.779800
vt 0.185300 0.737500
vt 0.201900 0.766000
vt 0.192100 0.775000
vt 0.408600 0.763100
vt 0.445200 0.603700
vt 0.103500 0.468000
vt 0.597900 0.061000
vt 0.277900 0.685600
vt 0.355400 0.156800
vt 0.387600 0.154500
vt 0.363100 0.057200
vt 0.525900 0.171500
vt 0.325500 0.161200
vt 0.292900 0.789600
vt 0.627100 0.204000
vt 0.119000 0.280400
vt 0.550200 0.053000
s 1
usemtl BodySuit
f 9/1/1 207/2/1 192/3/1 194/4/1
f 222/5/2 223/6/2 124/7/2 123/8/2
f 203/9/3 187/10/3 188/11/3 204/12/3
f 205/13/4 8/14/4 24/15/4 27/16/4
f 120/17/5 136/18/5 133/19/5 117/20/5
f 122/21/6 138/22/6 214/23/6 213/24/6
f 229/25/7 115/26/7 114/27/7 228/28/7
f 130/29/8 128/30/8 112/31/8 114/32/8
f 175/33/9 180/34/9 164/35/9 159/36/9
f 4/37/10 5/38/10 24/15/10 8/14/10
f 194/4/11 192/3/11 176/39/11 178/40/11
f 170/41/12 171/42/12 187/10/12 186/43/12
f 162/44/13 178/40/13 176/39/13 160/45/13
f 219/46/14 102/47/14 105/48/14 220/49/14
f 233/50/15 96/51/15 102/47/15 219/46/15
f 101/52/16 232/53/16 231/54/16 103/55/16
f 230/56/17 104/57/17 103/55/17 231/54/17
f 133/19/18 149/58/18 143/59/18 127/60/18
f 166/61/19 182/62/19 183/63/19 167/64/19
f 4/37/20 8/14/20 193/65/20 33/66/20
f 215/67/21 153/68/21 137/69/21 214/23/21
f 14/70/22 10/71/22 195/72/22 199/73/22
f 158/74/23 157/75/23 173/76/23 174/77/23
f 158/74/24 172/78/24 156/79/24 142/80/24
f 9/81/25 10/71/25 16/82/25 6/83/25
f 30/84/26 210/85/26 22/86/26 31/87/26
f 210/88/27 211/89/27 28/90/27 22/91/27
f 170/92/28 216/93/28 215/67/28 154/94/28
f 151/95/29 167/64/29 163/96/29 147/97/29
f 159/36/30 164/35/30 148/98/30 143/59/30
f 153/68/31 152/99/31 136/18/31 137/69/31
f 202/100/32 203/9/32 211/89/32 210/88/32
f 4/37/33 207/2/33 29/101/33 5/38/33
f 149/58/34 165/102/34 159/36/34 143/59/34
f 228/103/35 114/32/35 112/31/35 227/104/35
f 127/60/36 111/105/36 117/20/36 133/19/36
f 133/19/37 136/18/37 152/99/37 149/58/37
f 14/70/38 21/106/38 16/82/38 10/71/38
f 205/13/39 189/107/39 193/65/39 8/14/39
f 18/108/40 12/109/40 208/110/40 20/111/40
f 143/59/41 148/98/41 132/112/41 127/60/41
f 128/30/42 39/113/42 35/114/42 112/31/42
f 155/115/43 139/116/43 140/117/43 156/79/43
f 201/118/44 200/119/44 184/120/44 185/121/44
f 110/122/45 224/123/45 225/124/45 109/125/45
f 150/126/46 166/61/46 167/64/46 151/95/46
f 128/30/47 130/29/47 146/127/47 144/128/47
f 128/30/48 144/128/48 41/129/48 39/113/48
f 126/130/49 142/80/49 156/79/49 140/117/49
f 199/73/50 195/72/50 179/131/50 183/63/50
f 167/64/51 183/63/51 179/131/51 163/96/51
f 223/6/52 224/123/52 110/122/52 124/7/52
f 228/28/53 99/132/53 100/133/53 229/25/53
f 154/134/54 138/135/54 139/116/54 155/115/54
f 111/105/55 127/60/55 132/112/55 116/136/55
f 130/137/56 131/138/56 147/97/56 146/139/56
f 117/20/57 219/46/57 220/49/57 120/17/57
f 229/25/58 100/133/58 104/57/58 230/56/58
f 176/39/59 32/140/59 42/141/59 160/45/59
f 32/140/60 176/39/60 192/3/60 33/66/60
f 172/78/61 188/11/61 187/10/61 171/42/61
f 213/24/62 214/23/62 137/69/62 121/142/62
f 125/143/63 141/144/63 142/80/63 126/130/63
f 218/145/64 30/84/64 209/146/64 201/118/64
f 216/93/65 169/147/65 153/68/65 215/67/65
f 135/148/66 131/138/66 115/26/66 119/149/66
f 157/75/67 158/74/67 142/80/67 141/144/67
f 207/2/68 9/1/68 6/150/68 29/101/68
f 148/98/69 150/126/69 134/151/69 132/112/69
f 42/141/70 41/129/70 144/128/70 160/45/70
f 165/102/71 181/152/71 175/33/71 159/36/71
f 121/142/72 137/69/72 136/18/72 120/17/72
f 209/146/73 208/110/73 200/119/73 201/118/73
f 212/153/74 206/154/74 25/155/74 26/156/74
f 206/154/75 205/13/75 27/16/75 25/155/75
f 135/148/76 151/95/76 147/97/76 131/138/76
f 185/121/77 184/120/77 168/157/77 169/147/77
f 186/43/78 187/10/78 203/9/78 202/100/78
f 180/34/79 182/62/79 166/61/79 164/35/79
f 20/111/80 208/110/80 209/146/80 23/158/80
f 193/65/81 189/107/81 173/76/81 177/159/81
f 194/160/82 178/161/82 179/131/82 195/72/82
f 196/162/83 198/163/83 182/62/83 180/34/83
f 227/104/84 112/31/84 35/114/84 40/164/84
f 198/163/85 199/73/85 183/63/85 182/62/85
f 40/164/86 35/114/86 113/165/86 226/166/86
f 39/113/87 129/167/87 113/165/87 35/114/87
f 140/117/88 139/116/88 123/8/88 124/7/88
f 18/108/89 15/168/89 7/169/89 12/109/89
f 168/157/90 184/120/90 181/152/90 165/102/90
f 13/170/91 19/171/91 21/106/91 14/70/91
f 119/149/92 115/26/92 229/25/92 230/56/92
f 171/42/93 155/115/93 156/79/93 172/78/93
f 116/136/94 118/172/94 231/54/94 232/53/94
f 58/173/95 37/174/95 38/175/95 61/176/95
f 51/177/96 50/178/96 55/179/96 56/180/96
f 50/178/97 49/181/97 54/182/97 55/179/97
f 37/174/98 53/183/98 59/184/98 38/175/98
f 45/185/99 51/177/99 52/186/99 46/187/99
f 45/185/100 44/188/100 50/178/100 51/177/100
f 44/188/101 43/189/101 49/181/101 50/178/101
f 48/190/102 58/173/102 49/181/102 43/189/102
f 37/174/103 58/173/103 48/190/103 34/191/103
f 34/191/104 47/192/104 53/183/104 37/174/104
f 61/176/105 54/182/105 49/181/105 58/173/105
f 70/193/106 82/194/106 79/195/106 80/196/106
f 80/196/107 78/197/107 83/198/107 70/193/107
f 67/199/108 77/200/108 84/201/108 85/202/108
f 82/194/109 84/201/109 77/200/109 79/195/109
f 90/203/110 89/204/110 86/205/110 87/206/110
f 92/207/111 56/180/111 55/179/111 93/208/111
f 40/164/112 36/209/112 97/210/112 227/104/112
f 227/104/113 97/210/113 99/211/113 228/103/113
f 223/6/114 222/5/114 107/212/114 108/213/114
f 225/124/115 94/214/115 98/215/115 226/166/115
f 221/216/116 220/49/116 105/48/116 106/217/116
f 147/97/117 163/96/117 162/218/117 146/139/117
f 218/145/118 201/118/118 185/121/118 217/219/118
f 206/154/119 190/220/119 189/107/119 205/13/119
f 11/221/120 13/170/120 198/163/120 196/162/120
f 170/92/121 186/222/121 217/219/121 216/93/121
f 129/167/122 145/223/122 141/144/122 125/143/122
f 192/3/123 207/2/123 4/37/123 33/66/123
f 146/127/124 162/44/124 160/45/124 144/128/124
f 212/153/125 204/12/125 190/220/125 206/154/125
f 145/223/126 161/224/126 157/75/126 141/144/126
f 164/35/127 166/61/127 150/126/127 148/98/127
f 149/58/128 152/99/128 168/157/128 165/102/128
f 126/130/129 140/117/129 124/7/129 110/122/129
f 134/151/130 135/148/130 119/149/130 118/172/130
f 154/134/131 155/115/131 171/42/131 170/41/131
f 15/168/132 17/225/132 11/221/132 7/169/132
f 125/143/133 126/130/133 110/122/133 109/125/133
f 221/216/134 121/142/134 120/17/134 220/49/134
f 181/152/135 184/120/135 200/119/135 197/226/135
f 217/219/136 186/222/136 202/227/136 218/145/136
f 41/129/137 145/223/137 129/167/137 39/113/137
f 7/169/138 191/228/138 197/226/138 12/109/138
f 14/70/139 199/73/139 198/163/139 13/170/139
f 33/66/140 193/65/140 177/159/140 32/140/140
f 32/140/141 177/159/141 161/224/141 42/141/141
f 134/151/142 150/126/142 151/95/142 135/148/142
f 122/229/143 123/8/143 139/116/143 138/135/143
f 63/230/144 66/231/144 65/232/144 62/233/144
f 66/231/145 69/234/145 68/235/145 65/232/145
f 78/197/146 86/205/146 89/204/146 83/198/146
f 169/147/147 216/93/147 217/219/147 185/121/147
f 111/105/148 233/50/148 219/46/148 117/20/148
f 197/226/149 191/228/149 175/33/149 181/152/149
f 211/89/150 212/153/150 26/156/150 28/90/150
f 7/169/151 11/221/151 196/162/151 191/228/151
f 40/164/152 226/166/152 98/215/152 36/209/152
f 88/236/153 92/207/153 93/208/153 91/237/153
f 100/133/154 99/132/154 68/235/154 69/234/154
f 224/123/155 95/238/155 94/214/155 225/124/155
f 157/75/156 161/224/156 177/159/156 173/76/156
f 210/85/157 30/84/157 218/145/157 202/227/157
f 172/78/158 158/74/158 174/77/158 188/11/158
f 17/225/159 19/171/159 13/170/159 11/221/159
f 118/172/160 116/136/160 132/112/160 134/151/160
f 119/149/161 230/56/161 231/54/161 118/172/161
f 109/125/162 225/124/162 226/166/162 113/165/162
f 131/138/163 130/137/163 114/27/163 115/26/163
f 42/141/164 161/224/164 145/223/164 41/129/164
f 10/71/165 9/81/165 194/160/165 195/72/165
f 64/239/166 71/240/166 77/200/166 67/199/166
f 79/195/167 77/200/167 71/240/167 74/241/167
f 80/196/168 79/195/168 74/241/168 75/242/168
f 78/197/169 80/196/169 75/242/169 73/243/169
f 57/244/170 52/186/170 51/177/170 56/180/170
f 60/245/171 57/244/171 56/180/171 92/207/171
f 76/246/172 81/247/172 86/205/172 78/197/172
f 76/246/173 78/197/173 73/243/173 72/248/173
f 64/239/174 67/199/174 66/231/174 63/230/174
f 67/199/175 85/202/175 69/234/175 66/231/175
f 214/23/176 138/22/176 154/94/176 215/67/176
f 211/89/177 203/9/177 204/12/177 212/153/177
f 209/146/178 30/84/178 31/87/178 23/158/178
f 111/105/179 116/136/179 232/53/179 233/50/179
f 96/51/180 233/50/180 232/53/180 101/52/180
f 65/249/181 68/250/181 59/184/181 53/183/181
f 62/251/182 65/249/182 53/183/182 47/192/182
f 169/147/183 168/157/183 152/99/183 153/68/183
f 70/193/184 83/198/184 102/47/184 96/51/184
f 96/51/185 101/52/185 82/194/185 70/193/185
f 101/52/186 103/55/186 84/201/186 82/194/186
f 85/202/187 84/201/187 103/55/187 104/57/187
f 69/234/188 85/202/188 104/57/188 100/133/188
f 59/184/189 68/250/189 99/211/189 97/210/189
f 38/175/190 59/184/190 97/210/190 36/209/190
f 36/209/191 98/215/191 61/176/191 38/175/191
f 54/182/192 61/176/192 98/215/192 94/214/192
f 55/179/193 54/182/193 94/214/193 95/238/193
f 93/208/194 55/179/194 95/238/194 108/213/194
f 91/237/195 93/208/195 108/213/195 107/212/195
f 106/217/196 105/48/196 89/204/196 90/203/196
f 105/48/197 102/47/197 83/198/197 89/204/197
f 191/228/198 196/162/198 180/34/198 175/33/198
f 190/220/199 204/12/199 188/11/199 174/77/199
f 129/167/200 125/143/200 109/125/200 113/165/200
f 189/107/201 190/220/201 174/77/201 173/76/201
f 208/110/202 12/109/202 197/226/202 200/119/202
f 163/96/203 179/131/203 178/161/203 162/218/203
f 223/6/204 108/213/204 95/238/204 224/123/204
usemtl Shoes
f 266/252/205 267/253/205 237/254/205 236/255/205
f 267/253/206 235/256/206 238/257/206 268/258/206
f 268/258/207 238/257/207 240/259/207 269/260/207
f 269/260/208 240/259/208 242/261/208 270/262/208
f 270/262/209 242/261/209 243/263/209 271/264/209
f 266/252/210 236/255/210 246/265/210 272/266/210
f 272/266/211 246/265/211 248/267/211 273/268/211
f 273/268/212 248/267/212 250/269/212 274/270/212
f 250/269/213 248/267/213 253/271/213 254/272/213
f 248/267/214 246/265/214 252/273/214 253/271/214
f 246/265/215 236/255/215 251/274/215 252/273/215
f 247/275/216 249/276/216 263/277/216 262/278/216
f 245/279/217 247/275/217 262/278/217 261/280/217
f 234/281/218 245/279/218 261/280/218 255/282/218
f 243/263/219 242/261/219 259/283/219 260/284/219
f 242/261/220 240/259/220 258/285/220 259/283/220
f 240/259/221 238/257/221 257/286/221 258/285/221
f 238/257/222 235/256/222 256/287/222 257/286/222
f 235/256/223 234/281/223 255/282/223 256/287/223
f 274/270/224 250/269/224 265/288/224 275/289/224
f 234/281/225 235/256/225 267/253/225 266/252/225
f 237/254/226 267/253/226 268/258/226 239/290/226
f 239/290/227 268/258/227 269/260/227 241/291/227
f 234/281/228 266/252/228 272/266/228 245/279/228
f 245/279/229 272/266/229 273/268/229 247/275/229
f 247/275/230 273/268/230 274/270/230 249/276/230
f 249/276/231 274/270/231 275/289/231 264/292/231
f 289/293/232 279/294/232 280/295/232 290/296/232
f 290/296/233 280/295/233 282/297/233 291/298/233
f 291/298/234 282/297/234 283/299/234 292/300/234
f 282/297/235 280/295/235 286/301/235 287/302/235
f 280/295/236 279/294/236 285/303/236 286/301/236
f 325/304/237 295/305/237 297/306/237 326/307/237
f 326/307/238 297/306/238 299/308/238 327/309/238
f 327/309/239 299/308/239 301/310/239 328/311/239
f 328/311/240 301/310/240 303/312/240 329/313/240
f 331/314/241 307/315/241 309/316/241 332/317/241
f 309/316/242 307/315/242 310/318/242 311/319/242
f 306/320/243 308/321/243 320/322/243 319/323/243
f 305/324/244 306/320/244 319/323/244 318/325/244
f 294/326/245 305/324/245 318/325/245 312/327/245
f 303/312/246 301/310/246 316/328/246 317/329/246
f 301/310/247 299/308/247 315/330/247 316/328/247
f 299/308/248 297/306/248 314/331/248 315/330/248
f 297/306/249 295/305/249 313/332/249 314/331/249
f 295/305/250 294/326/250 312/327/250 313/332/250
f 320/322/251 308/321/251 321/333/251 323/334/251
f 332/317/252 309/316/252 322/335/252 333/336/252
f 294/326/253 295/305/253 325/304/253 324/337/253
f 296/338/254 325/304/254 326/307/254 298/339/254
f 298/339/255 326/307/255 327/309/255 300/340/255
f 300/340/256 327/309/256 328/311/256 302/341/256
f 302/341/257 328/311/257 329/313/257 304/342/257
f 294/326/258 324/337/258 330/343/258 305/324/258
f 305/324/259 330/343/259 331/314/259 306/320/259
f 306/320/260 331/314/260 332/317/260 308/321/260
f 308/321/261 332/317/261 333/336/261 321/333/261
f 321/333/262 333/336/262 334/344/262 323/334/262
f 358/345/263 356/346/263 448/347/263 449/348/263
f 335/349/264 403/350/264 541/351/264 392/352/264
f 335/349/265 392/352/265 533/353/265 383/354/265
f 337/355/266 404/356/266 403/350/266 335/349/266
f 345/357/267 343/358/267 367/359/267 368/360/267
f 336/361/268 375/362/268 516/363/268 391/364/268
f 336/361/269 391/364/269 541/351/269 403/350/269
f 339/365/270 405/366/270 542/367/270 393/368/270
f 339/365/271 393/368/271 517/369/271 377/370/271
f 338/371/272 376/372/272 375/362/272 336/361/272
f 340/373/273 385/374/273 534/375/273 394/376/273
f 340/373/274 394/376/274 542/367/274 405/366/274
f 444/377/275 528/378/275 605/379/275 505/380/275
f 617/381/276 566/382/276 444/377/276 505/380/276
f 616/383/277 565/384/277 443/385/277 502/386/277
f 579/387/278 551/388/278 416/389/278 459/390/278
f 350/391/279 372/392/279 371/393/279 348/394/279
f 346/395/280 344/396/280 423/397/280 424/398/280
f 343/358/281 423/397/281 549/399/281 411/400/281
f 343/358/282 411/400/282 511/401/282 367/359/282
f 362/402/283 357/403/283 449/348/283 448/347/283
f 360/404/284 446/405/284 447/406/284 355/407/284
f 344/396/285 383/354/285 533/353/285 412/408/285
f 344/396/286 412/408/286 549/399/286 423/397/286
f 345/357/287 424/398/287 423/397/287 343/358/287
f 347/409/288 425/410/289 550/411/290 414/412/288
f 347/409/291 414/412/291 534/375/291 385/374/291
f 349/413/292 426/414/292 425/410/292 347/409/292
f 348/394/293 371/393/293 512/415/293 413/416/293
f 348/394/294 413/416/294 550/411/290 425/410/289
f 519/417/295 568/418/295 462/419/295 429/420/295
f 557/421/296 581/422/296 464/423/296 441/424/296
f 554/425/297 421/426/297 499/427/297 613/428/297
f 421/426/298 554/425/298 548/429/298 409/430/298
f 361/431/299 373/432/299 374/433/299 352/434/299
f 342/435/300 386/436/300 385/374/300 340/373/300
f 557/437/301 625/438/301 622/439/301 581/440/301
f 632/441/302 427/442/302 506/443/302 627/444/302
f 628/445/303 629/446/303 509/447/303 428/448/303
f 623/449/304 555/450/304 581/440/304 622/439/304
f 353/451/305 446/405/305 562/452/305 438/453/305
f 353/451/306 438/453/306 516/363/306 375/362/306
f 356/346/307 377/370/307 517/369/307 439/454/307
f 356/346/308 439/454/308 563/455/308 448/347/308
f 358/345/309 378/456/309 377/370/309 356/346/309
f 545/457/310 400/458/310 493/459/310 610/460/310
f 444/377/311 566/382/311 561/461/311 436/462/311
f 580/463/312 460/464/312 411/400/312 549/399/312
f 527/465/313 442/466/313 503/467/313 604/468/313
f 573/469/314 529/470/314 518/471/314 567/472/314
f 362/402/315 484/473/315 433/474/315 357/403/315
f 567/475/316 458/476/316 407/477/316 507/478/316
f 380/479/317 466/480/317 620/481/317 606/482/317
f 420/483/318 537/484/319 608/485/319 497/486/320
f 567/475/321 518/487/321 415/488/321 458/476/321
f 455/489/322 387/490/322 539/491/323 577/492/324
f 499/427/325 421/426/325 525/493/325 602/494/325
f 595/495/326 476/496/326 414/412/326 550/411/326
f 595/495/327 552/497/327 417/498/327 476/496/327
f 564/499/328 441/500/328 464/501/328 582/502/328
f 577/492/329 543/503/329 395/504/329 455/489/329
f 467/505/330 468/506/330 381/507/330 382/508/330
f 579/387/331 547/509/331 407/477/331 458/476/331
f 592/510/332 543/503/333 396/511/334 469/512/335
f 593/513/336 472/514/336 393/368/336 542/367/336
f 618/515/337 573/469/337 523/516/337 600/517/337
f 591/518/338 471/519/338 394/376/338 534/375/338
f 586/520/339 468/506/339 373/432/339 513/521/339
f 578/522/340 456/523/340 392/352/340 541/351/340
f 535/524/341 590/525/342 469/512/343 396/511/344
f 578/522/345 457/526/345 398/527/345 544/528/345
f 410/529/346 532/530/346 590/525/346 474/531/346
f 524/532/347 574/533/347 619/534/347 601/535/347
f 479/536/348 437/537/348 556/538/348 596/539/348
f 600/540/349 368/360/349 451/541/349 618/542/349
f 584/543/350 477/544/350 428/545/350 509/546/350
f 516/363/351 572/547/351 457/526/351 391/364/351
f 574/533/352 530/548/352 607/549/352 619/534/352
f 588/550/353 620/551/353 602/494/353 525/493/353
f 354/552/354 353/451/354 375/362/354 376/372/354
f 570/553/355 510/554/355 369/555/355 453/556/355
f 514/557/356 527/465/356 400/458/356 387/558/356
f 508/559/357 525/493/357 421/426/357 409/430/357
f 544/560/358 398/561/358 472/514/358 593/513/358
f 420/483/359 553/562/360 547/563/361 408/564/359
f 585/565/362 465/566/362 379/567/362 520/568/362
f 580/463/363 552/569/363 418/570/363 460/464/363
f 551/388/364 594/571/364 474/531/364 416/389/364
f 595/495/365 475/572/365 418/573/365 552/497/365
f 625/438/304 626/574/304 477/544/304 429/420/304
f 551/388/366 415/488/366 473/575/366 594/571/366
f 592/510/367 540/576/368 389/577/368 470/578/369
f 585/565/370 475/572/370 413/416/370 512/415/370
f 591/518/371 534/375/371 414/412/371 476/496/371
f 584/579/372 509/447/372 629/446/372 631/580/372
f 519/581/373 630/582/373 633/583/373 568/584/373
f 570/553/374 453/556/374 381/585/374 521/586/374
f 533/353/375 392/352/375 456/523/375 576/587/375
f 466/480/376 465/566/376 371/393/376 372/392/376
f 536/588/377 591/518/377 476/496/377 417/498/377
f 463/589/378 434/590/378 514/591/378 571/592/378
f 522/593/379 440/594/379 463/589/379 571/592/379
f 633/583/380 574/533/380 524/532/380 627/444/380
f 464/501/381 435/595/381 560/596/381 582/502/381
f 522/593/382 571/592/382 455/489/382 395/504/382
f 468/506/383 467/505/383 374/433/383 373/432/383
f 583/597/384 508/598/384 409/599/384 473/575/384
f 359/600/385 369/555/385 510/554/385 480/601/385
f 359/600/386 480/601/386 598/602/386 481/603/386
f 360/404/387 481/603/387 598/602/387 482/604/387
f 360/404/388 482/604/388 562/452/388 446/405/388
f 361/431/389 483/605/389 513/521/389 373/432/389
f 361/431/390 484/473/390 599/606/390 483/605/390
f 362/402/391 485/607/391 599/606/391 484/473/391
f 362/402/392 448/347/392 563/455/392 485/607/392
f 363/608/393 487/609/393 599/606/393 485/607/393
f 363/608/394 485/607/394 563/455/394 486/610/394
f 364/611/395 488/612/395 513/521/395 483/605/395
f 364/611/396 483/605/396 599/606/396 487/609/396
f 365/613/397 490/614/397 562/452/397 482/604/397
f 365/613/398 482/604/398 598/602/398 489/615/398
f 366/616/399 489/615/399 598/602/399 480/601/399
f 575/617/400 459/390/400 416/389/400 535/524/400
f 556/618/401 624/619/401 626/574/401 596/620/401
f 519/417/402 429/420/402 477/544/402 584/543/402
f 569/621/403 511/401/403 411/400/403 460/464/403
f 568/584/404 633/583/404 627/444/404 506/443/404
f 569/621/405 520/568/405 379/567/405 450/622/405
f 435/623/406 634/624/406 558/625/406 443/385/406
f 507/626/407 523/516/407 573/469/407 567/472/407
f 408/627/408 547/509/408 579/387/408 459/390/408
f 569/621/409 450/622/410 367/359/409 511/401/410
f 407/628/411 419/629/411 523/516/411 507/626/411
f 493/630/412 338/371/412 404/356/412 610/631/412
f 585/565/413 512/415/413 371/393/413 465/566/413
f 350/391/414 426/414/414 613/632/414 499/633/414
f 616/383/415 503/467/415 442/466/415 565/384/415
f 614/634/416 558/625/416 430/635/416 500/636/416
f 538/637/417 402/638/417 390/639/417 532/640/417
f 495/641/418 342/435/418 406/642/418 611/643/418
f 500/644/419 351/645/419 432/646/419 614/647/419
f 528/378/420 401/648/420 494/649/420 605/379/420
f 504/650/421 357/403/421 433/474/421 615/651/421
f 602/652/422 372/392/422 350/391/422 499/633/422
f 597/653/423 561/654/423 437/655/423 479/656/423
f 381/585/424 453/556/424 452/657/424 382/658/424
f 426/414/425 349/413/425 498/659/425 613/632/425
f 605/660/426 378/456/426 358/345/426 505/661/426
f 427/662/304 623/449/304 622/439/304 462/419/304
f 505/661/427 358/345/427 449/348/427 617/663/427
f 496/664/428 345/357/428 368/360/428 600/540/428
f 386/436/429 342/435/429 495/641/429 609/665/429
f 611/643/430 406/642/430 341/666/430 494/667/430
f 466/480/431 380/479/431 379/567/431 465/566/431
f 615/668/432 559/669/432 445/670/432 504/671/432
f 614/634/433 502/386/433 443/385/433 558/625/433
f 595/495/434 550/411/434 413/416/434 475/572/434
f 603/672/435 526/673/435 431/674/435 501/675/435
f 422/676/436 554/425/436 613/428/436 498/677/436
f 539/678/437 545/457/437 399/679/437 388/680/437
f 610/631/438 404/356/438 337/355/438 492/681/438
f 400/458/439 545/457/439 539/678/439 387/558/439
f 580/463/440 461/682/440 417/683/440 552/569/440
f 623/684/441 634/624/441 435/623/441 555/685/441
f 632/441/442 634/624/442 623/684/442 427/442/442
f 628/445/443 428/448/443 624/686/443 635/687/443
f 624/686/444 556/688/444 437/689/444 635/687/444
f 349/413/445 347/409/445 385/374/445 386/436/445
f 342/435/446 340/373/446 405/366/446 406/642/446
f 449/348/447 357/403/447 504/650/447 617/663/447
f 590/525/342 532/530/448 390/690/448 469/512/343
f 560/596/449 434/590/449 463/589/449 582/502/449
f 531/691/450 408/627/450 459/390/450 575/617/450
f 350/391/451 348/394/451 425/410/451 426/414/451
f 522/593/452 395/504/452 470/578/452 587/692/452
f 518/487/453 583/597/453 473/575/453 415/488/453
f 526/673/454 629/446/454 628/445/454 431/674/454
f 523/516/455 419/629/455 496/693/455 600/517/455
f 429/420/456 462/419/456 622/439/456 625/438/456
f 447/406/457 354/552/457 503/694/457 616/695/457
f 338/371/458 336/361/458 403/350/458 404/356/458
f 546/696/459 402/638/459 495/697/459 611/698/459
f 445/670/460 566/382/460 617/381/460 504/671/460
f 557/421/461 441/424/461 479/536/461 596/539/461
f 419/629/462 553/562/462 612/699/462 496/693/462
f 341/666/463 339/365/463 377/370/463 378/456/463
f 337/355/464 335/349/464 383/354/464 384/700/464
f 354/552/465 447/406/465 446/405/465 353/451/465
f 359/600/466 481/603/466 432/646/466 351/645/466
f 361/431/467 352/434/467 433/474/467 484/473/467
f 346/395/468 384/700/468 383/354/468 344/396/468
f 577/492/324 454/701/469 396/511/334 543/503/333
f 522/593/470 587/692/470 478/702/470 440/594/470
f 609/703/471 538/637/471 422/676/471 498/677/471
f 535/524/472 416/389/472 474/531/472 590/525/472
f 360/404/473 355/407/473 432/646/473 481/603/473
f 547/563/361 553/562/360 419/629/474 407/628/474
f 492/704/475 399/679/475 545/457/475 610/460/475
f 608/485/476 537/484/476 399/679/476 492/704/476
f 544/560/477 593/513/477 471/519/477 397/705/477
f 629/446/478 526/673/478 589/706/478 631/580/478
f 597/653/479 479/656/479 441/500/479 564/499/479
f 533/353/480 576/587/480 461/682/480 412/408/480
f 450/622/481 379/567/481 380/479/481 451/541/481
f 619/707/482 452/657/482 370/708/482 601/709/482
f 585/565/483 520/568/483 418/573/483 475/572/483
f 478/702/484 436/710/484 561/654/484 597/653/484
f 588/550/485 583/711/485 518/471/485 529/470/485
f 620/551/486 588/550/486 529/470/486 606/712/486
f 382/658/487 452/657/487 619/707/487 607/713/487
f 557/437/488 596/620/488 626/574/488 625/438/488
f 564/499/489 582/502/489 463/589/489 440/594/489
f 624/619/490 428/545/490 477/544/490 626/574/490
f 453/556/491 369/555/491 370/708/491 452/657/491
f 519/714/492 584/579/492 631/580/492 630/715/492
f 574/533/493 633/583/493 630/582/493 530/548/493
f 555/716/494 435/717/494 464/423/494 581/422/494
f 575/617/495 535/524/341 396/511/344 454/701/496
f 467/505/497 621/718/497 603/719/497 374/433/497
f 341/666/498 406/642/498 405/366/498 339/365/498
f 577/492/324 539/491/323 388/720/499 454/701/469
f 515/721/500 436/710/500 478/702/500 587/692/500
f 359/600/501 351/645/501 370/708/501 369/555/501
f 588/550/502 525/493/502 508/559/502 583/711/502
f 628/445/503 635/687/503 559/669/503 431/674/503
f 402/638/504 546/696/504 540/722/504 390/639/504
f 536/723/505 576/587/505 456/523/505 397/724/505
f 540/722/506 546/696/506 401/648/506 389/725/506
f 568/418/304 506/726/304 427/662/304 462/419/304
f 578/522/507 544/528/507 397/724/507 456/523/507
f 367/359/508 450/622/508 451/541/508 368/360/508
f 597/653/509 564/499/509 440/594/509 478/702/509
f 514/591/510 387/490/510 455/489/510 571/592/510
f 621/727/511 607/728/511 530/729/511 589/706/511
f 593/513/512 542/367/512 394/376/512 471/519/512
f 618/542/513 451/541/513 380/479/513 606/482/513
f 580/463/514 549/399/514 412/408/514 461/682/514
f 586/520/515 521/730/515 381/507/515 468/506/515
f 388/720/516 531/691/516 575/617/495 454/701/496
f 530/729/517 630/715/517 631/580/517 589/706/517
f 536/723/518 417/683/518 461/682/518 576/587/518
f 470/578/519 389/577/519 515/721/519 587/692/519
f 592/510/367 470/578/369 395/504/520 543/503/520
f 466/480/521 372/392/521 602/652/521 620/481/521
f 621/727/522 589/706/522 526/673/522 603/672/522
f 594/571/523 548/731/523 410/529/523 474/531/523
f 401/648/524 528/378/524 515/732/524 389/725/524
f 495/697/525 402/638/525 538/637/525 609/703/525
f 560/733/526 435/623/526 443/385/526 565/384/526
f 501/734/527 352/434/527 374/433/527 603/719/527
f 515/732/528 528/378/528 444/377/528 436/462/528
f 384/700/529 346/395/529 497/735/529 608/736/529
f 635/687/530 437/689/530 445/670/530 559/669/530
f 431/674/531 559/669/531 615/668/531 501/675/531
f 537/484/532 420/483/532 408/564/532 531/737/532
f 553/562/533 420/483/318 497/486/320 612/699/533
f 349/413/534 386/436/534 609/665/534 498/659/534
f 493/459/535 400/458/535 527/465/535 604/468/535
f 399/679/536 537/484/536 531/737/536 388/680/536
f 558/625/537 634/624/537 632/441/537 430/635/537
f 494/667/538 341/666/538 378/456/538 605/660/538
f 536/588/539 397/705/539 471/519/539 591/518/539
f 503/694/540 354/552/540 376/372/540 604/738/540
f 497/735/541 346/395/541 424/398/541 612/739/541
f 469/512/335 390/690/542 540/576/542 592/510/332
f 409/599/543 548/731/543 594/571/543 473/575/543
f 578/522/544 541/351/544 391/364/544 457/526/544
f 621/718/545 467/505/545 382/508/545 607/740/545
f 579/387/546 458/476/546 415/488/546 551/388/546
f 502/741/547 355/407/547 447/406/547 616/695/547
f 337/355/548 384/700/548 608/736/548 492/681/548
f 433/474/549 352/434/549 501/734/549 615/651/549
f 604/738/550 376/372/550 338/371/550 493/630/550
f 612/739/551 424/398/551 345/357/551 496/664/551
f 422/676/552 538/637/552 532/640/552 410/742/552
f 632/441/553 627/444/553 524/532/553 430/635/553
f 494/649/554 401/648/554 546/696/554 611/698/554
f 561/461/555 566/382/555 445/670/555 437/689/555
f 573/469/556 618/515/556 606/712/556 529/470/556
f 601/709/557 370/708/557 351/645/557 500/644/557
f 434/743/558 560/733/558 565/384/558 442/466/558
f 432/646/559 355/407/559 502/741/559 614/647/559
f 524/532/560 601/535/560 500/636/560 430/635/560
f 548/429/561 554/425/561 422/676/561 410/742/561
f 514/557/562 434/743/562 442/466/562 527/465/562
f 569/621/563 460/464/563 418/570/563 520/568/563
l 244 271
l 284 292
l 277 278
l 281 290
l 491 521
l 275 276
